ZillaSlab-Medium.ufo
<glyph name="exclam" format="1">
  <advance width="246"/>
  <unicode hex="0021"/>
  <outline>
    <contour>
      <point x="175" y="650" type="line"/>
      <point x="71" y="650" type="line"/>
      <point x="90" y="203" type="line"/>
      <point x="155" y="203" type="line"/>
    </contour>
    <contour>
      <point x="71" y="0" type="line"/>
      <point x="178" y="0" type="line"/>
      <point x="178" y="111" type="line"/>
      <point x="71" y="111" type="line"/>
    </contour>
  </outline>
</glyph>
<glyph name="quotedbl" format="1">
  <advance width="376"/>
  <unicode hex="0022"/>
  <outline>
    <contour>
      <point x="136" y="377" type="line"/>
      <point x="142" y="650" type="line"/>
      <point x="54" y="650" type="line"/>
      <point x="60" y="377" type="line"/>
    </contour>
    <contour>
      <point x="316" y="377" type="line"/>
      <point x="322" y="650" type="line"/>
      <point x="234" y="650" type="line"/>
      <point x="240" y="377" type="line"/>
    </contour>
  </outline>
</glyph>
<glyph name="dollar" format="1">
  <advance width="476"/>
  <unicode hex="0024"/>
  <outline>
    <contour>
      <point x="436" y="152" type="curve" smooth="yes"/>
      <point x="436" y="268"/>
      <point x="331" y="293"/>
      <point x="266" y="307" type="curve"/>
      <point x="266" y="458" type="line"/>
      <point x="288" y="456"/>
      <point x="312" y="449"/>
      <point x="335" y="436" type="curve"/>
      <point x="346" y="356" type="line"/>
      <point x="420" y="362" type="line"/>
      <point x="411" y="481" type="line"/>
      <point x="376" y="504"/>
      <point x="329" y="523"/>
      <point x="266" y="528" type="curve"/>
      <point x="266" y="593" type="line"/>
      <point x="218" y="593" type="line"/>
      <point x="218" y="528" type="line"/>
      <point x="131" y="522"/>
      <point x="50" y="480"/>
      <point x="50" y="380" type="curve" smooth="yes"/>
      <point x="50" y="275"/>
      <point x="138" y="256"/>
      <point x="218" y="240" type="curve"/>
      <point x="218" y="64" type="line"/>
      <point x="188" y="66"/>
      <point x="156" y="75"/>
      <point x="130" y="87" type="curve"/>
      <point x="137" y="157" type="line"/>
      <point x="63" y="162" type="line"/>
      <point x="45" y="44" type="line"/>
      <point x="80" y="20"/>
      <point x="143" y="-3"/>
      <point x="218" y="-7" type="curve"/>
      <point x="218" y="-65" type="line"/>
      <point x="266" y="-65" type="line"/>
      <point x="266" y="-7" type="line"/>
      <point x="366" y="1"/>
      <point x="436" y="57"/>
    </contour>
    <contour>
      <point x="343" y="143" type="curve" smooth="yes"/>
      <point x="343" y="97"/>
      <point x="315" y="71"/>
      <point x="266" y="64" type="curve"/>
      <point x="266" y="228" type="line"/>
      <point x="309" y="214"/>
      <point x="343" y="192"/>
    </contour>
    <contour>
      <point x="143" y="390" type="curve" smooth="yes"/>
      <point x="143" y="430"/>
      <point x="173" y="453"/>
      <point x="218" y="459" type="curve"/>
      <point x="218" y="317" type="line"/>
      <point x="176" y="328"/>
      <point x="143" y="346"/>
    </contour>
  </outline>
</glyph>
<glyph name="ampersand" format="1">
  <advance width="722"/>
  <unicode hex="0026"/>
  <outline>
    <contour>
      <point x="430" y="369" type="line"/>
      <point x="701" y="369" type="line"/>
      <point x="701" y="291" type="line"/>
      <point x="608" y="291" type="line"/>
      <point x="585" y="232"/>
      <point x="540" y="163"/>
      <point x="482" y="106" type="curve"/>
      <point x="520" y="86"/>
      <point x="560" y="74"/>
      <point x="598" y="74" type="curve" smooth="yes"/>
      <point x="625" y="74"/>
      <point x="651" y="81"/>
      <point x="674" y="93" type="curve"/>
      <point x="694" y="18" type="line"/>
      <point x="660" y="-1"/>
      <point x="623" y="-10"/>
      <point x="585" y="-10" type="curve" smooth="yes"/>
      <point x="526" y="-10"/>
      <point x="465" y="11"/>
      <point x="408" y="46" type="curve"/>
      <point x="356" y="12"/>
      <point x="297" y="-10"/>
      <point x="235" y="-10" type="curve" smooth="yes"/>
      <point x="138" y="-10"/>
      <point x="40" y="44"/>
      <point x="40" y="154" type="curve" smooth="yes"/>
      <point x="40" y="241"/>
      <point x="103" y="284"/>
      <point x="169" y="321" type="curve"/>
      <point x="144" y="375"/>
      <point x="130" y="429"/>
      <point x="130" y="477" type="curve" smooth="yes"/>
      <point x="130" y="578"/>
      <point x="194" y="660"/>
      <point x="315" y="660" type="curve" smooth="yes"/>
      <point x="414" y="660"/>
      <point x="482" y="606"/>
      <point x="482" y="521" type="curve" smooth="yes"/>
      <point x="482" y="424"/>
      <point x="387" y="375"/>
      <point x="271" y="318" type="curve"/>
      <point x="310" y="250"/>
      <point x="365" y="185"/>
      <point x="427" y="139" type="curve"/>
      <point x="467" y="178"/>
      <point x="497" y="231"/>
      <point x="513" y="291" type="curve"/>
      <point x="430" y="291" type="line"/>
    </contour>
    <contour>
      <point x="392" y="517" type="curve" smooth="yes"/>
      <point x="392" y="550"/>
      <point x="371" y="591"/>
      <point x="313" y="591" type="curve" smooth="yes"/>
      <point x="248" y="591"/>
      <point x="220" y="539"/>
      <point x="220" y="485" type="curve" smooth="yes"/>
      <point x="220" y="446"/>
      <point x="230" y="405"/>
      <point x="248" y="363" type="curve"/>
      <point x="331" y="408"/>
      <point x="392" y="454"/>
    </contour>
    <contour>
      <point x="192" y="276" type="curve"/>
      <point x="152" y="250"/>
      <point x="128" y="216"/>
      <point x="128" y="169" type="curve" smooth="yes"/>
      <point x="128" y="95"/>
      <point x="188" y="66"/>
      <point x="258" y="66" type="curve" smooth="yes"/>
      <point x="291" y="66"/>
      <point x="323" y="73"/>
      <point x="352" y="87" type="curve"/>
      <point x="288" y="139"/>
      <point x="232" y="206"/>
    </contour>
  </outline>
</glyph>
<glyph name="quotesingle" format="1">
  <advance width="196"/>
  <unicode hex="0027"/>
  <outline>
    <contour>
      <point x="136" y="377" type="line"/>
      <point x="142" y="650" type="line"/>
      <point x="54" y="650" type="line"/>
      <point x="60" y="377" type="line"/>
    </contour>
  </outline>
</glyph>
<glyph name="parenleft" format="1">
  <advance width="278"/>
  <unicode hex="0028"/>
  <outline>
    <contour>
      <point x="195" y="718" type="curve"/>
      <point x="276" y="718" type="line"/>
      <point x="166" y="578"/>
      <point x="110" y="427"/>
      <point x="110" y="270" type="curve" smooth="yes"/>
      <point x="110" y="115"/>
      <point x="165" y="-45"/>
      <point x="276" y="-183" type="curve"/>
      <point x="193" y="-183" type="line"/>
      <point x="82" y="-36"/>
      <point x="34" y="118"/>
      <point x="34" y="270" type="curve" smooth="yes"/>
      <point x="34" y="424"/>
      <point x="85" y="576"/>
    </contour>
  </outline>
</glyph>
<glyph name="comma" format="1">
  <advance width="207"/>
  <unicode hex="002C"/>
  <outline>
    <contour>
      <point x="18" y="-97" type="line"/>
      <point x="103" y="-97" type="line"/>
      <point x="158" y="124" type="line"/>
      <point x="73" y="124" type="line"/>
    </contour>
  </outline>
</glyph>
<glyph name="hyphen" format="1">
  <advance width="340"/>
  <unicode hex="002D"/>
  <unicode hex="00AD"/>
  <outline>
    <contour>
      <point x="53" y="269" type="line"/>
      <point x="287" y="269" type="line"/>
      <point x="287" y="194" type="line"/>
      <point x="53" y="194" type="line"/>
    </contour>
  </outline>
</glyph>
<glyph name="slash" format="1">
  <advance width="350"/>
  <unicode hex="002F"/>
  <outline>
    <contour>
      <point x="329" y="688" type="line"/>
      <point x="120" y="0" type="line"/>
      <point x="34" y="0" type="line"/>
      <point x="243" y="688" type="line"/>
    </contour>
  </outline>
</glyph>
<glyph name="one" format="1">
  <advance width="391"/>
  <unicode hex="0031"/>
  <outline>
    <contour>
      <point x="371" y="0" type="line"/>
      <point x="371" y="79" type="line"/>
      <point x="259" y="79" type="line"/>
      <point x="259" y="521" type="line"/>
      <point x="50" y="521" type="line"/>
      <point x="50" y="442" type="line"/>
      <point x="168" y="442" type="line"/>
      <point x="168" y="79" type="line"/>
      <point x="50" y="79" type="line"/>
      <point x="50" y="0" type="line"/>
    </contour>
  </outline>
</glyph>
<glyph name="two" format="1">
  <advance width="521"/>
  <unicode hex="0032"/>
  <outline>
    <contour>
      <point x="74" y="489" type="curve"/>
      <point x="56" y="366" type="line"/>
      <point x="127" y="358" type="line"/>
      <point x="143" y="432" type="line"/>
      <point x="173" y="446"/>
      <point x="215" y="453"/>
      <point x="242" y="453" type="curve" smooth="yes"/>
      <point x="310" y="453"/>
      <point x="352" y="422"/>
      <point x="352" y="365" type="curve" smooth="yes"/>
      <point x="352" y="271"/>
      <point x="225" y="191"/>
      <point x="45" y="71" type="curve"/>
      <point x="53" y="0" type="line"/>
      <point x="473" y="0" type="line"/>
      <point x="485" y="146" type="line"/>
      <point x="411" y="152" type="line"/>
      <point x="403" y="79" type="line"/>
      <point x="156" y="79" type="line"/>
      <point x="273" y="146"/>
      <point x="449" y="241"/>
      <point x="449" y="377" type="curve" smooth="yes"/>
      <point x="449" y="451"/>
      <point x="398" y="531"/>
      <point x="259" y="531" type="curve" smooth="yes"/>
      <point x="203" y="531"/>
      <point x="131" y="517"/>
    </contour>
  </outline>
</glyph>
<glyph name="five" format="1">
  <advance width="515"/>
  <unicode hex="0035"/>
  <outline>
    <contour>
      <point x="478" y="66" type="curve" smooth="yes"/>
      <point x="478" y="236"/>
      <point x="344" y="272"/>
      <point x="204" y="272" type="curve" smooth="yes"/>
      <point x="189" y="272"/>
      <point x="173" y="272"/>
      <point x="158" y="271" type="curve"/>
      <point x="158" y="443" type="line"/>
      <point x="370" y="443" type="line"/>
      <point x="382" y="363" type="line"/>
      <point x="458" y="370" type="line"/>
      <point x="447" y="521" type="line"/>
      <point x="74" y="521" type="line"/>
      <point x="74" y="221" type="line"/>
      <point x="104" y="192" type="line"/>
      <point x="132" y="194"/>
      <point x="163" y="196"/>
      <point x="190" y="196" type="curve" smooth="yes"/>
      <point x="291" y="196"/>
      <point x="380" y="177"/>
      <point x="380" y="64" type="curve" smooth="yes"/>
      <point x="380" y="-10"/>
      <point x="340" y="-63"/>
      <point x="250" y="-63" type="curve" smooth="yes"/>
      <point x="176" y="-63"/>
      <point x="135" y="-20"/>
      <point x="122" y="35" type="curve"/>
      <point x="49" y="11" type="line"/>
      <point x="62" y="-77"/>
      <point x="128" y="-140"/>
      <point x="255" y="-140" type="curve" smooth="yes"/>
      <point x="389" y="-140"/>
      <point x="478" y="-71"/>
    </contour>
  </outline>
</glyph>
<glyph name="six" format="1">
  <advance width="533"/>
  <unicode hex="0036"/>
  <outline>
    <contour>
      <point x="489" y="208" type="curve" smooth="yes"/>
      <point x="489" y="313"/>
      <point x="439" y="408"/>
      <point x="306" y="408" type="curve" smooth="yes"/>
      <point x="209" y="408"/>
      <point x="160" y="358"/>
      <point x="139" y="307" type="curve"/>
      <point x="139" y="311"/>
      <point x="139" y="326"/>
      <point x="140" y="329" type="curve" smooth="yes"/>
      <point x="143" y="495"/>
      <point x="176" y="582"/>
      <point x="287" y="582" type="curve" smooth="yes"/>
      <point x="342" y="582"/>
      <point x="392" y="558"/>
      <point x="424" y="518" type="curve"/>
      <point x="477" y="572" type="line"/>
      <point x="430" y="633"/>
      <point x="369" y="660"/>
      <point x="289" y="660" type="curve" smooth="yes"/>
      <point x="107" y="660"/>
      <point x="43" y="503"/>
      <point x="43" y="308" type="curve" smooth="yes"/>
      <point x="43" y="124"/>
      <point x="100" y="-10"/>
      <point x="273" y="-10" type="curve" smooth="yes"/>
      <point x="419" y="-10"/>
      <point x="489" y="86"/>
    </contour>
    <contour>
      <point x="396" y="204" type="curve" smooth="yes"/>
      <point x="396" y="121"/>
      <point x="362" y="71"/>
      <point x="275" y="71" type="curve" smooth="yes"/>
      <point x="186" y="71"/>
      <point x="154" y="123"/>
      <point x="143" y="206" type="curve"/>
      <point x="148" y="265"/>
      <point x="185" y="332"/>
      <point x="280" y="332" type="curve" smooth="yes"/>
      <point x="364" y="332"/>
      <point x="396" y="285"/>
    </contour>
  </outline>
</glyph>
<glyph name="colon" format="1">
  <advance width="231"/>
  <unicode hex="003A"/>
  <outline>
    <contour>
      <point x="63" y="0" type="line"/>
      <point x="169" y="0" type="line"/>
      <point x="169" y="124" type="line"/>
      <point x="63" y="124" type="line"/>
    </contour>
    <contour>
      <point x="63" y="323" type="line"/>
      <point x="169" y="323" type="line"/>
      <point x="169" y="447" type="line"/>
      <point x="63" y="447" type="line"/>
    </contour>
  </outline>
</glyph>
<glyph name="semicolon" format="1">
  <advance width="238"/>
  <unicode hex="003B"/>
  <outline>
    <contour>
      <point x="165" y="124" type="line"/>
      <point x="79" y="124" type="line"/>
      <point x="24" y="-97" type="line"/>
      <point x="110" y="-97" type="line"/>
    </contour>
    <contour>
      <point x="74" y="323" type="line"/>
      <point x="179" y="323" type="line"/>
      <point x="179" y="447" type="line"/>
      <point x="74" y="447" type="line"/>
    </contour>
  </outline>
</glyph>
<glyph name="less" format="1">
  <advance width="404"/>
  <unicode hex="003C"/>
  <outline>
    <contour>
      <point x="347" y="14" type="line"/>
      <point x="347" y="98" type="line"/>
      <point x="121" y="281" type="line"/>
      <point x="346" y="465" type="line"/>
      <point x="346" y="549" type="line"/>
      <point x="28" y="293" type="line"/>
      <point x="28" y="265" type="line"/>
    </contour>
  </outline>
</glyph>
<glyph name="equal" format="1">
  <advance width="569"/>
  <unicode hex="003D"/>
  <outline>
    <contour>
      <point x="56" y="359" type="line"/>
      <point x="513" y="359" type="line"/>
      <point x="513" y="423" type="line"/>
      <point x="56" y="423" type="line"/>
    </contour>
    <contour>
      <point x="56" y="138" type="line"/>
      <point x="513" y="138" type="line"/>
      <point x="513" y="201" type="line"/>
      <point x="56" y="201" type="line"/>
    </contour>
  </outline>
</glyph>
<glyph name="question" format="1">
  <advance width="456"/>
  <unicode hex="003F"/>
  <outline>
    <contour>
      <point x="115" y="459" type="line"/>
      <point x="129" y="548" type="line"/>
      <point x="156" y="569"/>
      <point x="192" y="580"/>
      <point x="229" y="580" type="curve" smooth="yes"/>
      <point x="294" y="580"/>
      <point x="330" y="551"/>
      <point x="330" y="508" type="curve" smooth="yes"/>
      <point x="330" y="405"/>
      <point x="133" y="397"/>
      <point x="133" y="275" type="curve" smooth="yes"/>
      <point x="133" y="217"/>
      <point x="177" y="180"/>
      <point x="277" y="188" type="curve"/>
      <point x="277" y="246" type="line"/>
      <point x="243" y="246"/>
      <point x="227" y="260"/>
      <point x="227" y="283" type="curve" smooth="yes"/>
      <point x="227" y="363"/>
      <point x="428" y="386"/>
      <point x="428" y="521" type="curve" smooth="yes"/>
      <point x="428" y="607"/>
      <point x="345" y="660"/>
      <point x="238" y="660" type="curve" smooth="yes"/>
      <point x="176" y="660"/>
      <point x="106" y="634"/>
      <point x="56" y="595" type="curve"/>
      <point x="44" y="465" type="line"/>
    </contour>
    <contour>
      <point x="162" y="0" type="line"/>
      <point x="270" y="0" type="line"/>
      <point x="270" y="111" type="line"/>
      <point x="162" y="111" type="line"/>
    </contour>
  </outline>
</glyph>
<glyph name="at" format="1">
  <advance width="902"/>
  <unicode hex="0040"/>
  <outline>
    <contour>
      <point x="296" y="409" type="curve"/>
      <point x="277" y="300" type="line"/>
      <point x="343" y="292" type="line"/>
      <point x="364" y="367" type="line"/>
      <point x="393" y="385"/>
      <point x="421" y="391"/>
      <point x="451" y="391" type="curve" smooth="yes"/>
      <point x="516" y="391"/>
      <point x="538" y="354"/>
      <point x="538" y="282" type="curve" smooth="yes"/>
      <point x="538" y="248" type="line"/>
      <point x="515" y="249"/>
      <point x="487" y="251"/>
      <point x="462" y="251" type="curve" smooth="yes"/>
      <point x="361" y="251"/>
      <point x="250" y="228"/>
      <point x="250" y="116" type="curve" smooth="yes"/>
      <point x="250" y="22"/>
      <point x="328" y="-10"/>
      <point x="390" y="-10" type="curve" smooth="yes"/>
      <point x="463" y="-10"/>
      <point x="514" y="36"/>
      <point x="541" y="85" type="curve"/>
      <point x="551" y="28"/>
      <point x="600" y="-10"/>
      <point x="671" y="-10" type="curve" smooth="yes"/>
      <point x="815" y="-10"/>
      <point x="861" y="144"/>
      <point x="861" y="273" type="curve" smooth="yes"/>
      <point x="861" y="553"/>
      <point x="642" y="654"/>
      <point x="460" y="654" type="curve" smooth="yes"/>
      <point x="209" y="654"/>
      <point x="37" y="460"/>
      <point x="37" y="217" type="curve" smooth="yes"/>
      <point x="37" y="-35"/>
      <point x="223" y="-202"/>
      <point x="456" y="-202" type="curve" smooth="yes"/>
      <point x="553" y="-202"/>
      <point x="643" y="-173"/>
      <point x="708" y="-130" type="curve"/>
      <point x="679" y="-76" type="line"/>
      <point x="619" y="-117"/>
      <point x="539" y="-135"/>
      <point x="467" y="-135" type="curve" smooth="yes"/>
      <point x="283" y="-135"/>
      <point x="110" y="-16"/>
      <point x="110" y="225" type="curve" smooth="yes"/>
      <point x="110" y="445"/>
      <point x="253" y="587"/>
      <point x="464" y="587" type="curve" smooth="yes"/>
      <point x="623" y="587"/>
      <point x="787" y="508"/>
      <point x="787" y="245" type="curve" smooth="yes"/>
      <point x="787" y="156"/>
      <point x="767" y="51"/>
      <point x="690" y="51" type="curve" smooth="yes"/>
      <point x="653" y="51"/>
      <point x="626" y="73"/>
      <point x="626" y="112" type="curve" smooth="yes"/>
      <point x="626" y="305" type="line" smooth="yes"/>
      <point x="626" y="399"/>
      <point x="569" y="456"/>
      <point x="458" y="456" type="curve" smooth="yes"/>
      <point x="390" y="456"/>
      <point x="342" y="439"/>
    </contour>
    <contour>
      <point x="538" y="200" type="curve"/>
      <point x="538" y="177" type="line" smooth="yes"/>
      <point x="537" y="102"/>
      <point x="476" y="56"/>
      <point x="419" y="56" type="curve" smooth="yes"/>
      <point x="378" y="56"/>
      <point x="343" y="78"/>
      <point x="343" y="126" type="curve" smooth="yes"/>
      <point x="343" y="191"/>
      <point x="401" y="205"/>
      <point x="463" y="205" type="curve" smooth="yes"/>
      <point x="488" y="205"/>
      <point x="515" y="203"/>
    </contour>
  </outline>
</glyph>
<glyph name="A" format="1">
  <advance width="660"/>
  <unicode hex="0041"/>
  <outline>
    <contour>
      <point x="664" y="0" type="line"/>
      <point x="664" y="79" type="line"/>
      <point x="600" y="79" type="line"/>
      <point x="366" y="650" type="line"/>
      <point x="170" y="650" type="line"/>
      <point x="170" y="571" type="line"/>
      <point x="270" y="571" type="line"/>
      <point x="65" y="79" type="line"/>
      <point x="5" y="79" type="line"/>
      <point x="5" y="0" type="line"/>
      <point x="242" y="0" type="line"/>
      <point x="242" y="79" type="line"/>
      <point x="157" y="79" type="line"/>
      <point x="200" y="187" type="line"/>
      <point x="462" y="187" type="line"/>
      <point x="502" y="79" type="line"/>
      <point x="425" y="79" type="line"/>
      <point x="425" y="0" type="line"/>
    </contour>
    <contour>
      <point x="436" y="255" type="line"/>
      <point x="227" y="255" type="line"/>
      <point x="331" y="519" type="line"/>
      <point x="337" y="519" type="line"/>
    </contour>
  </outline>
</glyph>
<glyph name="B" format="1">
  <advance width="609"/>
  <unicode hex="0042"/>
  <outline>
    <contour>
      <point x="574" y="187" type="curve" smooth="yes"/>
      <point x="574" y="271"/>
      <point x="528" y="338"/>
      <point x="435" y="352" type="curve"/>
      <point x="435" y="356" type="line"/>
      <point x="503" y="370"/>
      <point x="548" y="426"/>
      <point x="548" y="495" type="curve" smooth="yes"/>
      <point x="548" y="588"/>
      <point x="480" y="650"/>
      <point x="352" y="650" type="curve" smooth="yes"/>
      <point x="41" y="650" type="line"/>
      <point x="41" y="571" type="line"/>
      <point x="120" y="571" type="line"/>
      <point x="120" y="79" type="line"/>
      <point x="41" y="79" type="line"/>
      <point x="41" y="0" type="line"/>
      <point x="356" y="0" type="line" smooth="yes"/>
      <point x="501" y="0"/>
      <point x="574" y="83"/>
    </contour>
    <contour>
      <point x="476" y="191" type="curve" smooth="yes"/>
      <point x="476" y="113"/>
      <point x="424" y="79"/>
      <point x="337" y="79" type="curve" smooth="yes"/>
      <point x="211" y="79" type="line"/>
      <point x="211" y="298" type="line"/>
      <point x="356" y="298" type="line" smooth="yes"/>
      <point x="435" y="298"/>
      <point x="476" y="259"/>
    </contour>
    <contour>
      <point x="451" y="473" type="curve" smooth="yes"/>
      <point x="451" y="409"/>
      <point x="405" y="371"/>
      <point x="328" y="371" type="curve" smooth="yes"/>
      <point x="211" y="371" type="line"/>
      <point x="211" y="571" type="line"/>
      <point x="333" y="571" type="line" smooth="yes"/>
      <point x="405" y="571"/>
      <point x="451" y="548"/>
    </contour>
  </outline>
</glyph>
<glyph name="F" format="1">
  <advance width="561"/>
  <unicode hex="0046"/>
  <outline>
    <contour>
      <point x="539" y="459" type="line"/>
      <point x="518" y="650" type="line"/>
      <point x="41" y="650" type="line"/>
      <point x="41" y="571" type="line"/>
      <point x="120" y="571" type="line"/>
      <point x="120" y="79" type="line"/>
      <point x="41" y="79" type="line"/>
      <point x="41" y="0" type="line"/>
      <point x="323" y="0" type="line"/>
      <point x="323" y="79" type="line"/>
      <point x="211" y="79" type="line"/>
      <point x="211" y="261" type="line"/>
      <point x="502" y="261" type="line"/>
      <point x="502" y="339" type="line"/>
      <point x="211" y="339" type="line"/>
      <point x="211" y="571" type="line"/>
      <point x="439" y="571" type="line"/>
      <point x="459" y="451" type="line"/>
    </contour>
  </outline>
</glyph>
<glyph name="I" format="1">
  <advance width="331"/>
  <unicode hex="0049"/>
  <outline>
    <contour>
      <point x="289" y="0" type="line"/>
      <point x="289" y="79" type="line"/>
      <point x="211" y="79" type="line"/>
      <point x="211" y="571" type="line"/>
      <point x="289" y="571" type="line"/>
      <point x="289" y="650" type="line"/>
      <point x="41" y="650" type="line"/>
      <point x="41" y="571" type="line"/>
      <point x="120" y="571" type="line"/>
      <point x="120" y="79" type="line"/>
      <point x="41" y="79" type="line"/>
      <point x="41" y="0" type="line"/>
    </contour>
  </outline>
</glyph>
<glyph name="K" format="1">
  <advance width="651"/>
  <unicode hex="004B"/>
  <outline>
    <contour>
      <point x="644" y="0" type="line"/>
      <point x="644" y="79" type="line"/>
      <point x="573" y="79" type="line"/>
      <point x="381" y="339" type="line"/>
      <point x="558" y="572" type="line"/>
      <point x="632" y="572" type="line"/>
      <point x="632" y="651" type="line"/>
      <point x="391" y="651" type="line"/>
      <point x="391" y="572" type="line"/>
      <point x="462" y="572" type="line"/>
      <point x="310" y="368" type="line"/>
      <point x="211" y="368" type="line"/>
      <point x="211" y="571" type="line"/>
      <point x="282" y="571" type="line"/>
      <point x="282" y="650" type="line"/>
      <point x="41" y="650" type="line"/>
      <point x="41" y="571" type="line"/>
      <point x="120" y="571" type="line"/>
      <point x="120" y="79" type="line"/>
      <point x="41" y="79" type="line"/>
      <point x="41" y="0" type="line"/>
      <point x="280" y="0" type="line"/>
      <point x="280" y="79" type="line"/>
      <point x="211" y="79" type="line"/>
      <point x="211" y="292" type="line"/>
      <point x="311" y="292" type="line"/>
      <point x="467" y="79" type="line"/>
      <point x="395" y="79" type="line"/>
      <point x="395" y="0" type="line"/>
    </contour>
  </outline>
</glyph>
<glyph name="M" format="1">
  <advance width="887"/>
  <unicode hex="004D"/>
  <outline>
    <contour>
      <point x="850" y="571" type="line"/>
      <point x="850" y="650" type="line"/>
      <point x="687" y="650" type="line"/>
      <point x="450" y="172" type="line"/>
      <point x="446" y="172" type="line"/>
      <point x="199" y="650" type="line"/>
      <point x="37" y="650" type="line"/>
      <point x="37" y="571" type="line"/>
      <point x="121" y="571" type="line"/>
      <point x="121" y="79" type="line"/>
      <point x="43" y="79" type="line"/>
      <point x="43" y="0" type="line"/>
      <point x="280" y="0" type="line"/>
      <point x="280" y="79" type="line"/>
      <point x="207" y="79" type="line"/>
      <point x="207" y="450" type="line"/>
      <point x="211" y="450" type="line"/>
      <point x="422" y="39" type="line"/>
      <point x="467" y="39" type="line"/>
      <point x="671" y="444" type="line"/>
      <point x="675" y="444" type="line"/>
      <point x="675" y="79" type="line"/>
      <point x="605" y="79" type="line"/>
      <point x="605" y="0" type="line"/>
      <point x="844" y="0" type="line"/>
      <point x="844" y="79" type="line"/>
      <point x="766" y="79" type="line"/>
      <point x="766" y="571" type="line"/>
    </contour>
  </outline>
</glyph>
<glyph name="T" format="1">
  <advance width="629"/>
  <unicode hex="0054"/>
  <outline>
    <contour>
      <point x="608" y="446" type="line"/>
      <point x="588" y="650" type="line"/>
      <point x="40" y="650" type="line"/>
      <point x="21" y="446" type="line"/>
      <point x="100" y="439" type="line"/>
      <point x="120" y="571" type="line"/>
      <point x="269" y="571" type="line"/>
      <point x="269" y="79" type="line"/>
      <point x="160" y="79" type="line"/>
      <point x="160" y="0" type="line"/>
      <point x="472" y="0" type="line"/>
      <point x="472" y="79" type="line"/>
      <point x="360" y="79" type="line"/>
      <point x="360" y="571" type="line"/>
      <point x="508" y="571" type="line"/>
      <point x="528" y="439" type="line"/>
    </contour>
  </outline>
</glyph>
<glyph name="U" format="1">
  <advance width="718"/>
  <unicode hex="0055"/>
  <outline>
    <contour>
      <point x="684" y="571" type="line"/>
      <point x="684" y="650" type="line"/>
      <point x="449" y="650" type="line"/>
      <point x="449" y="571" type="line"/>
      <point x="536" y="571" type="line"/>
      <point x="536" y="267" type="line" smooth="yes"/>
      <point x="536" y="141"/>
      <point x="477" y="71"/>
      <point x="361" y="71" type="curve" smooth="yes"/>
      <point x="243" y="71"/>
      <point x="189" y="143"/>
      <point x="189" y="259" type="curve" smooth="yes"/>
      <point x="189" y="571" type="line"/>
      <point x="275" y="571" type="line"/>
      <point x="275" y="650" type="line"/>
      <point x="34" y="650" type="line"/>
      <point x="34" y="571" type="line"/>
      <point x="98" y="571" type="line"/>
      <point x="98" y="256" type="line" smooth="yes"/>
      <point x="98" y="116"/>
      <point x="162" y="-10"/>
      <point x="357" y="-10" type="curve" smooth="yes"/>
      <point x="559" y="-10"/>
      <point x="622" y="129"/>
      <point x="622" y="267" type="curve" smooth="yes"/>
      <point x="622" y="571" type="line"/>
    </contour>
  </outline>
</glyph>
<glyph name="V" format="1">
  <advance width="659"/>
  <unicode hex="0056"/>
  <outline>
    <contour>
      <point x="658" y="571" type="line"/>
      <point x="658" y="650" type="line"/>
      <point x="421" y="650" type="line"/>
      <point x="421" y="571" type="line"/>
      <point x="505" y="571" type="line"/>
      <point x="338" y="137" type="line"/>
      <point x="332" y="137" type="line"/>
      <point x="162" y="571" type="line"/>
      <point x="243" y="571" type="line"/>
      <point x="243" y="650" type="line"/>
      <point x="-1" y="650" type="line"/>
      <point x="-1" y="571" type="line"/>
      <point x="62" y="571" type="line"/>
      <point x="295" y="0" type="line"/>
      <point x="364" y="0" type="line"/>
      <point x="598" y="571" type="line"/>
    </contour>
  </outline>
</glyph>
<glyph name="X" format="1">
  <advance width="642"/>
  <unicode hex="0058"/>
  <outline>
    <contour>
      <point x="634" y="0" type="line"/>
      <point x="634" y="79" type="line"/>
      <point x="574" y="79" type="line"/>
      <point x="370" y="337" type="line"/>
      <point x="554" y="571" type="line"/>
      <point x="623" y="571" type="line"/>
      <point x="623" y="650" type="line"/>
      <point x="393" y="650" type="line"/>
      <point x="393" y="571" type="line"/>
      <point x="453" y="571" type="line"/>
      <point x="324" y="395" type="line"/>
      <point x="187" y="571" type="line"/>
      <point x="251" y="571" type="line"/>
      <point x="251" y="650" type="line"/>
      <point x="18" y="650" type="line"/>
      <point x="18" y="571" type="line"/>
      <point x="82" y="571" type="line"/>
      <point x="270" y="335" type="line"/>
      <point x="74" y="79" type="line"/>
      <point x="6" y="79" type="line"/>
      <point x="6" y="0" type="line"/>
      <point x="244" y="0" type="line"/>
      <point x="244" y="79" type="line"/>
      <point x="174" y="79" type="line"/>
      <point x="316" y="275" type="line"/>
      <point x="467" y="79" type="line"/>
      <point x="396" y="79" type="line"/>
      <point x="396" y="0" type="line"/>
    </contour>
  </outline>
</glyph>
<glyph name="Z" format="1">
  <advance width="581"/>
  <unicode hex="005A"/>
  <outline>
    <contour>
      <point x="524" y="0" type="line"/>
      <point x="549" y="202" type="line"/>
      <point x="471" y="212" type="line"/>
      <point x="445" y="79" type="line"/>
      <point x="158" y="79" type="line"/>
      <point x="158" y="81" type="line"/>
      <point x="529" y="604" type="line"/>
      <point x="527" y="650" type="line"/>
      <point x="68" y="650" type="line"/>
      <point x="44" y="457" type="line"/>
      <point x="121" y="448" type="line"/>
      <point x="147" y="571" type="line"/>
      <point x="397" y="571" type="line"/>
      <point x="397" y="569" type="line"/>
      <point x="29" y="51" type="line"/>
      <point x="31" y="0" type="line"/>
    </contour>
  </outline>
</glyph>
<glyph name="backslash" format="1">
  <advance width="397"/>
  <unicode hex="005C"/>
  <outline>
    <contour>
      <point x="83" y="688" type="line"/>
      <point x="292" y="0" type="line"/>
      <point x="378" y="0" type="line"/>
      <point x="169" y="688" type="line"/>
    </contour>
  </outline>
</glyph>
<glyph name="underscore" format="1">
  <advance width="525"/>
  <unicode hex="005F"/>
  <outline>
    <contour>
      <point x="47" y="-72" type="line"/>
      <point x="479" y="-72" type="line"/>
      <point x="479" y="-133" type="line"/>
      <point x="47" y="-133" type="line"/>
    </contour>
  </outline>
</glyph>
<glyph name="a" format="1">
  <advance width="490"/>
  <unicode hex="0061"/>
  <outline>
    <contour>
      <point x="78" y="413" type="curve"/>
      <point x="60" y="306" type="line"/>
      <point x="131" y="298" type="line"/>
      <point x="148" y="371" type="line"/>
      <point x="173" y="384"/>
      <point x="200" y="388"/>
      <point x="229" y="388" type="curve" smooth="yes"/>
      <point x="307" y="388"/>
      <point x="322" y="340"/>
      <point x="322" y="282" type="curve" smooth="yes"/>
      <point x="322" y="249" type="line"/>
      <point x="299" y="252"/>
      <point x="272" y="253"/>
      <point x="245" y="253" type="curve" smooth="yes"/>
      <point x="144" y="253"/>
      <point x="36" y="228"/>
      <point x="36" y="116" type="curve" smooth="yes"/>
      <point x="36" y="22"/>
      <point x="112" y="-10"/>
      <point x="173" y="-10" type="curve" smooth="yes"/>
      <point x="245" y="-10"/>
      <point x="295" y="34"/>
      <point x="322" y="81" type="curve"/>
      <point x="322" y="80" type="line"/>
      <point x="325" y="25"/>
      <point x="354" y="-10"/>
      <point x="408" y="-10" type="curve" smooth="yes"/>
      <point x="431" y="-10"/>
      <point x="455" y="-4"/>
      <point x="473" y="7" type="curve"/>
      <point x="472" y="59" type="line"/>
      <point x="464" y="56"/>
      <point x="453" y="54"/>
      <point x="445" y="54" type="curve" smooth="yes"/>
      <point x="421" y="54"/>
      <point x="410" y="67"/>
      <point x="410" y="98" type="curve" smooth="yes"/>
      <point x="410" y="305" type="line" smooth="yes"/>
      <point x="410" y="407"/>
      <point x="346" y="456"/>
      <point x="245" y="456" type="curve" smooth="yes"/>
      <point x="182" y="456"/>
      <point x="133" y="445"/>
    </contour>
    <contour>
      <point x="322" y="172" type="line"/>
      <point x="317" y="100"/>
      <point x="258" y="58"/>
      <point x="201" y="58" type="curve" smooth="yes"/>
      <point x="162" y="58"/>
      <point x="127" y="78"/>
      <point x="127" y="126" type="curve" smooth="yes"/>
      <point x="127" y="189"/>
      <point x="184" y="203"/>
      <point x="245" y="203" type="curve" smooth="yes"/>
      <point x="272" y="203"/>
      <point x="298" y="200"/>
      <point x="322" y="198" type="curve"/>
    </contour>
    <contour>
      <point x="160" y="566" type="move" name="top"/>
    </contour>
  </outline>
</glyph>
<glyph name="k" format="1">
  <advance width="529"/>
  <unicode hex="006B"/>
  <outline>
    <contour>
      <point x="518" y="0" type="line"/>
      <point x="518" y="68" type="line"/>
      <point x="462" y="68" type="line"/>
      <point x="320" y="242" type="line"/>
      <point x="433" y="378" type="line"/>
      <point x="495" y="378" type="line"/>
      <point x="495" y="447" type="line"/>
      <point x="282" y="447" type="line"/>
      <point x="282" y="378" type="line"/>
      <point x="347" y="378" type="line"/>
      <point x="255" y="266" type="line"/>
      <point x="176" y="266" type="line"/>
      <point x="176" y="688" type="line"/>
      <point x="14" y="688" type="line"/>
      <point x="14" y="619" type="line"/>
      <point x="89" y="619" type="line"/>
      <point x="89" y="68" type="line"/>
      <point x="17" y="68" type="line"/>
      <point x="17" y="0" type="line"/>
      <point x="234" y="0" type="line"/>
      <point x="234" y="68" type="line"/>
      <point x="176" y="68" type="line"/>
      <point x="176" y="202" type="line"/>
      <point x="252" y="202" type="line"/>
      <point x="361" y="68" type="line"/>
      <point x="301" y="68" type="line"/>
      <point x="301" y="0" type="line"/>
    </contour>
  </outline>
</glyph>
<glyph name="m" format="1">
  <advance width="866"/>
  <unicode hex="006D"/>
  <outline>
    <contour>
      <point x="857" y="0" type="line"/>
      <point x="857" y="68" type="line"/>
      <point x="784" y="68" type="line"/>
      <point x="784" y="291" type="line" smooth="yes"/>
      <point x="784" y="405"/>
      <point x="717" y="456"/>
      <point x="633" y="456" type="curve" smooth="yes"/>
      <point x="558" y="456"/>
      <point x="506" y="413"/>
      <point x="479" y="352" type="curve"/>
      <point x="459" y="423"/>
      <point x="403" y="456"/>
      <point x="335" y="456" type="curve" smooth="yes"/>
      <point x="266" y="456"/>
      <point x="218" y="420"/>
      <point x="190" y="368" type="curve"/>
      <point x="190" y="447" type="line"/>
      <point x="29" y="447" type="line"/>
      <point x="29" y="378" type="line"/>
      <point x="102" y="378" type="line"/>
      <point x="102" y="68" type="line"/>
      <point x="30" y="68" type="line"/>
      <point x="30" y="0" type="line"/>
      <point x="273" y="0" type="line"/>
      <point x="273" y="68" type="line"/>
      <point x="190" y="68" type="line"/>
      <point x="190" y="261" type="line"/>
      <point x="191" y="319"/>
      <point x="230" y="386"/>
      <point x="306" y="386" type="curve" smooth="yes"/>
      <point x="362" y="386"/>
      <point x="399" y="353"/>
      <point x="399" y="261" type="curve" smooth="yes"/>
      <point x="399" y="68" type="line"/>
      <point x="353" y="68" type="line"/>
      <point x="353" y="0" type="line"/>
      <point x="559" y="0" type="line"/>
      <point x="559" y="68" type="line"/>
      <point x="487" y="68" type="line"/>
      <point x="487" y="259" type="line"/>
      <point x="488" y="317"/>
      <point x="526" y="386"/>
      <point x="603" y="386" type="curve" smooth="yes"/>
      <point x="660" y="386"/>
      <point x="697" y="352"/>
      <point x="697" y="261" type="curve" smooth="yes"/>
      <point x="697" y="68" type="line"/>
      <point x="651" y="68" type="line"/>
      <point x="651" y="0" type="line"/>
    </contour>
    <contour>
      <point x="298" y="566" type="move" name="top"/>
    </contour>
  </outline>
</glyph>
<glyph name="q" format="1">
  <advance width="539"/>
  <unicode hex="0071"/>
  <outline>
    <contour>
      <point x="535" y="-213" type="line"/>
      <point x="535" y="-143" type="line"/>
      <point x="469" y="-143" type="line"/>
      <point x="469" y="302" type="line" smooth="yes"/>
      <point x="469" y="351"/>
      <point x="476" y="398"/>
      <point x="485" y="447" type="curve"/>
      <point x="399" y="447" type="line"/>
      <point x="394" y="421"/>
      <point x="391" y="395"/>
      <point x="388" y="370" type="curve"/>
      <point x="361" y="424"/>
      <point x="304" y="456"/>
      <point x="234" y="456" type="curve" smooth="yes"/>
      <point x="94" y="456"/>
      <point x="33" y="333"/>
      <point x="33" y="211" type="curve" smooth="yes"/>
      <point x="33" y="70"/>
      <point x="113" y="-10"/>
      <point x="225" y="-10" type="curve" smooth="yes"/>
      <point x="308" y="-10"/>
      <point x="355" y="36"/>
      <point x="382" y="89" type="curve"/>
      <point x="382" y="-143" type="line"/>
      <point x="285" y="-143" type="line"/>
      <point x="285" y="-213" type="line"/>
    </contour>
    <contour>
      <point x="382" y="206" type="line"/>
      <point x="380" y="139"/>
      <point x="328" y="62"/>
      <point x="248" y="62" type="curve" smooth="yes"/>
      <point x="179" y="62"/>
      <point x="125" y="115"/>
      <point x="125" y="219" type="curve" smooth="yes"/>
      <point x="125" y="311"/>
      <point x="168" y="384"/>
      <point x="254" y="384" type="curve" smooth="yes"/>
      <point x="325" y="384"/>
      <point x="382" y="332"/>
      <point x="382" y="257" type="curve" smooth="yes"/>
    </contour>
  </outline>
</glyph>
<glyph name="v" format="1">
  <advance width="514"/>
  <unicode hex="0076"/>
  <outline>
    <contour>
      <point x="506" y="378" type="line"/>
      <point x="506" y="447" type="line"/>
      <point x="307" y="447" type="line"/>
      <point x="307" y="378" type="line"/>
      <point x="368" y="378" type="line"/>
      <point x="270" y="116" type="line"/>
      <point x="264" y="116" type="line"/>
      <point x="151" y="378" type="line"/>
      <point x="218" y="378" type="line"/>
      <point x="218" y="447" type="line"/>
      <point x="5" y="447" type="line"/>
      <point x="5" y="378" type="line"/>
      <point x="57" y="378" type="line"/>
      <point x="227" y="0" type="line"/>
      <point x="292" y="0" type="line"/>
      <point x="454" y="378" type="line"/>
    </contour>
  </outline>
</glyph>
<glyph name="braceleft" format="1">
  <advance width="286"/>
  <unicode hex="007B"/>
  <outline>
    <contour>
      <point x="113" y="267" type="curve"/>
      <point x="190" y="278"/>
      <point x="217" y="316"/>
      <point x="217" y="353" type="curve" smooth="yes"/>
      <point x="217" y="418"/>
      <point x="131" y="545"/>
      <point x="131" y="634" type="curve" smooth="yes"/>
      <point x="131" y="678"/>
      <point x="152" y="698"/>
      <point x="194" y="698" type="curve" smooth="yes"/>
      <point x="258" y="698" type="line"/>
      <point x="258" y="760" type="line"/>
      <point x="194" y="760" type="line" smooth="yes"/>
      <point x="101" y="760"/>
      <point x="58" y="710"/>
      <point x="58" y="636" type="curve" smooth="yes"/>
      <point x="58" y="534"/>
      <point x="143" y="407"/>
      <point x="143" y="349" type="curve" smooth="yes"/>
      <point x="143" y="298"/>
      <point x="75" y="289"/>
      <point x="45" y="289" type="curve" smooth="yes"/>
      <point x="26" y="289" type="line"/>
      <point x="26" y="245" type="line"/>
      <point x="45" y="245" type="line" smooth="yes"/>
      <point x="76" y="245"/>
      <point x="143" y="235"/>
      <point x="143" y="184" type="curve" smooth="yes"/>
      <point x="143" y="126"/>
      <point x="58" y="3"/>
      <point x="58" y="-98" type="curve" smooth="yes"/>
      <point x="58" y="-167"/>
      <point x="98" y="-223"/>
      <point x="194" y="-223" type="curve" smooth="yes"/>
      <point x="258" y="-223" type="line"/>
      <point x="258" y="-160" type="line"/>
      <point x="194" y="-160" type="line" smooth="yes"/>
      <point x="152" y="-160"/>
      <point x="131" y="-140"/>
      <point x="131" y="-96" type="curve" smooth="yes"/>
      <point x="131" y="-8"/>
      <point x="217" y="115"/>
      <point x="217" y="180" type="curve" smooth="yes"/>
      <point x="217" y="218"/>
      <point x="189" y="255"/>
    </contour>
  </outline>
</glyph>
<glyph name="bar" format="1">
  <advance width="236"/>
  <unicode hex="007C"/>
  <outline>
    <contour>
      <point x="156" y="730" type="line"/>
      <point x="156" y="-80" type="line"/>
      <point x="80" y="-80" type="line"/>
      <point x="80" y="730" type="line"/>
    </contour>
  </outline>
</glyph>
<glyph name="asciitilde" format="1">
  <advance width="598"/>
  <unicode hex="007E"/>
  <outline>
    <contour>
      <point x="406" y="193" type="curve" smooth="yes"/>
      <point x="472" y="193"/>
      <point x="521" y="235"/>
      <point x="562" y="311" type="curve"/>
      <point x="506" y="348" type="line"/>
      <point x="472" y="289"/>
      <point x="445" y="273"/>
      <point x="405" y="273" type="curve" smooth="yes"/>
      <point x="319" y="273"/>
      <point x="270" y="343"/>
      <point x="188" y="343" type="curve" smooth="yes"/>
      <point x="132" y="343"/>
      <point x="78" y="308"/>
      <point x="39" y="232" type="curve"/>
      <point x="89" y="199" type="line"/>
      <point x="124" y="253"/>
      <point x="154" y="263"/>
      <point x="185" y="263" type="curve" smooth="yes"/>
      <point x="265" y="263"/>
      <point x="316" y="193"/>
    </contour>
  </outline>
</glyph>
<glyph name="exclamdown" format="1">
  <advance width="230"/>
  <unicode hex="00A1"/>
  <outline>
    <contour>
      <point x="167" y="-206" type="line"/>
      <point x="148" y="240" type="line"/>
      <point x="83" y="240" type="line"/>
      <point x="63" y="-206" type="line"/>
    </contour>
    <contour>
      <point x="59" y="338" type="line"/>
      <point x="167" y="338" type="line"/>
      <point x="167" y="448" type="line"/>
      <point x="59" y="448" type="line"/>
    </contour>
  </outline>
</glyph>
<glyph name="cent" format="1">
  <advance width="481"/>
  <unicode hex="00A2"/>
  <outline>
    <contour>
      <point x="441" y="155" type="curve"/>
      <point x="367" y="170" type="line"/>
      <point x="356" y="108"/>
      <point x="328" y="74"/>
      <point x="279" y="66" type="curve"/>
      <point x="279" y="380" type="line"/>
      <point x="300" y="377"/>
      <point x="320" y="370"/>
      <point x="340" y="360" type="curve"/>
      <point x="356" y="287" type="line"/>
      <point x="427" y="295" type="line"/>
      <point x="409" y="411" type="line"/>
      <point x="368" y="439"/>
      <point x="325" y="452"/>
      <point x="279" y="455" type="curve"/>
      <point x="279" y="529" type="line"/>
      <point x="226" y="529" type="line"/>
      <point x="226" y="454" type="line"/>
      <point x="107" y="441"/>
      <point x="38" y="341"/>
      <point x="38" y="216" type="curve" smooth="yes"/>
      <point x="38" y="79"/>
      <point x="112" y="0"/>
      <point x="226" y="-9" type="curve"/>
      <point x="226" y="-84" type="line"/>
      <point x="279" y="-84" type="line"/>
      <point x="279" y="-8" type="line"/>
      <point x="385" y="5"/>
      <point x="431" y="83"/>
    </contour>
    <contour>
      <point x="132" y="221" type="curve" smooth="yes"/>
      <point x="132" y="306"/>
      <point x="161" y="367"/>
      <point x="226" y="379" type="curve"/>
      <point x="226" y="67" type="line"/>
      <point x="163" y="80"/>
      <point x="132" y="134"/>
    </contour>
  </outline>
</glyph>
<glyph name="sterling" format="1">
  <advance width="505"/>
  <unicode hex="00A3"/>
  <outline>
    <contour>
      <point x="462" y="83" type="curve"/>
      <point x="421" y="124" type="line"/>
      <point x="396" y="93"/>
      <point x="365" y="68"/>
      <point x="305" y="68" type="curve" smooth="yes"/>
      <point x="134" y="68" type="line"/>
      <point x="187" y="101"/>
      <point x="196" y="155"/>
      <point x="196" y="228" type="curve"/>
      <point x="364" y="228" type="line"/>
      <point x="364" y="283" type="line"/>
      <point x="196" y="283" type="line"/>
      <point x="196" y="335" type="line" smooth="yes"/>
      <point x="196" y="429"/>
      <point x="233" y="459"/>
      <point x="287" y="459" type="curve" smooth="yes"/>
      <point x="310" y="459"/>
      <point x="330" y="456"/>
      <point x="352" y="444" type="curve"/>
      <point x="368" y="363" type="line"/>
      <point x="439" y="369" type="line"/>
      <point x="423" y="486" type="line"/>
      <point x="387" y="515"/>
      <point x="342" y="529"/>
      <point x="279" y="529" type="curve" smooth="yes"/>
      <point x="189" y="529"/>
      <point x="109" y="470"/>
      <point x="109" y="334" type="curve" smooth="yes"/>
      <point x="109" y="283" type="line"/>
      <point x="44" y="283" type="line"/>
      <point x="44" y="228" type="line"/>
      <point x="109" y="228" type="line"/>
      <point x="109" y="143"/>
      <point x="99" y="94"/>
      <point x="43" y="66" type="curve"/>
      <point x="43" y="0" type="line"/>
      <point x="323" y="0" type="line" smooth="yes"/>
      <point x="401" y="0"/>
      <point x="449" y="56"/>
    </contour>
  </outline>
</glyph>
<glyph name="yen" format="1">
  <advance width="589"/>
  <unicode hex="00A5"/>
  <outline>
    <contour>
      <point x="245" y="453" type="line"/>
      <point x="181" y="453" type="line"/>
      <point x="300" y="272" type="line"/>
      <point x="305" y="272" type="line"/>
      <point x="419" y="453" type="line"/>
      <point x="352" y="453" type="line"/>
      <point x="352" y="521" type="line"/>
      <point x="556" y="521" type="line"/>
      <point x="556" y="453" type="line"/>
      <point x="507" y="453" type="line"/>
      <point x="381" y="260" type="line"/>
      <point x="475" y="260" type="line"/>
      <point x="475" y="210" type="line"/>
      <point x="348" y="210" type="line"/>
      <point x="341" y="199" type="line"/>
      <point x="341" y="163" type="line"/>
      <point x="475" y="163" type="line"/>
      <point x="475" y="114" type="line"/>
      <point x="341" y="114" type="line"/>
      <point x="341" y="68" type="line"/>
      <point x="434" y="68" type="line"/>
      <point x="434" y="0" type="line"/>
      <point x="165" y="0" type="line"/>
      <point x="165" y="68" type="line"/>
      <point x="254" y="68" type="line"/>
      <point x="254" y="114" type="line"/>
      <point x="120" y="114" type="line"/>
      <point x="120" y="163" type="line"/>
      <point x="254" y="163" type="line"/>
      <point x="254" y="202" type="line"/>
      <point x="248" y="210" type="line"/>
      <point x="120" y="210" type="line"/>
      <point x="120" y="260" type="line"/>
      <point x="214" y="260" type="line"/>
      <point x="81" y="453" type="line"/>
      <point x="32" y="453" type="line"/>
      <point x="32" y="521" type="line"/>
      <point x="245" y="521" type="line"/>
    </contour>
  </outline>
</glyph>
<glyph name="dieresis" format="1">
  <advance width="400"/>
  <unicode hex="00A8"/>
  <outline>
    <contour>
      <point x="60" y="548" type="line"/>
      <point x="155" y="548" type="line"/>
      <point x="155" y="647" type="line"/>
      <point x="60" y="647" type="line"/>
    </contour>
    <contour>
      <point x="236" y="548" type="line"/>
      <point x="331" y="548" type="line"/>
      <point x="331" y="647" type="line"/>
      <point x="236" y="647" type="line"/>
    </contour>
  </outline>
</glyph>
<glyph name="logicalnot" format="1">
  <advance width="595"/>
  <unicode hex="00AC"/>
  <outline>
    <contour>
      <point x="474" y="92" type="line"/>
      <point x="537" y="92" type="line"/>
      <point x="537" y="313" type="line"/>
      <point x="56" y="313" type="line"/>
      <point x="56" y="250" type="line"/>
      <point x="474" y="250" type="line"/>
    </contour>
  </outline>
</glyph>
<glyph name="macron" format="1">
  <advance width="335"/>
  <unicode hex="00AF"/>
  <outline>
    <contour>
      <point x="293" y="556" type="line"/>
      <point x="293" y="625" type="line"/>
      <point x="42" y="625" type="line"/>
      <point x="42" y="556" type="line"/>
    </contour>
  </outline>
</glyph>
<glyph name="degree" format="1">
  <advance width="387"/>
  <unicode hex="00B0"/>
  <outline>
    <contour>
      <point x="193" y="342" type="curve" smooth="yes"/>
      <point x="292" y="342"/>
      <point x="353" y="412"/>
      <point x="353" y="501" type="curve" smooth="yes"/>
      <point x="353" y="589"/>
      <point x="296" y="660"/>
      <point x="195" y="660" type="curve" smooth="yes"/>
      <point x="98" y="660"/>
      <point x="34" y="590"/>
      <point x="34" y="500" type="curve" smooth="yes"/>
      <point x="34" y="410"/>
      <point x="94" y="342"/>
    </contour>
    <contour>
      <point x="193" y="406" type="curve"/>
      <point x="144" y="406"/>
      <point x="106" y="438"/>
      <point x="106" y="501" type="curve" smooth="yes"/>
      <point x="106" y="564"/>
      <point x="145" y="596"/>
      <point x="194" y="596" type="curve" smooth="yes"/>
      <point x="243" y="596"/>
      <point x="280" y="564"/>
      <point x="280" y="500" type="curve" smooth="yes"/>
      <point x="280" y="438"/>
      <point x="243" y="406"/>
    </contour>
  </outline>
</glyph>
<glyph name="plusminus" format="1">
  <advance width="442"/>
  <unicode hex="00B1"/>
  <outline>
    <contour>
      <point x="48" y="256" type="line"/>
      <point x="192" y="256" type="line"/>
      <point x="192" y="115" type="line"/>
      <point x="255" y="115" type="line"/>
      <point x="255" y="256" type="line"/>
      <point x="395" y="256" type="line"/>
      <point x="395" y="320" type="line"/>
      <point x="255" y="320" type="line"/>
      <point x="255" y="462" type="line"/>
      <point x="192" y="462" type="line"/>
      <point x="192" y="320" type="line"/>
      <point x="48" y="320" type="line"/>
    </contour>
    <contour>
      <point x="48" y="0" type="line"/>
      <point x="395" y="0" type="line"/>
      <point x="395" y="63" type="line"/>
      <point x="48" y="63" type="line"/>
    </contour>
  </outline>
</glyph>
<glyph name="acute" format="1">
  <advance width="440"/>
  <unicode hex="00B4"/>
  <outline>
    <contour>
      <point x="376" y="617" type="line"/>
      <point x="328" y="688" type="line"/>
      <point x="172" y="553" type="line"/>
      <point x="197" y="516" type="line"/>
    </contour>
  </outline>
</glyph>
<glyph name="mu" format="1">
  <advance width="578"/>
  <unicode hex="00B5"/>
  <outline>
    <contour>
      <point x="91" y="-213" type="line"/>
      <point x="91" y="378" type="line"/>
      <point x="19" y="378" type="line"/>
      <point x="19" y="447" type="line"/>
      <point x="178" y="447" type="line"/>
      <point x="178" y="185" type="line" smooth="yes"/>
      <point x="178" y="94"/>
      <point x="217" y="59"/>
      <point x="276" y="59" type="curve" smooth="yes"/>
      <point x="348" y="59"/>
      <point x="395" y="117"/>
      <point x="398" y="180" type="curve"/>
      <point x="398" y="378" type="line"/>
      <point x="311" y="378" type="line"/>
      <point x="311" y="447" type="line"/>
      <point x="485" y="447" type="line"/>
      <point x="485" y="69" type="line"/>
      <point x="561" y="69" type="line"/>
      <point x="561" y="0" type="line"/>
      <point x="398" y="0" type="line"/>
      <point x="398" y="79" type="line"/>
      <point x="369" y="24"/>
      <point x="316" y="-10"/>
      <point x="246" y="-10" type="curve" smooth="yes"/>
      <point x="221" y="-10"/>
      <point x="198" y="-6"/>
      <point x="178" y="2" type="curve"/>
      <point x="178" y="-213" type="line"/>
    </contour>
  </outline>
</glyph>
<glyph name="periodcentered" format="1">
  <advance width="222"/>
  <unicode hex="00B7"/>
  <outline>
    <contour>
      <point x="53" y="254" type="line"/>
      <point x="166" y="254" type="line"/>
      <point x="166" y="374" type="line"/>
      <point x="53" y="374" type="line"/>
    </contour>
  </outline>
</glyph>
<glyph name="cedilla" format="1">
  <advance width="256"/>
  <unicode hex="00B8"/>
  <outline>
    <contour>
      <point x="271" y="-124" type="curve" smooth="yes"/>
      <point x="271" y="-81"/>
      <point x="245" y="-45"/>
      <point x="182" y="-45" type="curve" smooth="yes"/>
      <point x="174" y="-45" type="line"/>
      <point x="174" y="6" type="line"/>
      <point x="112" y="6" type="line"/>
      <point x="112" y="-82" type="line"/>
      <point x="143" y="-82" type="line" smooth="yes"/>
      <point x="175" y="-82"/>
      <point x="196" y="-90"/>
      <point x="196" y="-118" type="curve" smooth="yes"/>
      <point x="196" y="-143"/>
      <point x="179" y="-153"/>
      <point x="149" y="-153" type="curve" smooth="yes"/>
      <point x="116" y="-153"/>
      <point x="90" y="-141"/>
      <point x="74" y="-130" type="curve"/>
      <point x="55" y="-179" type="line"/>
      <point x="78" y="-199"/>
      <point x="116" y="-209"/>
      <point x="157" y="-209" type="curve" smooth="yes"/>
      <point x="217" y="-209"/>
      <point x="271" y="-186"/>
    </contour>
  </outline>
</glyph>
<glyph name="onesuperior" format="1">
  <advance width="266"/>
  <unicode hex="00B9"/>
  <outline>
    <contour>
      <point x="33" y="469" type="line"/>
      <point x="108" y="469" type="line"/>
      <point x="108" y="725" type="line"/>
      <point x="33" y="725" type="line"/>
      <point x="33" y="779" type="line"/>
      <point x="178" y="779" type="line"/>
      <point x="178" y="469" type="line"/>
      <point x="248" y="469" type="line"/>
      <point x="248" y="415" type="line"/>
      <point x="33" y="415" type="line"/>
    </contour>
  </outline>
</glyph>
<glyph name="guillemotright" format="1">
  <advance width="457"/>
  <unicode hex="00BB"/>
  <outline>
    <contour>
      <point x="283" y="25" type="line"/>
      <point x="421" y="271" type="line"/>
      <point x="283" y="511" type="line"/>
      <point x="209" y="511" type="line"/>
      <point x="334" y="271" type="line"/>
      <point x="209" y="25" type="line"/>
    </contour>
    <contour>
      <point x="117" y="25" type="line"/>
      <point x="255" y="271" type="line"/>
      <point x="117" y="511" type="line"/>
      <point x="43" y="511" type="line"/>
      <point x="168" y="271" type="line"/>
      <point x="43" y="25" type="line"/>
    </contour>
  </outline>
</glyph>
<glyph name="onequarter" format="1">
  <advance width="718"/>
  <unicode hex="00BC"/>
  <outline>
    <contour>
      <point x="557" y="-1" type="line"/>
      <point x="628" y="-1" type="line"/>
      <point x="628" y="82" type="line"/>
      <point x="683" y="82" type="line"/>
      <point x="688" y="136" type="line"/>
      <point x="628" y="136" type="line"/>
      <point x="628" y="364" type="line"/>
      <point x="498" y="364" type="line"/>
      <point x="375" y="134" type="line"/>
      <point x="382" y="82" type="line"/>
      <point x="557" y="82" type="line"/>
    </contour>
    <contour>
      <point x="574" y="650" type="line"/>
      <point x="384" y="325" type="line"/>
      <point x="202" y="0" type="line"/>
      <point x="139" y="0" type="line"/>
      <point x="336" y="337" type="line"/>
      <point x="511" y="650" type="line"/>
    </contour>
    <contour>
      <point x="41" y="340" type="line"/>
      <point x="116" y="340" type="line"/>
      <point x="116" y="596" type="line"/>
      <point x="41" y="596" type="line"/>
      <point x="41" y="650" type="line"/>
      <point x="186" y="650" type="line"/>
      <point x="186" y="340" type="line"/>
      <point x="256" y="340" type="line"/>
      <point x="256" y="286" type="line"/>
      <point x="41" y="286" type="line"/>
    </contour>
    <contour>
      <point x="534" y="310" type="line"/>
      <point x="557" y="310" type="line"/>
      <point x="557" y="136" type="line"/>
      <point x="438" y="136" type="line"/>
    </contour>
  </outline>
</glyph>
<glyph name="threequarters" format="1">
  <advance width="746"/>
  <unicode hex="00BE"/>
  <outline>
    <contour>
      <point x="585" y="-1" type="line"/>
      <point x="656" y="-1" type="line"/>
      <point x="656" y="82" type="line"/>
      <point x="711" y="82" type="line"/>
      <point x="716" y="136" type="line"/>
      <point x="656" y="136" type="line"/>
      <point x="656" y="364" type="line"/>
      <point x="526" y="364" type="line"/>
      <point x="403" y="134" type="line"/>
      <point x="410" y="82" type="line"/>
      <point x="585" y="82" type="line"/>
    </contour>
    <contour>
      <point x="103" y="545" type="line"/>
      <point x="113" y="592" type="line"/>
      <point x="131" y="602"/>
      <point x="147" y="606"/>
      <point x="168" y="606" type="curve" smooth="yes"/>
      <point x="204" y="606"/>
      <point x="224" y="589"/>
      <point x="224" y="559" type="curve" smooth="yes"/>
      <point x="224" y="521"/>
      <point x="194" y="504"/>
      <point x="141" y="501" type="curve"/>
      <point x="141" y="459" type="line"/>
      <point x="209" y="457"/>
      <point x="238" y="437"/>
      <point x="238" y="401" type="curve" smooth="yes"/>
      <point x="238" y="366"/>
      <point x="212" y="339"/>
      <point x="166" y="339" type="curve" smooth="yes"/>
      <point x="120" y="339"/>
      <point x="98" y="366"/>
      <point x="90" y="397" type="curve"/>
      <point x="39" y="382" type="line"/>
      <point x="49" y="318"/>
      <point x="98" y="284"/>
      <point x="167" y="284" type="curve" smooth="yes"/>
      <point x="249" y="284"/>
      <point x="315" y="321"/>
      <point x="315" y="392" type="curve" smooth="yes"/>
      <point x="315" y="433"/>
      <point x="293" y="472"/>
      <point x="230" y="483" type="curve"/>
      <point x="230" y="485" type="line"/>
      <point x="280" y="502"/>
      <point x="300" y="534"/>
      <point x="300" y="570" type="curve" smooth="yes"/>
      <point x="300" y="623"/>
      <point x="255" y="660"/>
      <point x="182" y="660" type="curve" smooth="yes"/>
      <point x="143" y="660"/>
      <point x="90" y="649"/>
      <point x="59" y="627" type="curve"/>
      <point x="48" y="550" type="line"/>
    </contour>
    <contour>
      <point x="601" y="650" type="line"/>
      <point x="411" y="325" type="line"/>
      <point x="229" y="0" type="line"/>
      <point x="166" y="0" type="line"/>
      <point x="363" y="337" type="line"/>
      <point x="538" y="650" type="line"/>
    </contour>
    <contour>
      <point x="562" y="310" type="line"/>
      <point x="585" y="310" type="line"/>
      <point x="585" y="136" type="line"/>
      <point x="466" y="136" type="line"/>
    </contour>
  </outline>
</glyph>
<glyph name="Acircumflex" format="1">
  <advance width="660"/>
  <unicode hex="00C2"/>
  <outline>
    <contour>
      <point x="664" y="0" type="line"/>
      <point x="664" y="79" type="line"/>
      <point x="600" y="79" type="line"/>
      <point x="366" y="650" type="line"/>
      <point x="170" y="650" type="line"/>
      <point x="170" y="571" type="line"/>
      <point x="270" y="571" type="line"/>
      <point x="65" y="79" type="line"/>
      <point x="5" y="79" type="line"/>
      <point x="5" y="0" type="line"/>
      <point x="242" y="0" type="line"/>
      <point x="242" y="79" type="line"/>
      <point x="157" y="79" type="line"/>
      <point x="200" y="187" type="line"/>
      <point x="462" y="187" type="line"/>
      <point x="502" y="79" type="line"/>
      <point x="425" y="79" type="line"/>
      <point x="425" y="0" type="line"/>
    </contour>
    <contour>
      <point x="436" y="255" type="line"/>
      <point x="227" y="255" type="line"/>
      <point x="331" y="519" type="line"/>
      <point x="337" y="519" type="line"/>
    </contour>
    <contour>
      <point x="471" y="737" type="line"/>
      <point x="342" y="832" type="line"/>
      <point x="314" y="832" type="line"/>
      <point x="184" y="735" type="line"/>
      <point x="207" y="696" type="line"/>
      <point x="324" y="758" type="line"/>
      <point x="449" y="697" type="line"/>
    </contour>
  </outline>
</glyph>
<glyph name="Atilde" format="1">
  <advance width="660"/>
  <unicode hex="00C3"/>
  <outline>
    <contour>
      <point x="664" y="0" type="line"/>
      <point x="664" y="79" type="line"/>
      <point x="600" y="79" type="line"/>
      <point x="366" y="650" type="line"/>
      <point x="170" y="650" type="line"/>
      <point x="170" y="571" type="line"/>
      <point x="270" y="571" type="line"/>
      <point x="65" y="79" type="line"/>
      <point x="5" y="79" type="line"/>
      <point x="5" y="0" type="line"/>
      <point x="242" y="0" type="line"/>
      <point x="242" y="79" type="line"/>
      <point x="157" y="79" type="line"/>
      <point x="200" y="187" type="line"/>
      <point x="462" y="187" type="line"/>
      <point x="502" y="79" type="line"/>
      <point x="425" y="79" type="line"/>
      <point x="425" y="0" type="line"/>
    </contour>
    <contour>
      <point x="436" y="255" type="line"/>
      <point x="227" y="255" type="line"/>
      <point x="331" y="519" type="line"/>
      <point x="337" y="519" type="line"/>
    </contour>
    <contour>
      <point x="461" y="804" type="curve"/>
      <point x="420" y="814" type="line"/>
      <point x="409" y="780"/>
      <point x="391" y="773"/>
      <point x="373" y="773" type="curve" smooth="yes"/>
      <point x="329" y="773"/>
      <point x="299" y="807"/>
      <point x="255" y="807" type="curve" smooth="yes"/>
      <point x="199" y="807"/>
      <point x="174" y="752"/>
      <point x="172" y="717" type="curve"/>
      <point x="210" y="703" type="line"/>
      <point x="219" y="733"/>
      <point x="237" y="741"/>
      <point x="257" y="741" type="curve" smooth="yes"/>
      <point x="298" y="741"/>
      <point x="331" y="707"/>
      <point x="381" y="707" type="curve" smooth="yes"/>
      <point x="435" y="707"/>
      <point x="454" y="749"/>
    </contour>
  </outline>
</glyph>
<glyph name="Ccedilla" format="1">
  <advance width="646"/>
  <unicode hex="00C7"/>
  <outline>
    <contour>
      <point x="466" y="-124" type="curve" smooth="yes"/>
      <point x="466" y="-81"/>
      <point x="440" y="-45"/>
      <point x="377" y="-45" type="curve" smooth="yes"/>
      <point x="369" y="-45" type="line"/>
      <point x="369" y="-10" type="line"/>
      <point x="455" y="-8"/>
      <point x="533" y="15"/>
      <point x="581" y="56" type="curve"/>
      <point x="596" y="188" type="line"/>
      <point x="520" y="196" type="line"/>
      <point x="503" y="100" type="line"/>
      <point x="466" y="80"/>
      <point x="421" y="71"/>
      <point x="366" y="71" type="curve" smooth="yes"/>
      <point x="223" y="71"/>
      <point x="132" y="165"/>
      <point x="132" y="324" type="curve" smooth="yes"/>
      <point x="132" y="477"/>
      <point x="221" y="579"/>
      <point x="354" y="579" type="curve" smooth="yes"/>
      <point x="419" y="579"/>
      <point x="467" y="562"/>
      <point x="506" y="536" type="curve"/>
      <point x="524" y="443" type="line"/>
      <point x="600" y="451" type="line"/>
      <point x="583" y="583" type="line"/>
      <point x="533" y="627"/>
      <point x="460" y="660"/>
      <point x="351" y="660" type="curve" smooth="yes"/>
      <point x="145" y="660"/>
      <point x="35" y="490"/>
      <point x="35" y="319" type="curve" smooth="yes"/>
      <point x="35" y="146"/>
      <point x="145" y="15"/>
      <point x="307" y="-6" type="curve"/>
      <point x="307" y="-82" type="line"/>
      <point x="338" y="-82" type="line" smooth="yes"/>
      <point x="370" y="-82"/>
      <point x="391" y="-90"/>
      <point x="391" y="-118" type="curve" smooth="yes"/>
      <point x="391" y="-143"/>
      <point x="374" y="-153"/>
      <point x="344" y="-153" type="curve" smooth="yes"/>
      <point x="311" y="-153"/>
      <point x="285" y="-141"/>
      <point x="269" y="-130" type="curve"/>
      <point x="250" y="-179" type="line"/>
      <point x="273" y="-199"/>
      <point x="311" y="-209"/>
      <point x="352" y="-209" type="curve" smooth="yes"/>
      <point x="412" y="-209"/>
      <point x="466" y="-186"/>
    </contour>
  </outline>
</glyph>
<glyph name="Iacute" format="1">
  <advance width="331"/>
  <unicode hex="00CD"/>
  <outline>
    <contour>
      <point x="289" y="0" type="line"/>
      <point x="289" y="79" type="line"/>
      <point x="211" y="79" type="line"/>
      <point x="211" y="571" type="line"/>
      <point x="289" y="571" type="line"/>
      <point x="289" y="650" type="line"/>
      <point x="41" y="650" type="line"/>
      <point x="41" y="571" type="line"/>
      <point x="120" y="571" type="line"/>
      <point x="120" y="79" type="line"/>
      <point x="41" y="79" type="line"/>
      <point x="41" y="0" type="line"/>
    </contour>
    <contour>
      <point x="290" y="737" type="line"/>
      <point x="270" y="819" type="line"/>
      <point x="75" y="742" type="line"/>
      <point x="88" y="699" type="line"/>
    </contour>
  </outline>
</glyph>
<glyph name="Eth" format="1">
  <advance width="704"/>
  <unicode hex="00D0"/>
  <outline>
    <contour>
      <point x="668" y="326" type="curve" smooth="yes"/>
      <point x="668" y="516"/>
      <point x="550" y="650"/>
      <point x="335" y="650" type="curve" smooth="yes"/>
      <point x="42" y="650" type="line"/>
      <point x="42" y="572" type="line"/>
      <point x="121" y="572" type="line"/>
      <point x="121" y="378" type="line"/>
      <point x="45" y="378" type="line"/>
      <point x="45" y="302" type="line"/>
      <point x="121" y="302" type="line"/>
      <point x="121" y="78" type="line"/>
      <point x="42" y="78" type="line"/>
      <point x="42" y="0" type="line"/>
      <point x="340" y="0" type="line" smooth="yes"/>
      <point x="545" y="0"/>
      <point x="668" y="133"/>
    </contour>
    <contour>
      <point x="571" y="325" type="curve" smooth="yes"/>
      <point x="571" y="168"/>
      <point x="487" y="78"/>
      <point x="333" y="78" type="curve" smooth="yes"/>
      <point x="212" y="78" type="line"/>
      <point x="212" y="302" type="line"/>
      <point x="342" y="302" type="line"/>
      <point x="342" y="378" type="line"/>
      <point x="212" y="378" type="line"/>
      <point x="212" y="572" type="line"/>
      <point x="333" y="572" type="line" smooth="yes"/>
      <point x="488" y="572"/>
      <point x="571" y="479"/>
    </contour>
  </outline>
</glyph>
<glyph name="Ntilde" format="1">
  <advance width="744"/>
  <unicode hex="00D1"/>
  <outline>
    <contour>
      <point x="512" y="804" type="curve"/>
      <point x="471" y="814" type="line"/>
      <point x="460" y="780"/>
      <point x="442" y="773"/>
      <point x="424" y="773" type="curve" smooth="yes"/>
      <point x="380" y="773"/>
      <point x="350" y="807"/>
      <point x="306" y="807" type="curve" smooth="yes"/>
      <point x="250" y="807"/>
      <point x="225" y="752"/>
      <point x="223" y="717" type="curve"/>
      <point x="261" y="703" type="line"/>
      <point x="270" y="733"/>
      <point x="288" y="741"/>
      <point x="308" y="741" type="curve" smooth="yes"/>
      <point x="349" y="741"/>
      <point x="382" y="707"/>
      <point x="432" y="707" type="curve" smooth="yes"/>
      <point x="486" y="707"/>
      <point x="505" y="749"/>
    </contour>
    <contour>
      <point x="712" y="571" type="line"/>
      <point x="712" y="650" type="line"/>
      <point x="451" y="650" type="line"/>
      <point x="451" y="571" type="line"/>
      <point x="548" y="571" type="line"/>
      <point x="548" y="182" type="line"/>
      <point x="544" y="182" type="line"/>
      <point x="186" y="650" type="line"/>
      <point x="36" y="650" type="line"/>
      <point x="36" y="571" type="line"/>
      <point x="120" y="571" type="line"/>
      <point x="120" y="79" type="line"/>
      <point x="46" y="79" type="line"/>
      <point x="46" y="0" type="line"/>
      <point x="305" y="0" type="line"/>
      <point x="305" y="79" type="line"/>
      <point x="206" y="79" type="line"/>
      <point x="206" y="483" type="line"/>
      <point x="210" y="483" type="line"/>
      <point x="579" y="0" type="line"/>
      <point x="634" y="0" type="line"/>
      <point x="634" y="571" type="line"/>
    </contour>
  </outline>
</glyph>
<glyph name="Oacute" format="1">
  <advance width="723"/>
  <unicode hex="00D3"/>
  <outline>
    <contour>
      <point x="520" y="737" type="line"/>
      <point x="500" y="819" type="line"/>
      <point x="305" y="742" type="line"/>
      <point x="318" y="699" type="line"/>
    </contour>
    <contour>
      <point x="689" y="325" type="curve" smooth="yes"/>
      <point x="689" y="510"/>
      <point x="561" y="660"/>
      <point x="362" y="660" type="curve" smooth="yes"/>
      <point x="166" y="660"/>
      <point x="35" y="512"/>
      <point x="35" y="325" type="curve" smooth="yes"/>
      <point x="35" y="142"/>
      <point x="159" y="-10"/>
      <point x="360" y="-10" type="curve" smooth="yes"/>
      <point x="560" y="-10"/>
      <point x="689" y="141"/>
    </contour>
    <contour>
      <point x="591" y="323" type="curve" smooth="yes"/>
      <point x="591" y="179"/>
      <point x="510" y="71"/>
      <point x="364" y="71" type="curve" smooth="yes"/>
      <point x="212" y="71"/>
      <point x="133" y="188"/>
      <point x="133" y="326" type="curve" smooth="yes"/>
      <point x="133" y="468"/>
      <point x="215" y="579"/>
      <point x="362" y="579" type="curve" smooth="yes"/>
      <point x="504" y="579"/>
      <point x="591" y="474"/>
    </contour>
  </outline>
</glyph>
<glyph name="Otilde" format="1">
  <advance width="723"/>
  <unicode hex="00D5"/>
  <outline>
    <contour>
      <point x="512" y="804" type="curve"/>
      <point x="471" y="814" type="line"/>
      <point x="460" y="780"/>
      <point x="442" y="773"/>
      <point x="424" y="773" type="curve" smooth="yes"/>
      <point x="380" y="773"/>
      <point x="350" y="807"/>
      <point x="306" y="807" type="curve" smooth="yes"/>
      <point x="250" y="807"/>
      <point x="225" y="752"/>
      <point x="223" y="717" type="curve"/>
      <point x="261" y="703" type="line"/>
      <point x="270" y="733"/>
      <point x="288" y="741"/>
      <point x="308" y="741" type="curve" smooth="yes"/>
      <point x="349" y="741"/>
      <point x="382" y="707"/>
      <point x="432" y="707" type="curve" smooth="yes"/>
      <point x="486" y="707"/>
      <point x="505" y="749"/>
    </contour>
    <contour>
      <point x="689" y="325" type="curve" smooth="yes"/>
      <point x="689" y="510"/>
      <point x="561" y="660"/>
      <point x="362" y="660" type="curve" smooth="yes"/>
      <point x="166" y="660"/>
      <point x="35" y="512"/>
      <point x="35" y="325" type="curve" smooth="yes"/>
      <point x="35" y="142"/>
      <point x="159" y="-10"/>
      <point x="360" y="-10" type="curve" smooth="yes"/>
      <point x="560" y="-10"/>
      <point x="689" y="141"/>
    </contour>
    <contour>
      <point x="591" y="323" type="curve" smooth="yes"/>
      <point x="591" y="179"/>
      <point x="510" y="71"/>
      <point x="364" y="71" type="curve" smooth="yes"/>
      <point x="212" y="71"/>
      <point x="133" y="188"/>
      <point x="133" y="326" type="curve" smooth="yes"/>
      <point x="133" y="468"/>
      <point x="215" y="579"/>
      <point x="362" y="579" type="curve" smooth="yes"/>
      <point x="504" y="579"/>
      <point x="591" y="474"/>
    </contour>
  </outline>
</glyph>
<glyph name="Yacute" format="1">
  <advance width="622"/>
  <unicode hex="00DD"/>
  <outline>
    <contour>
      <point x="618" y="571" type="line"/>
      <point x="618" y="650" type="line"/>
      <point x="382" y="650" type="line"/>
      <point x="382" y="571" type="line"/>
      <point x="463" y="571" type="line"/>
      <point x="319" y="332" type="line"/>
      <point x="314" y="332" type="line"/>
      <point x="166" y="571" type="line"/>
      <point x="244" y="571" type="line"/>
      <point x="244" y="650" type="line"/>
      <point x="-2" y="650" type="line"/>
      <point x="-2" y="571" type="line"/>
      <point x="61" y="571" type="line"/>
      <point x="267" y="251" type="line"/>
      <point x="267" y="79" type="line"/>
      <point x="159" y="79" type="line"/>
      <point x="159" y="0" type="line"/>
      <point x="470" y="0" type="line"/>
      <point x="470" y="79" type="line"/>
      <point x="357" y="79" type="line"/>
      <point x="357" y="250" type="line"/>
      <point x="556" y="571" type="line"/>
    </contour>
    <contour>
      <point x="452" y="737" type="line"/>
      <point x="432" y="819" type="line"/>
      <point x="237" y="742" type="line"/>
      <point x="250" y="699" type="line"/>
    </contour>
  </outline>
</glyph>
<glyph name="Thorn" format="1">
  <advance width="582"/>
  <unicode hex="00DE"/>
  <outline>
    <contour>
      <point x="289" y="0" type="line"/>
      <point x="289" y="79" type="line"/>
      <point x="211" y="79" type="line"/>
      <point x="211" y="141" type="line"/>
      <point x="336" y="141" type="line" smooth="yes"/>
      <point x="464" y="141"/>
      <point x="562" y="205"/>
      <point x="562" y="338" type="curve" smooth="yes"/>
      <point x="562" y="448"/>
      <point x="490" y="523"/>
      <point x="330" y="523" type="curve" smooth="yes"/>
      <point x="211" y="523" type="line"/>
      <point x="211" y="571" type="line"/>
      <point x="289" y="571" type="line"/>
      <point x="289" y="650" type="line"/>
      <point x="41" y="650" type="line"/>
      <point x="41" y="571" type="line"/>
      <point x="120" y="571" type="line"/>
      <point x="120" y="79" type="line"/>
      <point x="41" y="79" type="line"/>
      <point x="41" y="0" type="line"/>
    </contour>
    <contour>
      <point x="320" y="459" type="line" smooth="yes"/>
      <point x="422" y="459"/>
      <point x="465" y="414"/>
      <point x="465" y="336" type="curve" smooth="yes"/>
      <point x="465" y="253"/>
      <point x="418" y="203"/>
      <point x="321" y="203" type="curve" smooth="yes"/>
      <point x="211" y="203" type="line"/>
      <point x="211" y="459" type="line"/>
    </contour>
  </outline>
</glyph>
<glyph name="ccedilla" format="1">
  <advance width="464"/>
  <unicode hex="00E7"/>
  <outline>
    <contour>
      <point x="367" y="-125" type="curve" smooth="yes"/>
      <point x="367" y="-82"/>
      <point x="341" y="-46"/>
      <point x="278" y="-46" type="curve" smooth="yes"/>
      <point x="270" y="-46" type="line"/>
      <point x="270" y="-8" type="line"/>
      <point x="379" y="3"/>
      <point x="426" y="82"/>
      <point x="436" y="155" type="curve"/>
      <point x="362" y="170" type="line"/>
      <point x="350" y="99"/>
      <point x="315" y="62"/>
      <point x="251" y="62" type="curve" smooth="yes"/>
      <point x="168" y="62"/>
      <point x="125" y="121"/>
      <point x="125" y="221" type="curve" smooth="yes"/>
      <point x="125" y="317"/>
      <point x="164" y="384"/>
      <point x="248" y="384" type="curve" smooth="yes"/>
      <point x="281" y="384"/>
      <point x="309" y="377"/>
      <point x="335" y="362" type="curve"/>
      <point x="351" y="287" type="line"/>
      <point x="422" y="295" type="line"/>
      <point x="404" y="411" type="line"/>
      <point x="357" y="444"/>
      <point x="305" y="456"/>
      <point x="249" y="456" type="curve" smooth="yes"/>
      <point x="113" y="456"/>
      <point x="33" y="351"/>
      <point x="33" y="216" type="curve" smooth="yes"/>
      <point x="33" y="84"/>
      <point x="102" y="6"/>
      <point x="208" y="-7" type="curve"/>
      <point x="208" y="-83" type="line"/>
      <point x="239" y="-83" type="line" smooth="yes"/>
      <point x="271" y="-83"/>
      <point x="292" y="-91"/>
      <point x="292" y="-119" type="curve" smooth="yes"/>
      <point x="292" y="-144"/>
      <point x="275" y="-154"/>
      <point x="245" y="-154" type="curve" smooth="yes"/>
      <point x="212" y="-154"/>
      <point x="186" y="-142"/>
      <point x="170" y="-131" type="curve"/>
      <point x="151" y="-180" type="line"/>
      <point x="174" y="-200"/>
      <point x="212" y="-210"/>
      <point x="253" y="-210" type="curve" smooth="yes"/>
      <point x="313" y="-210"/>
      <point x="367" y="-187"/>
    </contour>
  </outline>
</glyph>
<glyph name="ecircumflex" format="1">
  <advance width="474"/>
  <unicode hex="00EA"/>
  <outline>
    <contour>
      <point x="389" y="554" type="line"/>
      <point x="264" y="674" type="line"/>
      <point x="235" y="674" type="line"/>
      <point x="110" y="553" type="line"/>
      <point x="138" y="515" type="line"/>
      <point x="242" y="595" type="line"/>
      <point x="361" y="516" type="line"/>
    </contour>
    <contour>
      <point x="443" y="132" type="curve"/>
      <point x="370" y="147" type="line"/>
      <point x="358" y="100"/>
      <point x="325" y="62"/>
      <point x="256" y="62" type="curve" smooth="yes"/>
      <point x="175" y="62"/>
      <point x="129" y="113"/>
      <point x="125" y="204" type="curve"/>
      <point x="433" y="204" type="line"/>
      <point x="437" y="224"/>
      <point x="439" y="243"/>
      <point x="439" y="261" type="curve" smooth="yes"/>
      <point x="438" y="369"/>
      <point x="366" y="456"/>
      <point x="244" y="456" type="curve" smooth="yes"/>
      <point x="112" y="456"/>
      <point x="33" y="355"/>
      <point x="33" y="216" type="curve" smooth="yes"/>
      <point x="33" y="70"/>
      <point x="121" y="-10"/>
      <point x="250" y="-10" type="curve" smooth="yes"/>
      <point x="365" y="-10"/>
      <point x="433" y="55"/>
    </contour>
    <contour>
      <point x="348" y="263" type="curve"/>
      <point x="126" y="263" type="line"/>
      <point x="134" y="332"/>
      <point x="169" y="388"/>
      <point x="242" y="388" type="curve" smooth="yes"/>
      <point x="321" y="388"/>
      <point x="354" y="322"/>
    </contour>
  </outline>
</glyph>
<glyph name="igrave" format="1">
  <advance width="286"/>
  <unicode hex="00EC"/>
  <outline>
    <contour>
      <point x="33" y="69" type="line"/>
      <point x="106" y="69" type="line"/>
      <point x="106" y="378" type="line"/>
      <point x="30" y="378" type="line"/>
      <point x="30" y="447" type="line"/>
      <point x="194" y="447" type="line"/>
      <point x="194" y="69" type="line"/>
      <point x="266" y="69" type="line"/>
      <point x="266" y="0" type="line"/>
      <point x="33" y="0" type="line"/>
    </contour>
    <contour>
      <point x="192" y="553" type="line"/>
      <point x="36" y="688" type="line"/>
      <point x="-12" y="617" type="line"/>
      <point x="167" y="516" type="line"/>
    </contour>
  </outline>
</glyph>
<glyph name="iacute" format="1">
  <advance width="286"/>
  <unicode hex="00ED"/>
  <outline>
    <contour>
      <point x="33" y="69" type="line"/>
      <point x="106" y="69" type="line"/>
      <point x="106" y="378" type="line"/>
      <point x="30" y="378" type="line"/>
      <point x="30" y="447" type="line"/>
      <point x="194" y="447" type="line"/>
      <point x="194" y="69" type="line"/>
      <point x="266" y="69" type="line"/>
      <point x="266" y="0" type="line"/>
      <point x="33" y="0" type="line"/>
    </contour>
    <contour>
      <point x="255" y="617" type="line"/>
      <point x="207" y="688" type="line"/>
      <point x="51" y="553" type="line"/>
      <point x="76" y="516" type="line"/>
    </contour>
  </outline>
</glyph>
<glyph name="icircumflex" format="1">
  <advance width="285"/>
  <unicode hex="00EE"/>
  <outline>
    <contour>
      <point x="33" y="69" type="line"/>
      <point x="106" y="69" type="line"/>
      <point x="106" y="378" type="line"/>
      <point x="30" y="378" type="line"/>
      <point x="30" y="447" type="line"/>
      <point x="194" y="447" type="line"/>
      <point x="194" y="69" type="line"/>
      <point x="266" y="69" type="line"/>
      <point x="266" y="0" type="line"/>
      <point x="33" y="0" type="line"/>
    </contour>
    <contour>
      <point x="273" y="554" type="line"/>
      <point x="148" y="674" type="line"/>
      <point x="119" y="674" type="line"/>
      <point x="-6" y="553" type="line"/>
      <point x="22" y="515" type="line"/>
      <point x="126" y="595" type="line"/>
      <point x="245" y="516" type="line"/>
    </contour>
  </outline>
</glyph>
<glyph name="ograve" format="1">
  <advance width="515"/>
  <unicode hex="00F2"/>
  <outline>
    <contour>
      <point x="484" y="223" type="curve" smooth="yes"/>
      <point x="484" y="350"/>
      <point x="409" y="457"/>
      <point x="259" y="457" type="curve" smooth="yes"/>
      <point x="109" y="457"/>
      <point x="32" y="350"/>
      <point x="32" y="219" type="curve" smooth="yes"/>
      <point x="32" y="82"/>
      <point x="117" y="-10"/>
      <point x="253" y="-10" type="curve" smooth="yes"/>
      <point x="392" y="-10"/>
      <point x="484" y="86"/>
    </contour>
    <contour>
      <point x="392" y="226" type="curve" smooth="yes"/>
      <point x="392" y="130"/>
      <point x="343" y="61"/>
      <point x="256" y="61" type="curve" smooth="yes"/>
      <point x="168" y="61"/>
      <point x="123" y="133"/>
      <point x="123" y="224" type="curve" smooth="yes"/>
      <point x="123" y="319"/>
      <point x="171" y="386"/>
      <point x="257" y="386" type="curve" smooth="yes"/>
      <point x="340" y="386"/>
      <point x="392" y="324"/>
    </contour>
    <contour>
      <point x="322" y="553" type="line"/>
      <point x="166" y="688" type="line"/>
      <point x="118" y="617" type="line"/>
      <point x="297" y="516" type="line"/>
    </contour>
  </outline>
</glyph>
<glyph name="ocircumflex" format="1">
  <advance width="515"/>
  <unicode hex="00F4"/>
  <outline>
    <contour>
      <point x="403" y="554" type="line"/>
      <point x="278" y="674" type="line"/>
      <point x="249" y="674" type="line"/>
      <point x="124" y="553" type="line"/>
      <point x="152" y="515" type="line"/>
      <point x="256" y="595" type="line"/>
      <point x="375" y="516" type="line"/>
    </contour>
    <contour>
      <point x="484" y="223" type="curve" smooth="yes"/>
      <point x="484" y="350"/>
      <point x="409" y="457"/>
      <point x="259" y="457" type="curve" smooth="yes"/>
      <point x="109" y="457"/>
      <point x="32" y="350"/>
      <point x="32" y="219" type="curve" smooth="yes"/>
      <point x="32" y="82"/>
      <point x="117" y="-10"/>
      <point x="253" y="-10" type="curve" smooth="yes"/>
      <point x="392" y="-10"/>
      <point x="484" y="86"/>
    </contour>
    <contour>
      <point x="392" y="226" type="curve" smooth="yes"/>
      <point x="392" y="130"/>
      <point x="343" y="61"/>
      <point x="256" y="61" type="curve" smooth="yes"/>
      <point x="168" y="61"/>
      <point x="123" y="133"/>
      <point x="123" y="224" type="curve" smooth="yes"/>
      <point x="123" y="319"/>
      <point x="171" y="386"/>
      <point x="257" y="386" type="curve" smooth="yes"/>
      <point x="340" y="386"/>
      <point x="392" y="324"/>
    </contour>
  </outline>
</glyph>
<glyph name="otilde" format="1">
  <advance width="515"/>
  <unicode hex="00F5"/>
  <outline>
    <contour>
      <point x="484" y="223" type="curve" smooth="yes"/>
      <point x="484" y="350"/>
      <point x="409" y="457"/>
      <point x="259" y="457" type="curve" smooth="yes"/>
      <point x="109" y="457"/>
      <point x="32" y="350"/>
      <point x="32" y="219" type="curve" smooth="yes"/>
      <point x="32" y="82"/>
      <point x="117" y="-10"/>
      <point x="253" y="-10" type="curve" smooth="yes"/>
      <point x="392" y="-10"/>
      <point x="484" y="86"/>
    </contour>
    <contour>
      <point x="392" y="226" type="curve" smooth="yes"/>
      <point x="392" y="130"/>
      <point x="343" y="61"/>
      <point x="256" y="61" type="curve" smooth="yes"/>
      <point x="168" y="61"/>
      <point x="123" y="133"/>
      <point x="123" y="224" type="curve" smooth="yes"/>
      <point x="123" y="319"/>
      <point x="171" y="386"/>
      <point x="257" y="386" type="curve" smooth="yes"/>
      <point x="340" y="386"/>
      <point x="392" y="324"/>
    </contour>
    <contour>
      <point x="402" y="646" type="curve"/>
      <point x="361" y="656" type="line"/>
      <point x="351" y="622"/>
      <point x="332" y="614"/>
      <point x="314" y="614" type="curve" smooth="yes"/>
      <point x="270" y="614"/>
      <point x="240" y="651"/>
      <point x="195" y="651" type="curve" smooth="yes"/>
      <point x="140" y="651"/>
      <point x="115" y="588"/>
      <point x="112" y="552" type="curve"/>
      <point x="151" y="539" type="line"/>
      <point x="160" y="570"/>
      <point x="179" y="582"/>
      <point x="200" y="582" type="curve" smooth="yes"/>
      <point x="238" y="582"/>
      <point x="272" y="543"/>
      <point x="323" y="543" type="curve" smooth="yes"/>
      <point x="375" y="543"/>
      <point x="396" y="591"/>
    </contour>
  </outline>
</glyph>
<glyph name="divide" format="1">
  <advance width="435"/>
  <unicode hex="00F7"/>
  <outline>
    <contour>
      <point x="391" y="249" type="line"/>
      <point x="391" y="313" type="line"/>
      <point x="44" y="313" type="line"/>
      <point x="44" y="249" type="line"/>
    </contour>
    <contour>
      <point x="159" y="371" type="line"/>
      <point x="273" y="371" type="line"/>
      <point x="273" y="491" type="line"/>
      <point x="159" y="491" type="line"/>
    </contour>
    <contour>
      <point x="159" y="73" type="line"/>
      <point x="273" y="73" type="line"/>
      <point x="273" y="193" type="line"/>
      <point x="159" y="193" type="line"/>
    </contour>
  </outline>
</glyph>
<glyph name="udieresis" format="1">
  <advance width="569"/>
  <unicode hex="00FC"/>
  <outline>
    <contour>
      <point x="126" y="548" type="line"/>
      <point x="221" y="548" type="line"/>
      <point x="221" y="647" type="line"/>
      <point x="126" y="647" type="line"/>
    </contour>
    <contour>
      <point x="302" y="548" type="line"/>
      <point x="397" y="548" type="line"/>
      <point x="397" y="647" type="line"/>
      <point x="302" y="647" type="line"/>
    </contour>
    <contour>
      <point x="553" y="0" type="line"/>
      <point x="553" y="68" type="line"/>
      <point x="478" y="68" type="line"/>
      <point x="478" y="447" type="line"/>
      <point x="303" y="447" type="line"/>
      <point x="303" y="378" type="line"/>
      <point x="390" y="378" type="line"/>
      <point x="390" y="188" type="line"/>
      <point x="389" y="124"/>
      <point x="341" y="61"/>
      <point x="269" y="61" type="curve" smooth="yes"/>
      <point x="209" y="61"/>
      <point x="171" y="94"/>
      <point x="171" y="185" type="curve" smooth="yes"/>
      <point x="171" y="447" type="line"/>
      <point x="11" y="447" type="line"/>
      <point x="11" y="378" type="line"/>
      <point x="83" y="378" type="line"/>
      <point x="83" y="156" type="line" smooth="yes"/>
      <point x="83" y="41"/>
      <point x="152" y="-10"/>
      <point x="239" y="-10" type="curve" smooth="yes"/>
      <point x="308" y="-10"/>
      <point x="362" y="25"/>
      <point x="390" y="80" type="curve"/>
      <point x="390" y="0" type="line"/>
    </contour>
  </outline>
</glyph>
<glyph name="thorn" format="1">
  <advance width="530"/>
  <unicode hex="00FE"/>
  <outline>
    <contour>
      <point x="-11" y="-144" type="line"/>
      <point x="61" y="-144" type="line"/>
      <point x="61" y="619" type="line"/>
      <point x="-14" y="619" type="line"/>
      <point x="-14" y="688" type="line"/>
      <point x="149" y="688" type="line"/>
      <point x="149" y="356" type="line"/>
      <point x="175" y="409"/>
      <point x="223" y="456"/>
      <point x="306" y="456" type="curve" smooth="yes"/>
      <point x="419" y="456"/>
      <point x="497" y="374"/>
      <point x="497" y="235" type="curve" smooth="yes"/>
      <point x="497" y="112"/>
      <point x="435" y="-10"/>
      <point x="294" y="-10" type="curve" smooth="yes"/>
      <point x="230" y="-10"/>
      <point x="178" y="16"/>
      <point x="149" y="63" type="curve"/>
      <point x="149" y="-144" type="line"/>
      <point x="246" y="-144" type="line"/>
      <point x="246" y="-213" type="line"/>
      <point x="-11" y="-213" type="line"/>
    </contour>
    <contour>
      <point x="275" y="65" type="curve" smooth="yes"/>
      <point x="359" y="65"/>
      <point x="404" y="134"/>
      <point x="404" y="228" type="curve" smooth="yes"/>
      <point x="404" y="329"/>
      <point x="351" y="382"/>
      <point x="283" y="382" type="curve" smooth="yes"/>
      <point x="204" y="382"/>
      <point x="151" y="306"/>
      <point x="149" y="240" type="curve"/>
      <point x="149" y="191" type="line" smooth="yes"/>
      <point x="149" y="116"/>
      <point x="203" y="65"/>
    </contour>
  </outline>
</glyph>
<glyph name="ydieresis" format="1">
  <advance width="516"/>
  <unicode hex="00FF"/>
  <outline>
    <contour>
      <point x="508" y="378" type="line"/>
      <point x="508" y="447" type="line"/>
      <point x="309" y="447" type="line"/>
      <point x="309" y="378" type="line"/>
      <point x="372" y="378" type="line"/>
      <point x="273" y="106" type="line"/>
      <point x="267" y="106" type="line"/>
      <point x="152" y="378" type="line"/>
      <point x="220" y="378" type="line"/>
      <point x="220" y="447" type="line"/>
      <point x="7" y="447" type="line"/>
      <point x="7" y="378" type="line"/>
      <point x="58" y="378" type="line"/>
      <point x="219" y="-1" type="line"/>
      <point x="167" y="-143" type="line"/>
      <point x="88" y="-143" type="line"/>
      <point x="88" y="-213" type="line"/>
      <point x="320" y="-213" type="line"/>
      <point x="320" y="-143" type="line"/>
      <point x="249" y="-143" type="line"/>
      <point x="304" y="0" type="line"/>
      <point x="458" y="378" type="line"/>
    </contour>
    <contour>
      <point x="138" y="548" type="line"/>
      <point x="233" y="548" type="line"/>
      <point x="233" y="647" type="line"/>
      <point x="138" y="647" type="line"/>
    </contour>
    <contour>
      <point x="314" y="548" type="line"/>
      <point x="409" y="548" type="line"/>
      <point x="409" y="647" type="line"/>
      <point x="314" y="647" type="line"/>
    </contour>
  </outline>
</glyph>
<glyph name="Abreve" format="1">
  <advance width="660"/>
  <unicode hex="0102"/>
  <outline>
    <contour>
      <point x="664" y="0" type="line"/>
      <point x="664" y="79" type="line"/>
      <point x="600" y="79" type="line"/>
      <point x="366" y="650" type="line"/>
      <point x="170" y="650" type="line"/>
      <point x="170" y="571" type="line"/>
      <point x="270" y="571" type="line"/>
      <point x="65" y="79" type="line"/>
      <point x="5" y="79" type="line"/>
      <point x="5" y="0" type="line"/>
      <point x="242" y="0" type="line"/>
      <point x="242" y="79" type="line"/>
      <point x="157" y="79" type="line"/>
      <point x="200" y="187" type="line"/>
      <point x="462" y="187" type="line"/>
      <point x="502" y="79" type="line"/>
      <point x="425" y="79" type="line"/>
      <point x="425" y="0" type="line"/>
    </contour>
    <contour>
      <point x="436" y="255" type="line"/>
      <point x="227" y="255" type="line"/>
      <point x="331" y="519" type="line"/>
      <point x="337" y="519" type="line"/>
    </contour>
    <contour>
      <point x="461" y="821" type="curve"/>
      <point x="390" y="821" type="line"/>
      <point x="390" y="776"/>
      <point x="374" y="754"/>
      <point x="333" y="754" type="curve" smooth="yes"/>
      <point x="297" y="754"/>
      <point x="278" y="773"/>
      <point x="278" y="821" type="curve"/>
      <point x="207" y="821" type="line"/>
      <point x="207" y="737"/>
      <point x="251" y="698"/>
      <point x="334" y="698" type="curve" smooth="yes"/>
      <point x="416" y="698"/>
      <point x="461" y="735"/>
    </contour>
  </outline>
</glyph>
<glyph name="Aogonek" format="1">
  <advance width="659"/>
  <unicode hex="0104"/>
  <outline>
    <contour>
      <point x="661" y="-189" type="curve"/>
      <point x="652" y="-130" type="line"/>
      <point x="635" y="-140"/>
      <point x="617" y="-144"/>
      <point x="600" y="-144" type="curve" smooth="yes"/>
      <point x="569" y="-144"/>
      <point x="546" y="-131"/>
      <point x="546" y="-92" type="curve" smooth="yes"/>
      <point x="546" y="-62"/>
      <point x="559" y="-28"/>
      <point x="605" y="0" type="curve"/>
      <point x="664" y="0" type="line"/>
      <point x="664" y="79" type="line"/>
      <point x="600" y="79" type="line"/>
      <point x="366" y="650" type="line"/>
      <point x="170" y="650" type="line"/>
      <point x="170" y="571" type="line"/>
      <point x="270" y="571" type="line"/>
      <point x="65" y="79" type="line"/>
      <point x="5" y="79" type="line"/>
      <point x="5" y="0" type="line"/>
      <point x="242" y="0" type="line"/>
      <point x="242" y="79" type="line"/>
      <point x="157" y="79" type="line"/>
      <point x="200" y="187" type="line"/>
      <point x="462" y="187" type="line"/>
      <point x="502" y="79" type="line"/>
      <point x="425" y="79" type="line"/>
      <point x="425" y="0" type="line"/>
      <point x="542" y="0" type="line"/>
      <point x="501" y="-25"/>
      <point x="470" y="-67"/>
      <point x="470" y="-118" type="curve" smooth="yes"/>
      <point x="470" y="-177"/>
      <point x="515" y="-209"/>
      <point x="578" y="-209" type="curve" smooth="yes"/>
      <point x="611" y="-209"/>
      <point x="638" y="-200"/>
    </contour>
    <contour>
      <point x="436" y="255" type="line"/>
      <point x="227" y="255" type="line"/>
      <point x="331" y="519" type="line"/>
      <point x="337" y="519" type="line"/>
    </contour>
  </outline>
</glyph>
<glyph name="cacute" format="1">
  <advance width="464"/>
  <unicode hex="0107"/>
  <outline>
    <contour>
      <point x="387" y="617" type="line"/>
      <point x="339" y="688" type="line"/>
      <point x="183" y="553" type="line"/>
      <point x="208" y="516" type="line"/>
    </contour>
    <contour>
      <point x="436" y="155" type="curve"/>
      <point x="362" y="170" type="line"/>
      <point x="350" y="99"/>
      <point x="315" y="62"/>
      <point x="251" y="62" type="curve" smooth="yes"/>
      <point x="168" y="62"/>
      <point x="125" y="121"/>
      <point x="125" y="221" type="curve" smooth="yes"/>
      <point x="125" y="317"/>
      <point x="164" y="384"/>
      <point x="248" y="384" type="curve" smooth="yes"/>
      <point x="281" y="384"/>
      <point x="309" y="377"/>
      <point x="335" y="362" type="curve"/>
      <point x="351" y="287" type="line"/>
      <point x="422" y="295" type="line"/>
      <point x="404" y="411" type="line"/>
      <point x="357" y="444"/>
      <point x="305" y="456"/>
      <point x="249" y="456" type="curve" smooth="yes"/>
      <point x="113" y="456"/>
      <point x="33" y="351"/>
      <point x="33" y="216" type="curve" smooth="yes"/>
      <point x="33" y="71"/>
      <point x="117" y="-10"/>
      <point x="242" y="-10" type="curve" smooth="yes"/>
      <point x="371" y="-10"/>
      <point x="425" y="76"/>
    </contour>
  </outline>
</glyph>
<glyph name="dcaron" format="1">
  <advance width="565"/>
  <unicode hex="010F"/>
  <outline>
    <contour>
      <point x="624" y="681" type="line"/>
      <point x="542" y="681" type="line"/>
      <point x="529" y="457" type="line"/>
      <point x="598" y="457" type="line"/>
    </contour>
    <contour>
      <point x="541" y="0" type="line"/>
      <point x="541" y="68" type="line"/>
      <point x="469" y="68" type="line"/>
      <point x="469" y="688" type="line"/>
      <point x="279" y="688" type="line"/>
      <point x="279" y="619" type="line"/>
      <point x="382" y="619" type="line"/>
      <point x="382" y="376" type="line"/>
      <point x="354" y="426"/>
      <point x="302" y="456"/>
      <point x="234" y="456" type="curve" smooth="yes"/>
      <point x="92" y="456"/>
      <point x="33" y="336"/>
      <point x="33" y="213" type="curve" smooth="yes"/>
      <point x="33" y="74"/>
      <point x="108" y="-10"/>
      <point x="224" y="-10" type="curve" smooth="yes"/>
      <point x="306" y="-10"/>
      <point x="354" y="35"/>
      <point x="382" y="88" type="curve"/>
      <point x="382" y="0" type="line"/>
    </contour>
    <contour>
      <point x="382" y="206" type="line"/>
      <point x="380" y="139"/>
      <point x="326" y="62"/>
      <point x="250" y="62" type="curve" smooth="yes"/>
      <point x="179" y="62"/>
      <point x="125" y="117"/>
      <point x="125" y="218" type="curve" smooth="yes"/>
      <point x="125" y="312"/>
      <point x="171" y="384"/>
      <point x="257" y="384" type="curve" smooth="yes"/>
      <point x="325" y="384"/>
      <point x="380" y="334"/>
      <point x="382" y="260" type="curve"/>
    </contour>
  </outline>
</glyph>
<glyph name="Eogonek" format="1">
  <advance width="589"/>
  <unicode hex="0118"/>
  <outline>
    <contour>
      <point x="530" y="0" type="line"/>
      <point x="550" y="186" type="line"/>
      <point x="472" y="193" type="line"/>
      <point x="452" y="79" type="line"/>
      <point x="211" y="79" type="line"/>
      <point x="211" y="290" type="line"/>
      <point x="507" y="290" type="line"/>
      <point x="507" y="368" type="line"/>
      <point x="211" y="368" type="line"/>
      <point x="211" y="571" type="line"/>
      <point x="443" y="571" type="line"/>
      <point x="463" y="457" type="line"/>
      <point x="542" y="464" type="line"/>
      <point x="522" y="650" type="line"/>
      <point x="41" y="650" type="line"/>
      <point x="41" y="571" type="line"/>
      <point x="120" y="571" type="line"/>
      <point x="120" y="79" type="line"/>
      <point x="41" y="79" type="line"/>
      <point x="41" y="0" type="line"/>
      <point x="433" y="0" type="line"/>
      <point x="392" y="-25"/>
      <point x="361" y="-67"/>
      <point x="361" y="-118" type="curve" smooth="yes"/>
      <point x="361" y="-177"/>
      <point x="406" y="-209"/>
      <point x="469" y="-209" type="curve" smooth="yes"/>
      <point x="502" y="-209"/>
      <point x="529" y="-200"/>
      <point x="552" y="-189" type="curve"/>
      <point x="543" y="-130" type="line"/>
      <point x="526" y="-140"/>
      <point x="508" y="-144"/>
      <point x="491" y="-144" type="curve" smooth="yes"/>
      <point x="460" y="-144"/>
      <point x="437" y="-131"/>
      <point x="437" y="-92" type="curve" smooth="yes"/>
      <point x="437" y="-62"/>
      <point x="450" y="-28"/>
      <point x="496" y="0" type="curve"/>
    </contour>
  </outline>
</glyph>
<glyph name="gbreve" format="1">
  <advance width="554"/>
  <unicode hex="011F"/>
  <outline>
    <contour>
      <point x="538" y="378" type="line"/>
      <point x="538" y="447" type="line"/>
      <point x="382" y="447" type="line"/>
      <point x="382" y="377" type="line"/>
      <point x="354" y="427"/>
      <point x="301" y="456"/>
      <point x="234" y="456" type="curve" smooth="yes"/>
      <point x="99" y="456"/>
      <point x="33" y="336"/>
      <point x="33" y="213" type="curve" smooth="yes"/>
      <point x="33" y="72"/>
      <point x="120" y="-4"/>
      <point x="226" y="-4" type="curve" smooth="yes"/>
      <point x="309" y="-4"/>
      <point x="355" y="38"/>
      <point x="382" y="88" type="curve"/>
      <point x="382" y="13" type="line" smooth="yes"/>
      <point x="382" y="-92"/>
      <point x="324" y="-150"/>
      <point x="244" y="-150" type="curve" smooth="yes"/>
      <point x="185" y="-150"/>
      <point x="128" y="-121"/>
      <point x="103" y="-55" type="curve"/>
      <point x="35" y="-90" type="line"/>
      <point x="63" y="-184"/>
      <point x="149" y="-223"/>
      <point x="242" y="-223" type="curve" smooth="yes"/>
      <point x="389" y="-223"/>
      <point x="469" y="-130"/>
      <point x="469" y="11" type="curve" smooth="yes"/>
      <point x="469" y="378" type="line"/>
    </contour>
    <contour>
      <point x="382" y="202" type="line"/>
      <point x="380" y="136"/>
      <point x="328" y="68"/>
      <point x="248" y="68" type="curve" smooth="yes"/>
      <point x="181" y="68"/>
      <point x="129" y="117"/>
      <point x="129" y="219" type="curve" smooth="yes"/>
      <point x="129" y="312"/>
      <point x="171" y="384"/>
      <point x="259" y="384" type="curve" smooth="yes"/>
      <point x="327" y="384"/>
      <point x="382" y="335"/>
      <point x="382" y="260" type="curve" smooth="yes"/>
    </contour>
    <contour>
      <point x="388" y="654" type="curve"/>
      <point x="316" y="654" type="line"/>
      <point x="316" y="609"/>
      <point x="300" y="584"/>
      <point x="261" y="584" type="curve" smooth="yes"/>
      <point x="224" y="584"/>
      <point x="205" y="606"/>
      <point x="205" y="654" type="curve"/>
      <point x="133" y="654" type="line"/>
      <point x="133" y="570"/>
      <point x="177" y="527"/>
      <point x="259" y="527" type="curve" smooth="yes"/>
      <point x="340" y="527"/>
      <point x="388" y="568"/>
    </contour>
  </outline>
</glyph>
<glyph name="gcommaaccent" format="1">
  <advance width="554"/>
  <unicode hex="0123"/>
  <outline>
    <contour>
      <point x="217" y="542" type="line"/>
      <point x="300" y="542" type="line"/>
      <point x="307" y="696" type="line"/>
      <point x="238" y="696" type="line"/>
    </contour>
    <contour>
      <point x="538" y="378" type="line"/>
      <point x="538" y="447" type="line"/>
      <point x="382" y="447" type="line"/>
      <point x="382" y="377" type="line"/>
      <point x="354" y="427"/>
      <point x="301" y="456"/>
      <point x="234" y="456" type="curve" smooth="yes"/>
      <point x="99" y="456"/>
      <point x="33" y="336"/>
      <point x="33" y="213" type="curve" smooth="yes"/>
      <point x="33" y="72"/>
      <point x="120" y="-4"/>
      <point x="226" y="-4" type="curve" smooth="yes"/>
      <point x="309" y="-4"/>
      <point x="355" y="38"/>
      <point x="382" y="88" type="curve"/>
      <point x="382" y="13" type="line" smooth="yes"/>
      <point x="382" y="-92"/>
      <point x="324" y="-150"/>
      <point x="244" y="-150" type="curve" smooth="yes"/>
      <point x="185" y="-150"/>
      <point x="128" y="-121"/>
      <point x="103" y="-55" type="curve"/>
      <point x="35" y="-90" type="line"/>
      <point x="63" y="-184"/>
      <point x="149" y="-223"/>
      <point x="242" y="-223" type="curve" smooth="yes"/>
      <point x="389" y="-223"/>
      <point x="469" y="-130"/>
      <point x="469" y="11" type="curve" smooth="yes"/>
      <point x="469" y="378" type="line"/>
    </contour>
    <contour>
      <point x="382" y="202" type="line"/>
      <point x="380" y="136"/>
      <point x="328" y="68"/>
      <point x="248" y="68" type="curve" smooth="yes"/>
      <point x="181" y="68"/>
      <point x="129" y="117"/>
      <point x="129" y="219" type="curve" smooth="yes"/>
      <point x="129" y="312"/>
      <point x="171" y="384"/>
      <point x="259" y="384" type="curve" smooth="yes"/>
      <point x="327" y="384"/>
      <point x="382" y="335"/>
      <point x="382" y="260" type="curve" smooth="yes"/>
    </contour>
  </outline>
</glyph>
<glyph name="Itilde" format="1">
  <advance width="331"/>
  <unicode hex="0128"/>
  <outline>
    <contour>
      <point x="289" y="0" type="line"/>
      <point x="289" y="79" type="line"/>
      <point x="211" y="79" type="line"/>
      <point x="211" y="571" type="line"/>
      <point x="289" y="571" type="line"/>
      <point x="289" y="650" type="line"/>
      <point x="41" y="650" type="line"/>
      <point x="41" y="571" type="line"/>
      <point x="120" y="571" type="line"/>
      <point x="120" y="79" type="line"/>
      <point x="41" y="79" type="line"/>
      <point x="41" y="0" type="line"/>
    </contour>
    <contour>
      <point x="315" y="804" type="curve"/>
      <point x="274" y="814" type="line"/>
      <point x="263" y="780"/>
      <point x="245" y="773"/>
      <point x="227" y="773" type="curve" smooth="yes"/>
      <point x="183" y="773"/>
      <point x="153" y="807"/>
      <point x="109" y="807" type="curve" smooth="yes"/>
      <point x="53" y="807"/>
      <point x="28" y="752"/>
      <point x="26" y="717" type="curve"/>
      <point x="64" y="703" type="line"/>
      <point x="73" y="733"/>
      <point x="91" y="741"/>
      <point x="111" y="741" type="curve" smooth="yes"/>
      <point x="152" y="741"/>
      <point x="185" y="707"/>
      <point x="235" y="707" type="curve" smooth="yes"/>
      <point x="289" y="707"/>
      <point x="308" y="749"/>
    </contour>
  </outline>
</glyph>
<glyph name="itilde" format="1">
  <advance width="285"/>
  <unicode hex="0129"/>
  <outline>
    <contour>
      <point x="33" y="69" type="line"/>
      <point x="106" y="69" type="line"/>
      <point x="106" y="378" type="line"/>
      <point x="30" y="378" type="line"/>
      <point x="30" y="447" type="line"/>
      <point x="194" y="447" type="line"/>
      <point x="194" y="69" type="line"/>
      <point x="266" y="69" type="line"/>
      <point x="266" y="0" type="line"/>
      <point x="33" y="0" type="line"/>
    </contour>
    <contour>
      <point x="283" y="646" type="curve"/>
      <point x="242" y="656" type="line"/>
      <point x="232" y="622"/>
      <point x="213" y="614"/>
      <point x="195" y="614" type="curve" smooth="yes"/>
      <point x="151" y="614"/>
      <point x="121" y="651"/>
      <point x="76" y="651" type="curve" smooth="yes"/>
      <point x="21" y="651"/>
      <point x="-4" y="588"/>
      <point x="-7" y="552" type="curve"/>
      <point x="32" y="539" type="line"/>
      <point x="41" y="570"/>
      <point x="60" y="582"/>
      <point x="81" y="582" type="curve" smooth="yes"/>
      <point x="119" y="582"/>
      <point x="153" y="543"/>
      <point x="204" y="543" type="curve" smooth="yes"/>
      <point x="256" y="543"/>
      <point x="277" y="591"/>
    </contour>
  </outline>
</glyph>
<glyph name="Imacron" format="1">
  <advance width="331"/>
  <unicode hex="012A"/>
  <outline>
    <contour>
      <point x="289" y="0" type="line"/>
      <point x="289" y="79" type="line"/>
      <point x="211" y="79" type="line"/>
      <point x="211" y="571" type="line"/>
      <point x="289" y="571" type="line"/>
      <point x="289" y="650" type="line"/>
      <point x="41" y="650" type="line"/>
      <point x="41" y="571" type="line"/>
      <point x="120" y="571" type="line"/>
      <point x="120" y="79" type="line"/>
      <point x="41" y="79" type="line"/>
      <point x="41" y="0" type="line"/>
    </contour>
    <contour>
      <point x="311" y="729" type="line"/>
      <point x="311" y="798" type="line"/>
      <point x="24" y="798" type="line"/>
      <point x="24" y="729" type="line"/>
    </contour>
  </outline>
</glyph>
<glyph name="imacron" format="1">
  <advance width="286"/>
  <unicode hex="012B"/>
  <outline>
    <contour>
      <point x="33" y="69" type="line"/>
      <point x="106" y="69" type="line"/>
      <point x="106" y="378" type="line"/>
      <point x="30" y="378" type="line"/>
      <point x="30" y="447" type="line"/>
      <point x="194" y="447" type="line"/>
      <point x="194" y="69" type="line"/>
      <point x="266" y="69" type="line"/>
      <point x="266" y="0" type="line"/>
      <point x="33" y="0" type="line"/>
    </contour>
    <contour>
      <point x="260" y="556" type="line"/>
      <point x="260" y="625" type="line"/>
      <point x="9" y="625" type="line"/>
      <point x="9" y="556" type="line"/>
    </contour>
  </outline>
</glyph>
<glyph name="Ibreve" format="1">
  <advance width="331"/>
  <unicode hex="012C"/>
  <outline>
    <contour>
      <point x="289" y="0" type="line"/>
      <point x="289" y="79" type="line"/>
      <point x="211" y="79" type="line"/>
      <point x="211" y="571" type="line"/>
      <point x="289" y="571" type="line"/>
      <point x="289" y="650" type="line"/>
      <point x="41" y="650" type="line"/>
      <point x="41" y="571" type="line"/>
      <point x="120" y="571" type="line"/>
      <point x="120" y="79" type="line"/>
      <point x="41" y="79" type="line"/>
      <point x="41" y="0" type="line"/>
    </contour>
    <contour>
      <point x="293" y="821" type="curve"/>
      <point x="222" y="821" type="line"/>
      <point x="222" y="776"/>
      <point x="206" y="754"/>
      <point x="165" y="754" type="curve" smooth="yes"/>
      <point x="129" y="754"/>
      <point x="110" y="773"/>
      <point x="110" y="821" type="curve"/>
      <point x="39" y="821" type="line"/>
      <point x="39" y="737"/>
      <point x="83" y="698"/>
      <point x="166" y="698" type="curve" smooth="yes"/>
      <point x="248" y="698"/>
      <point x="293" y="735"/>
    </contour>
  </outline>
</glyph>
<glyph name="ibreve" format="1">
  <advance width="285"/>
  <unicode hex="012D"/>
  <outline>
    <contour>
      <point x="33" y="69" type="line"/>
      <point x="106" y="69" type="line"/>
      <point x="106" y="378" type="line"/>
      <point x="30" y="378" type="line"/>
      <point x="30" y="447" type="line"/>
      <point x="194" y="447" type="line"/>
      <point x="194" y="69" type="line"/>
      <point x="266" y="69" type="line"/>
      <point x="266" y="0" type="line"/>
      <point x="33" y="0" type="line"/>
    </contour>
    <contour>
      <point x="272" y="654" type="curve"/>
      <point x="200" y="654" type="line"/>
      <point x="200" y="609"/>
      <point x="184" y="584"/>
      <point x="145" y="584" type="curve" smooth="yes"/>
      <point x="108" y="584"/>
      <point x="89" y="606"/>
      <point x="89" y="654" type="curve"/>
      <point x="17" y="654" type="line"/>
      <point x="17" y="570"/>
      <point x="61" y="527"/>
      <point x="143" y="527" type="curve" smooth="yes"/>
      <point x="224" y="527"/>
      <point x="272" y="568"/>
    </contour>
  </outline>
</glyph>
<glyph name="Iogonek" format="1">
  <advance width="330"/>
  <unicode hex="012E"/>
  <outline>
    <contour>
      <point x="257" y="-189" type="curve"/>
      <point x="248" y="-130" type="line"/>
      <point x="231" y="-140"/>
      <point x="213" y="-144"/>
      <point x="196" y="-144" type="curve" smooth="yes"/>
      <point x="165" y="-144"/>
      <point x="142" y="-131"/>
      <point x="142" y="-92" type="curve" smooth="yes"/>
      <point x="142" y="-62"/>
      <point x="155" y="-28"/>
      <point x="201" y="0" type="curve"/>
      <point x="289" y="0" type="line"/>
      <point x="289" y="79" type="line"/>
      <point x="211" y="79" type="line"/>
      <point x="211" y="571" type="line"/>
      <point x="289" y="571" type="line"/>
      <point x="289" y="650" type="line"/>
      <point x="41" y="650" type="line"/>
      <point x="41" y="571" type="line"/>
      <point x="120" y="571" type="line"/>
      <point x="120" y="79" type="line"/>
      <point x="41" y="79" type="line"/>
      <point x="41" y="0" type="line"/>
      <point x="138" y="0" type="line"/>
      <point x="97" y="-25"/>
      <point x="66" y="-67"/>
      <point x="66" y="-118" type="curve" smooth="yes"/>
      <point x="66" y="-177"/>
      <point x="111" y="-209"/>
      <point x="174" y="-209" type="curve" smooth="yes"/>
      <point x="207" y="-209"/>
      <point x="234" y="-200"/>
    </contour>
  </outline>
</glyph>
<glyph name="iogonek" format="1">
  <advance width="285"/>
  <unicode hex="012F"/>
  <outline>
    <contour>
      <point x="229" y="-130" type="line"/>
      <point x="213" y="-140"/>
      <point x="195" y="-144"/>
      <point x="178" y="-144" type="curve" smooth="yes"/>
      <point x="147" y="-144"/>
      <point x="124" y="-131"/>
      <point x="124" y="-92" type="curve" smooth="yes"/>
      <point x="124" y="-62"/>
      <point x="137" y="-28"/>
      <point x="183" y="0" type="curve"/>
      <point x="266" y="0" type="line"/>
      <point x="266" y="69" type="line"/>
      <point x="194" y="69" type="line"/>
      <point x="194" y="447" type="line"/>
      <point x="30" y="447" type="line"/>
      <point x="30" y="378" type="line"/>
      <point x="106" y="378" type="line"/>
      <point x="106" y="69" type="line"/>
      <point x="33" y="69" type="line"/>
      <point x="33" y="0" type="line"/>
      <point x="120" y="0" type="line"/>
      <point x="79" y="-25"/>
      <point x="48" y="-67"/>
      <point x="48" y="-118" type="curve" smooth="yes"/>
      <point x="48" y="-177"/>
      <point x="93" y="-209"/>
      <point x="156" y="-209" type="curve" smooth="yes"/>
      <point x="189" y="-209"/>
      <point x="216" y="-200"/>
      <point x="238" y="-189" type="curve"/>
    </contour>
    <contour>
      <point x="100" y="552" type="line"/>
      <point x="191" y="552" type="line"/>
      <point x="191" y="655" type="line"/>
      <point x="100" y="655" type="line"/>
    </contour>
  </outline>
</glyph>
<glyph name="IJ" format="1">
  <advance width="795"/>
  <unicode hex="0132"/>
  <outline>
    <contour>
      <point x="289" y="0" type="line"/>
      <point x="289" y="79" type="line"/>
      <point x="211" y="79" type="line"/>
      <point x="211" y="571" type="line"/>
      <point x="289" y="571" type="line"/>
      <point x="289" y="650" type="line"/>
      <point x="41" y="650" type="line"/>
      <point x="41" y="571" type="line"/>
      <point x="120" y="571" type="line"/>
      <point x="120" y="79" type="line"/>
      <point x="41" y="79" type="line"/>
      <point x="41" y="0" type="line"/>
    </contour>
    <contour>
      <point x="760" y="571" type="line"/>
      <point x="760" y="650" type="line"/>
      <point x="476" y="650" type="line"/>
      <point x="476" y="571" type="line"/>
      <point x="600" y="571" type="line"/>
      <point x="600" y="171" type="line" smooth="yes"/>
      <point x="600" y="114"/>
      <point x="573" y="75"/>
      <point x="507" y="75" type="curve" smooth="yes"/>
      <point x="467" y="75"/>
      <point x="435" y="90"/>
      <point x="408" y="145" type="curve"/>
      <point x="343" y="96" type="line"/>
      <point x="371" y="35"/>
      <point x="422" y="-10"/>
      <point x="515" y="-10" type="curve" smooth="yes"/>
      <point x="624" y="-10"/>
      <point x="691" y="50"/>
      <point x="691" y="172" type="curve" smooth="yes"/>
      <point x="691" y="571" type="line"/>
    </contour>
  </outline>
</glyph>
<glyph name="ij" format="1">
  <advance width="541"/>
  <unicode hex="0133"/>
  <outline>
    <contour>
      <point x="266" y="0" type="line"/>
      <point x="266" y="68" type="line"/>
      <point x="194" y="68" type="line"/>
      <point x="194" y="447" type="line"/>
      <point x="30" y="447" type="line"/>
      <point x="30" y="378" type="line"/>
      <point x="106" y="378" type="line"/>
      <point x="106" y="68" type="line"/>
      <point x="33" y="68" type="line"/>
      <point x="33" y="0" type="line"/>
    </contour>
    <contour>
      <point x="100" y="552" type="line"/>
      <point x="191" y="552" type="line"/>
      <point x="191" y="655" type="line"/>
      <point x="100" y="655" type="line"/>
    </contour>
    <contour>
      <point x="472" y="-5" type="curve" smooth="yes"/>
      <point x="472" y="447" type="line"/>
      <point x="294" y="447" type="line"/>
      <point x="294" y="378" type="line"/>
      <point x="384" y="378" type="line"/>
      <point x="384" y="-5" type="line" smooth="yes"/>
      <point x="384" y="-149"/>
      <point x="323" y="-161"/>
      <point x="268" y="-161" type="curve"/>
      <point x="271" y="-223" type="line"/>
      <point x="400" y="-235"/>
      <point x="472" y="-175"/>
    </contour>
    <contour>
      <point x="380" y="552" type="line"/>
      <point x="472" y="552" type="line"/>
      <point x="472" y="655" type="line"/>
      <point x="380" y="655" type="line"/>
    </contour>
  </outline>
</glyph>
<glyph name="Lacute" format="1">
  <advance width="548"/>
  <unicode hex="0139"/>
  <outline>
    <contour>
      <point x="302" y="737" type="line"/>
      <point x="282" y="819" type="line"/>
      <point x="87" y="742" type="line"/>
      <point x="100" y="699" type="line"/>
    </contour>
    <contour>
      <point x="516" y="0" type="line"/>
      <point x="536" y="214" type="line"/>
      <point x="457" y="221" type="line"/>
      <point x="437" y="79" type="line"/>
      <point x="211" y="79" type="line"/>
      <point x="211" y="571" type="line"/>
      <point x="314" y="571" type="line"/>
      <point x="314" y="650" type="line"/>
      <point x="41" y="650" type="line"/>
      <point x="41" y="571" type="line"/>
      <point x="120" y="571" type="line"/>
      <point x="120" y="79" type="line"/>
      <point x="41" y="79" type="line"/>
      <point x="41" y="0" type="line"/>
    </contour>
  </outline>
</glyph>
<glyph name="lacute" format="1">
  <advance width="272"/>
  <unicode hex="013A"/>
  <outline>
    <contour>
      <point x="228" y="752" type="line"/>
      <point x="208" y="834" type="line"/>
      <point x="13" y="757" type="line"/>
      <point x="26" y="714" type="line"/>
    </contour>
    <contour>
      <point x="252" y="0" type="line"/>
      <point x="252" y="68" type="line"/>
      <point x="180" y="68" type="line"/>
      <point x="180" y="688" type="line"/>
      <point x="17" y="688" type="line"/>
      <point x="17" y="619" type="line"/>
      <point x="92" y="619" type="line"/>
      <point x="92" y="68" type="line"/>
      <point x="20" y="68" type="line"/>
      <point x="20" y="0" type="line"/>
    </contour>
  </outline>
</glyph>
<glyph name="lcaron" format="1">
  <advance width="282"/>
  <unicode hex="013E"/>
  <outline>
    <contour>
      <point x="333" y="681" type="line"/>
      <point x="251" y="681" type="line"/>
      <point x="238" y="457" type="line"/>
      <point x="307" y="457" type="line"/>
    </contour>
    <contour>
      <point x="252" y="0" type="line"/>
      <point x="252" y="68" type="line"/>
      <point x="180" y="68" type="line"/>
      <point x="180" y="688" type="line"/>
      <point x="17" y="688" type="line"/>
      <point x="17" y="619" type="line"/>
      <point x="92" y="619" type="line"/>
      <point x="92" y="68" type="line"/>
      <point x="20" y="68" type="line"/>
      <point x="20" y="0" type="line"/>
    </contour>
  </outline>
</glyph>
<glyph name="ldot" format="1">
  <advance width="299"/>
  <unicode hex="0140"/>
  <outline>
    <contour>
      <point x="252" y="0" type="line"/>
      <point x="252" y="68" type="line"/>
      <point x="180" y="68" type="line"/>
      <point x="180" y="688" type="line"/>
      <point x="17" y="688" type="line"/>
      <point x="17" y="619" type="line"/>
      <point x="92" y="619" type="line"/>
      <point x="92" y="68" type="line"/>
      <point x="20" y="68" type="line"/>
      <point x="20" y="0" type="line"/>
    </contour>
    <contour>
      <point x="234" y="287" type="line"/>
      <point x="326" y="287" type="line"/>
      <point x="326" y="390" type="line"/>
      <point x="234" y="390" type="line"/>
    </contour>
  </outline>
</glyph>
<glyph name="nacute" format="1">
  <advance width="579"/>
  <unicode hex="0144"/>
  <outline>
    <contour>
      <point x="456" y="617" type="line"/>
      <point x="408" y="688" type="line"/>
      <point x="252" y="553" type="line"/>
      <point x="277" y="516" type="line"/>
    </contour>
    <contour>
      <point x="569" y="0" type="line"/>
      <point x="569" y="68" type="line"/>
      <point x="497" y="68" type="line"/>
      <point x="497" y="291" type="line" smooth="yes"/>
      <point x="497" y="405"/>
      <point x="429" y="456"/>
      <point x="342" y="456" type="curve" smooth="yes"/>
      <point x="273" y="456"/>
      <point x="219" y="424"/>
      <point x="190" y="371" type="curve"/>
      <point x="190" y="447" type="line"/>
      <point x="27" y="447" type="line"/>
      <point x="27" y="378" type="line"/>
      <point x="102" y="378" type="line"/>
      <point x="102" y="68" type="line"/>
      <point x="30" y="68" type="line"/>
      <point x="30" y="0" type="line"/>
      <point x="262" y="0" type="line"/>
      <point x="262" y="68" type="line"/>
      <point x="190" y="68" type="line"/>
      <point x="190" y="263" type="line"/>
      <point x="192" y="329"/>
      <point x="239" y="386"/>
      <point x="314" y="386" type="curve" smooth="yes"/>
      <point x="371" y="386"/>
      <point x="409" y="352"/>
      <point x="409" y="261" type="curve" smooth="yes"/>
      <point x="409" y="68" type="line"/>
      <point x="337" y="68" type="line"/>
      <point x="337" y="0" type="line"/>
    </contour>
  </outline>
</glyph>
<glyph name="Ncaron" format="1">
  <advance width="744"/>
  <unicode hex="0147"/>
  <outline>
    <contour>
      <point x="510" y="792" type="line"/>
      <point x="487" y="832" type="line"/>
      <point x="371" y="769" type="line"/>
      <point x="246" y="830" type="line"/>
      <point x="223" y="790" type="line"/>
      <point x="352" y="696" type="line"/>
      <point x="381" y="696" type="line"/>
    </contour>
    <contour>
      <point x="712" y="571" type="line"/>
      <point x="712" y="650" type="line"/>
      <point x="451" y="650" type="line"/>
      <point x="451" y="571" type="line"/>
      <point x="548" y="571" type="line"/>
      <point x="548" y="182" type="line"/>
      <point x="544" y="182" type="line"/>
      <point x="186" y="650" type="line"/>
      <point x="36" y="650" type="line"/>
      <point x="36" y="571" type="line"/>
      <point x="120" y="571" type="line"/>
      <point x="120" y="79" type="line"/>
      <point x="46" y="79" type="line"/>
      <point x="46" y="0" type="line"/>
      <point x="305" y="0" type="line"/>
      <point x="305" y="79" type="line"/>
      <point x="206" y="79" type="line"/>
      <point x="206" y="483" type="line"/>
      <point x="210" y="483" type="line"/>
      <point x="579" y="0" type="line"/>
      <point x="634" y="0" type="line"/>
      <point x="634" y="571" type="line"/>
    </contour>
  </outline>
</glyph>
<glyph name="ncaron" format="1">
  <advance width="579"/>
  <unicode hex="0148"/>
  <outline>
    <contour>
      <point x="437" y="636" type="line"/>
      <point x="409" y="674" type="line"/>
      <point x="304" y="595" type="line"/>
      <point x="186" y="674" type="line"/>
      <point x="158" y="636" type="line"/>
      <point x="283" y="515" type="line"/>
      <point x="312" y="515" type="line"/>
    </contour>
    <contour>
      <point x="569" y="0" type="line"/>
      <point x="569" y="68" type="line"/>
      <point x="497" y="68" type="line"/>
      <point x="497" y="291" type="line" smooth="yes"/>
      <point x="497" y="405"/>
      <point x="429" y="456"/>
      <point x="342" y="456" type="curve" smooth="yes"/>
      <point x="273" y="456"/>
      <point x="219" y="424"/>
      <point x="190" y="371" type="curve"/>
      <point x="190" y="447" type="line"/>
      <point x="27" y="447" type="line"/>
      <point x="27" y="378" type="line"/>
      <point x="102" y="378" type="line"/>
      <point x="102" y="68" type="line"/>
      <point x="30" y="68" type="line"/>
      <point x="30" y="0" type="line"/>
      <point x="262" y="0" type="line"/>
      <point x="262" y="68" type="line"/>
      <point x="190" y="68" type="line"/>
      <point x="190" y="263" type="line"/>
      <point x="192" y="329"/>
      <point x="239" y="386"/>
      <point x="314" y="386" type="curve" smooth="yes"/>
      <point x="371" y="386"/>
      <point x="409" y="352"/>
      <point x="409" y="261" type="curve" smooth="yes"/>
      <point x="409" y="68" type="line"/>
      <point x="337" y="68" type="line"/>
      <point x="337" y="0" type="line"/>
    </contour>
  </outline>
</glyph>
<glyph name="Eng" format="1">
  <advance width="744"/>
  <unicode hex="014A"/>
  <outline>
    <contour>
      <point x="712" y="571" type="line"/>
      <point x="712" y="650" type="line"/>
      <point x="451" y="650" type="line"/>
      <point x="451" y="571" type="line"/>
      <point x="548" y="571" type="line"/>
      <point x="548" y="182" type="line"/>
      <point x="544" y="182" type="line"/>
      <point x="186" y="650" type="line"/>
      <point x="36" y="650" type="line"/>
      <point x="36" y="571" type="line"/>
      <point x="120" y="571" type="line"/>
      <point x="120" y="79" type="line"/>
      <point x="46" y="79" type="line"/>
      <point x="46" y="0" type="line"/>
      <point x="305" y="0" type="line"/>
      <point x="305" y="79" type="line"/>
      <point x="206" y="79" type="line"/>
      <point x="206" y="483" type="line"/>
      <point x="210" y="483" type="line"/>
      <point x="542" y="48" type="line"/>
      <point x="542" y="-15" type="line" smooth="yes"/>
      <point x="542" y="-73"/>
      <point x="516" y="-112"/>
      <point x="450" y="-112" type="curve" smooth="yes"/>
      <point x="409" y="-112"/>
      <point x="377" y="-97"/>
      <point x="351" y="-42" type="curve"/>
      <point x="286" y="-91" type="line"/>
      <point x="314" y="-152"/>
      <point x="365" y="-196"/>
      <point x="458" y="-196" type="curve" smooth="yes"/>
      <point x="566" y="-196"/>
      <point x="634" y="-137"/>
      <point x="634" y="-15" type="curve" smooth="yes"/>
      <point x="634" y="571" type="line"/>
    </contour>
  </outline>
</glyph>
<glyph name="eng" format="1">
  <advance width="558"/>
  <unicode hex="014B"/>
  <outline>
    <contour>
      <point x="30" y="69" type="line"/>
      <point x="102" y="69" type="line"/>
      <point x="102" y="378" type="line"/>
      <point x="27" y="378" type="line"/>
      <point x="27" y="447" type="line"/>
      <point x="190" y="447" type="line"/>
      <point x="190" y="370" type="line"/>
      <point x="219" y="423"/>
      <point x="272" y="456"/>
      <point x="342" y="456" type="curve" smooth="yes"/>
      <point x="429" y="456"/>
      <point x="497" y="405"/>
      <point x="497" y="291" type="curve" smooth="yes"/>
      <point x="497" y="-5" type="line" smooth="yes"/>
      <point x="497" y="-175"/>
      <point x="425" y="-235"/>
      <point x="295" y="-223" type="curve"/>
      <point x="293" y="-162" type="line"/>
      <point x="348" y="-162"/>
      <point x="409" y="-149"/>
      <point x="409" y="-5" type="curve" smooth="yes"/>
      <point x="409" y="261" type="line" smooth="yes"/>
      <point x="409" y="352"/>
      <point x="372" y="386"/>
      <point x="313" y="386" type="curve" smooth="yes"/>
      <point x="238" y="386"/>
      <point x="190" y="327"/>
      <point x="190" y="260" type="curve" smooth="yes"/>
      <point x="190" y="69" type="line"/>
      <point x="262" y="69" type="line"/>
      <point x="262" y="0" type="line"/>
      <point x="30" y="0" type="line"/>
    </contour>
  </outline>
</glyph>
<glyph name="Omacron" format="1">
  <advance width="723"/>
  <unicode hex="014C"/>
  <outline>
    <contour>
      <point x="516" y="729" type="line"/>
      <point x="516" y="798" type="line"/>
      <point x="229" y="798" type="line"/>
      <point x="229" y="729" type="line"/>
    </contour>
    <contour>
      <point x="689" y="325" type="curve" smooth="yes"/>
      <point x="689" y="510"/>
      <point x="561" y="660"/>
      <point x="362" y="660" type="curve" smooth="yes"/>
      <point x="166" y="660"/>
      <point x="35" y="512"/>
      <point x="35" y="325" type="curve" smooth="yes"/>
      <point x="35" y="142"/>
      <point x="159" y="-10"/>
      <point x="360" y="-10" type="curve" smooth="yes"/>
      <point x="560" y="-10"/>
      <point x="689" y="141"/>
    </contour>
    <contour>
      <point x="591" y="323" type="curve" smooth="yes"/>
      <point x="591" y="179"/>
      <point x="510" y="71"/>
      <point x="364" y="71" type="curve" smooth="yes"/>
      <point x="212" y="71"/>
      <point x="133" y="188"/>
      <point x="133" y="326" type="curve" smooth="yes"/>
      <point x="133" y="468"/>
      <point x="215" y="579"/>
      <point x="362" y="579" type="curve" smooth="yes"/>
      <point x="504" y="579"/>
      <point x="591" y="474"/>
    </contour>
  </outline>
</glyph>
<glyph name="OE" format="1">
  <advance width="998"/>
  <unicode hex="0152"/>
  <outline>
    <contour>
      <point x="941" y="0" type="line"/>
      <point x="961" y="186" type="line"/>
      <point x="882" y="193" type="line"/>
      <point x="862" y="79" type="line"/>
      <point x="618" y="79" type="line"/>
      <point x="618" y="290" type="line"/>
      <point x="914" y="290" type="line"/>
      <point x="914" y="368" type="line"/>
      <point x="618" y="368" type="line"/>
      <point x="618" y="571" type="line"/>
      <point x="853" y="571" type="line"/>
      <point x="873" y="457" type="line"/>
      <point x="953" y="464" type="line"/>
      <point x="933" y="650" type="line"/>
      <point x="527" y="650" type="line"/>
      <point x="527" y="613" type="line"/>
      <point x="482" y="642"/>
      <point x="429" y="660"/>
      <point x="363" y="660" type="curve" smooth="yes"/>
      <point x="172" y="660"/>
      <point x="34" y="512"/>
      <point x="34" y="325" type="curve" smooth="yes"/>
      <point x="34" y="142"/>
      <point x="164" y="-10"/>
      <point x="363" y="-10" type="curve" smooth="yes"/>
      <point x="430" y="-10"/>
      <point x="482" y="7"/>
      <point x="527" y="35" type="curve"/>
      <point x="527" y="0" type="line"/>
    </contour>
    <contour>
      <point x="527" y="130" type="line"/>
      <point x="492" y="93"/>
      <point x="434" y="71"/>
      <point x="368" y="71" type="curve" smooth="yes"/>
      <point x="213" y="71"/>
      <point x="132" y="193"/>
      <point x="132" y="327" type="curve" smooth="yes"/>
      <point x="132" y="468"/>
      <point x="220" y="579"/>
      <point x="366" y="579" type="curve" smooth="yes"/>
      <point x="429" y="579"/>
      <point x="484" y="558"/>
      <point x="527" y="519" type="curve"/>
    </contour>
  </outline>
</glyph>
<glyph name="Rcommaaccent" format="1">
  <advance width="622"/>
  <unicode hex="0156"/>
  <outline>
    <contour>
      <point x="386" y="-62" type="line"/>
      <point x="303" y="-62" type="line"/>
      <point x="296" y="-216" type="line"/>
      <point x="365" y="-216" type="line"/>
    </contour>
    <contour>
      <point x="613" y="0" type="line"/>
      <point x="613" y="79" type="line"/>
      <point x="532" y="79" type="line"/>
      <point x="424" y="283" type="line"/>
      <point x="510" y="308"/>
      <point x="559" y="377"/>
      <point x="559" y="462" type="curve" smooth="yes"/>
      <point x="559" y="575"/>
      <point x="487" y="650"/>
      <point x="326" y="650" type="curve" smooth="yes"/>
      <point x="41" y="650" type="line"/>
      <point x="41" y="571" type="line"/>
      <point x="120" y="571" type="line"/>
      <point x="120" y="79" type="line"/>
      <point x="41" y="79" type="line"/>
      <point x="41" y="0" type="line"/>
      <point x="293" y="0" type="line"/>
      <point x="293" y="79" type="line"/>
      <point x="211" y="79" type="line"/>
      <point x="211" y="265" type="line"/>
      <point x="335" y="265" type="line"/>
      <point x="472" y="0" type="line"/>
    </contour>
    <contour>
      <point x="462" y="460" type="curve" smooth="yes"/>
      <point x="462" y="384"/>
      <point x="422" y="339"/>
      <point x="313" y="339" type="curve" smooth="yes"/>
      <point x="211" y="339" type="line"/>
      <point x="211" y="571" type="line"/>
      <point x="312" y="571" type="line" smooth="yes"/>
      <point x="420" y="571"/>
      <point x="462" y="539"/>
    </contour>
  </outline>
</glyph>
<glyph name="Rcaron" format="1">
  <advance width="622"/>
  <unicode hex="0158"/>
  <outline>
    <contour>
      <point x="444" y="792" type="line"/>
      <point x="421" y="832" type="line"/>
      <point x="305" y="769" type="line"/>
      <point x="180" y="830" type="line"/>
      <point x="157" y="790" type="line"/>
      <point x="286" y="696" type="line"/>
      <point x="315" y="696" type="line"/>
    </contour>
    <contour>
      <point x="613" y="0" type="line"/>
      <point x="613" y="79" type="line"/>
      <point x="532" y="79" type="line"/>
      <point x="424" y="283" type="line"/>
      <point x="510" y="308"/>
      <point x="559" y="377"/>
      <point x="559" y="462" type="curve" smooth="yes"/>
      <point x="559" y="575"/>
      <point x="487" y="650"/>
      <point x="326" y="650" type="curve" smooth="yes"/>
      <point x="41" y="650" type="line"/>
      <point x="41" y="571" type="line"/>
      <point x="120" y="571" type="line"/>
      <point x="120" y="79" type="line"/>
      <point x="41" y="79" type="line"/>
      <point x="41" y="0" type="line"/>
      <point x="293" y="0" type="line"/>
      <point x="293" y="79" type="line"/>
      <point x="211" y="79" type="line"/>
      <point x="211" y="265" type="line"/>
      <point x="335" y="265" type="line"/>
      <point x="472" y="0" type="line"/>
    </contour>
    <contour>
      <point x="462" y="460" type="curve" smooth="yes"/>
      <point x="462" y="384"/>
      <point x="422" y="339"/>
      <point x="313" y="339" type="curve" smooth="yes"/>
      <point x="211" y="339" type="line"/>
      <point x="211" y="571" type="line"/>
      <point x="312" y="571" type="line" smooth="yes"/>
      <point x="420" y="571"/>
      <point x="462" y="539"/>
    </contour>
  </outline>
</glyph>
<glyph name="rcaron" format="1">
  <advance width="426"/>
  <unicode hex="0159"/>
  <outline>
    <contour>
      <point x="381" y="636" type="line"/>
      <point x="353" y="674" type="line"/>
      <point x="248" y="595" type="line"/>
      <point x="130" y="674" type="line"/>
      <point x="102" y="636" type="line"/>
      <point x="227" y="515" type="line"/>
      <point x="256" y="515" type="line"/>
    </contour>
    <contour>
      <point x="293" y="454" type="curve" smooth="yes"/>
      <point x="239" y="454"/>
      <point x="201" y="416"/>
      <point x="184" y="365" type="curve"/>
      <point x="184" y="447" type="line"/>
      <point x="27" y="447" type="line"/>
      <point x="27" y="378" type="line"/>
      <point x="102" y="378" type="line"/>
      <point x="102" y="68" type="line"/>
      <point x="30" y="68" type="line"/>
      <point x="30" y="0" type="line"/>
      <point x="286" y="0" type="line"/>
      <point x="286" y="68" type="line"/>
      <point x="190" y="68" type="line"/>
      <point x="190" y="278" type="line" smooth="yes"/>
      <point x="190" y="340"/>
      <point x="225" y="381"/>
      <point x="270" y="381" type="curve" smooth="yes"/>
      <point x="282" y="381"/>
      <point x="293" y="379"/>
      <point x="305" y="374" type="curve"/>
      <point x="322" y="297" type="line"/>
      <point x="391" y="305" type="line"/>
      <point x="373" y="430" type="line"/>
      <point x="348" y="448"/>
      <point x="322" y="454"/>
    </contour>
  </outline>
</glyph>
<glyph name="Tcommaaccent" format="1">
  <advance width="630"/>
  <unicode hex="0162"/>
  <outline>
    <contour>
      <point x="357" y="-62" type="line"/>
      <point x="274" y="-62" type="line"/>
      <point x="267" y="-216" type="line"/>
      <point x="336" y="-216" type="line"/>
    </contour>
    <contour>
      <point x="608" y="446" type="line"/>
      <point x="588" y="650" type="line"/>
      <point x="40" y="650" type="line"/>
      <point x="21" y="446" type="line"/>
      <point x="100" y="439" type="line"/>
      <point x="120" y="571" type="line"/>
      <point x="269" y="571" type="line"/>
      <point x="269" y="79" type="line"/>
      <point x="160" y="79" type="line"/>
      <point x="160" y="0" type="line"/>
      <point x="472" y="0" type="line"/>
      <point x="472" y="79" type="line"/>
      <point x="360" y="79" type="line"/>
      <point x="360" y="571" type="line"/>
      <point x="508" y="571" type="line"/>
      <point x="528" y="439" type="line"/>
    </contour>
  </outline>
</glyph>
<glyph name="Utilde" format="1">
  <advance width="718"/>
  <unicode hex="0168"/>
  <outline>
    <contour>
      <point x="513" y="804" type="curve"/>
      <point x="472" y="814" type="line"/>
      <point x="461" y="780"/>
      <point x="443" y="773"/>
      <point x="425" y="773" type="curve" smooth="yes"/>
      <point x="381" y="773"/>
      <point x="351" y="807"/>
      <point x="307" y="807" type="curve" smooth="yes"/>
      <point x="251" y="807"/>
      <point x="226" y="752"/>
      <point x="224" y="717" type="curve"/>
      <point x="262" y="703" type="line"/>
      <point x="271" y="733"/>
      <point x="289" y="741"/>
      <point x="309" y="741" type="curve" smooth="yes"/>
      <point x="350" y="741"/>
      <point x="383" y="707"/>
      <point x="433" y="707" type="curve" smooth="yes"/>
      <point x="487" y="707"/>
      <point x="506" y="749"/>
    </contour>
    <contour>
      <point x="684" y="571" type="line"/>
      <point x="684" y="650" type="line"/>
      <point x="449" y="650" type="line"/>
      <point x="449" y="571" type="line"/>
      <point x="536" y="571" type="line"/>
      <point x="536" y="267" type="line" smooth="yes"/>
      <point x="536" y="141"/>
      <point x="477" y="71"/>
      <point x="361" y="71" type="curve" smooth="yes"/>
      <point x="243" y="71"/>
      <point x="189" y="143"/>
      <point x="189" y="259" type="curve" smooth="yes"/>
      <point x="189" y="571" type="line"/>
      <point x="275" y="571" type="line"/>
      <point x="275" y="650" type="line"/>
      <point x="34" y="650" type="line"/>
      <point x="34" y="571" type="line"/>
      <point x="98" y="571" type="line"/>
      <point x="98" y="256" type="line" smooth="yes"/>
      <point x="98" y="116"/>
      <point x="162" y="-10"/>
      <point x="357" y="-10" type="curve" smooth="yes"/>
      <point x="559" y="-10"/>
      <point x="622" y="129"/>
      <point x="622" y="267" type="curve" smooth="yes"/>
      <point x="622" y="571" type="line"/>
    </contour>
  </outline>
</glyph>
<glyph name="Ubreve" format="1">
  <advance width="718"/>
  <unicode hex="016C"/>
  <outline>
    <contour>
      <point x="488" y="821" type="curve"/>
      <point x="417" y="821" type="line"/>
      <point x="417" y="776"/>
      <point x="401" y="754"/>
      <point x="360" y="754" type="curve" smooth="yes"/>
      <point x="324" y="754"/>
      <point x="305" y="773"/>
      <point x="305" y="821" type="curve"/>
      <point x="234" y="821" type="line"/>
      <point x="234" y="737"/>
      <point x="278" y="698"/>
      <point x="361" y="698" type="curve" smooth="yes"/>
      <point x="443" y="698"/>
      <point x="488" y="735"/>
    </contour>
    <contour>
      <point x="684" y="571" type="line"/>
      <point x="684" y="650" type="line"/>
      <point x="449" y="650" type="line"/>
      <point x="449" y="571" type="line"/>
      <point x="536" y="571" type="line"/>
      <point x="536" y="267" type="line" smooth="yes"/>
      <point x="536" y="141"/>
      <point x="477" y="71"/>
      <point x="361" y="71" type="curve" smooth="yes"/>
      <point x="243" y="71"/>
      <point x="189" y="143"/>
      <point x="189" y="259" type="curve" smooth="yes"/>
      <point x="189" y="571" type="line"/>
      <point x="275" y="571" type="line"/>
      <point x="275" y="650" type="line"/>
      <point x="34" y="650" type="line"/>
      <point x="34" y="571" type="line"/>
      <point x="98" y="571" type="line"/>
      <point x="98" y="256" type="line" smooth="yes"/>
      <point x="98" y="116"/>
      <point x="162" y="-10"/>
      <point x="357" y="-10" type="curve" smooth="yes"/>
      <point x="559" y="-10"/>
      <point x="622" y="129"/>
      <point x="622" y="267" type="curve" smooth="yes"/>
      <point x="622" y="571" type="line"/>
    </contour>
  </outline>
</glyph>
<glyph name="ubreve" format="1">
  <advance width="569"/>
  <unicode hex="016D"/>
  <outline>
    <contour>
      <point x="553" y="0" type="line"/>
      <point x="553" y="68" type="line"/>
      <point x="478" y="68" type="line"/>
      <point x="478" y="447" type="line"/>
      <point x="303" y="447" type="line"/>
      <point x="303" y="378" type="line"/>
      <point x="390" y="378" type="line"/>
      <point x="390" y="188" type="line"/>
      <point x="389" y="124"/>
      <point x="341" y="61"/>
      <point x="269" y="61" type="curve" smooth="yes"/>
      <point x="209" y="61"/>
      <point x="171" y="94"/>
      <point x="171" y="185" type="curve" smooth="yes"/>
      <point x="171" y="447" type="line"/>
      <point x="11" y="447" type="line"/>
      <point x="11" y="378" type="line"/>
      <point x="83" y="378" type="line"/>
      <point x="83" y="156" type="line" smooth="yes"/>
      <point x="83" y="41"/>
      <point x="152" y="-10"/>
      <point x="239" y="-10" type="curve" smooth="yes"/>
      <point x="308" y="-10"/>
      <point x="362" y="25"/>
      <point x="390" y="80" type="curve"/>
      <point x="390" y="0" type="line"/>
    </contour>
    <contour>
      <point x="394" y="654" type="curve"/>
      <point x="322" y="654" type="line"/>
      <point x="322" y="609"/>
      <point x="306" y="584"/>
      <point x="267" y="584" type="curve" smooth="yes"/>
      <point x="230" y="584"/>
      <point x="211" y="606"/>
      <point x="211" y="654" type="curve"/>
      <point x="139" y="654" type="line"/>
      <point x="139" y="570"/>
      <point x="183" y="527"/>
      <point x="265" y="527" type="curve" smooth="yes"/>
      <point x="346" y="527"/>
      <point x="394" y="568"/>
    </contour>
  </outline>
</glyph>
<glyph name="Uhungarumlaut" format="1">
  <advance width="718"/>
  <unicode hex="0170"/>
  <outline>
    <contour>
      <point x="684" y="571" type="line"/>
      <point x="684" y="650" type="line"/>
      <point x="449" y="650" type="line"/>
      <point x="449" y="571" type="line"/>
      <point x="536" y="571" type="line"/>
      <point x="536" y="267" type="line" smooth="yes"/>
      <point x="536" y="141"/>
      <point x="477" y="71"/>
      <point x="361" y="71" type="curve" smooth="yes"/>
      <point x="243" y="71"/>
      <point x="189" y="143"/>
      <point x="189" y="259" type="curve" smooth="yes"/>
      <point x="189" y="571" type="line"/>
      <point x="275" y="571" type="line"/>
      <point x="275" y="650" type="line"/>
      <point x="34" y="650" type="line"/>
      <point x="34" y="571" type="line"/>
      <point x="98" y="571" type="line"/>
      <point x="98" y="256" type="line" smooth="yes"/>
      <point x="98" y="116"/>
      <point x="162" y="-10"/>
      <point x="357" y="-10" type="curve" smooth="yes"/>
      <point x="559" y="-10"/>
      <point x="622" y="129"/>
      <point x="622" y="267" type="curve" smooth="yes"/>
      <point x="622" y="571" type="line"/>
    </contour>
    <contour>
      <point x="583" y="737" type="line"/>
      <point x="562" y="819" type="line"/>
      <point x="369" y="742" type="line"/>
      <point x="380" y="699" type="line"/>
    </contour>
    <contour>
      <point x="431" y="828" type="line"/>
      <point x="372" y="889" type="line"/>
      <point x="239" y="729" type="line"/>
      <point x="271" y="698" type="line"/>
    </contour>
  </outline>
</glyph>
<glyph name="uhungarumlaut" format="1">
  <advance width="569"/>
  <unicode hex="0171"/>
  <outline>
    <contour>
      <point x="553" y="0" type="line"/>
      <point x="553" y="68" type="line"/>
      <point x="478" y="68" type="line"/>
      <point x="478" y="447" type="line"/>
      <point x="303" y="447" type="line"/>
      <point x="303" y="378" type="line"/>
      <point x="390" y="378" type="line"/>
      <point x="390" y="188" type="line"/>
      <point x="389" y="124"/>
      <point x="341" y="61"/>
      <point x="269" y="61" type="curve" smooth="yes"/>
      <point x="209" y="61"/>
      <point x="171" y="94"/>
      <point x="171" y="185" type="curve" smooth="yes"/>
      <point x="171" y="447" type="line"/>
      <point x="11" y="447" type="line"/>
      <point x="11" y="378" type="line"/>
      <point x="83" y="378" type="line"/>
      <point x="83" y="156" type="line" smooth="yes"/>
      <point x="83" y="41"/>
      <point x="152" y="-10"/>
      <point x="239" y="-10" type="curve" smooth="yes"/>
      <point x="308" y="-10"/>
      <point x="362" y="25"/>
      <point x="390" y="80" type="curve"/>
      <point x="390" y="0" type="line"/>
    </contour>
    <contour>
      <point x="482" y="617" type="line"/>
      <point x="434" y="688" type="line"/>
      <point x="278" y="553" type="line"/>
      <point x="303" y="516" type="line"/>
    </contour>
    <contour>
      <point x="324" y="673" type="line"/>
      <point x="255" y="722" type="line"/>
      <point x="155" y="541" type="line"/>
      <point x="191" y="516" type="line"/>
    </contour>
  </outline>
</glyph>
<glyph name="Wcircumflex" format="1">
  <advance width="950"/>
  <unicode hex="0174"/>
  <outline>
    <contour>
      <point x="943" y="571" type="line"/>
      <point x="943" y="650" type="line"/>
      <point x="710" y="650" type="line"/>
      <point x="710" y="571" type="line"/>
      <point x="798" y="571" type="line"/>
      <point x="683" y="145" type="line"/>
      <point x="678" y="145" type="line"/>
      <point x="538" y="571" type="line"/>
      <point x="597" y="571" type="line"/>
      <point x="597" y="650" type="line"/>
      <point x="363" y="650" type="line"/>
      <point x="363" y="571" type="line"/>
      <point x="424" y="571" type="line"/>
      <point x="284" y="149" type="line"/>
      <point x="279" y="149" type="line"/>
      <point x="154" y="571" type="line"/>
      <point x="236" y="571" type="line"/>
      <point x="236" y="650" type="line"/>
      <point x="1" y="650" type="line"/>
      <point x="1" y="571" type="line"/>
      <point x="57" y="571" type="line"/>
      <point x="243" y="0" type="line"/>
      <point x="314" y="0" type="line"/>
      <point x="474" y="491" type="line"/>
      <point x="478" y="491" type="line"/>
      <point x="644" y="0" type="line"/>
      <point x="714" y="0" type="line"/>
      <point x="889" y="571" type="line"/>
    </contour>
    <contour>
      <point x="626" y="737" type="line"/>
      <point x="497" y="832" type="line"/>
      <point x="469" y="832" type="line"/>
      <point x="339" y="735" type="line"/>
      <point x="362" y="696" type="line"/>
      <point x="479" y="758" type="line"/>
      <point x="604" y="697" type="line"/>
    </contour>
  </outline>
</glyph>
<glyph name="wcircumflex" format="1">
  <advance width="764"/>
  <unicode hex="0175"/>
  <outline>
    <contour>
      <point x="529" y="554" type="line"/>
      <point x="404" y="674" type="line"/>
      <point x="375" y="674" type="line"/>
      <point x="250" y="553" type="line"/>
      <point x="278" y="515" type="line"/>
      <point x="382" y="595" type="line"/>
      <point x="501" y="516" type="line"/>
    </contour>
    <contour>
      <point x="755" y="378" type="line"/>
      <point x="755" y="447" type="line"/>
      <point x="550" y="447" type="line"/>
      <point x="550" y="378" type="line"/>
      <point x="625" y="378" type="line"/>
      <point x="556" y="129" type="line"/>
      <point x="550" y="129" type="line"/>
      <point x="416" y="447" type="line"/>
      <point x="360" y="447" type="line"/>
      <point x="236" y="128" type="line"/>
      <point x="231" y="128" type="line"/>
      <point x="149" y="378" type="line"/>
      <point x="227" y="378" type="line"/>
      <point x="227" y="447" type="line"/>
      <point x="9" y="447" type="line"/>
      <point x="9" y="378" type="line"/>
      <point x="55" y="378" type="line"/>
      <point x="188" y="0" type="line"/>
      <point x="251" y="0" type="line"/>
      <point x="377" y="319" type="line"/>
      <point x="382" y="319" type="line"/>
      <point x="512" y="0" type="line"/>
      <point x="578" y="0" type="line"/>
      <point x="707" y="378" type="line"/>
    </contour>
  </outline>
</glyph>
<glyph name="ycircumflex" format="1">
  <advance width="516"/>
  <unicode hex="0177"/>
  <outline>
    <contour>
      <point x="508" y="378" type="line"/>
      <point x="508" y="447" type="line"/>
      <point x="309" y="447" type="line"/>
      <point x="309" y="378" type="line"/>
      <point x="372" y="378" type="line"/>
      <point x="273" y="106" type="line"/>
      <point x="267" y="106" type="line"/>
      <point x="152" y="378" type="line"/>
      <point x="220" y="378" type="line"/>
      <point x="220" y="447" type="line"/>
      <point x="7" y="447" type="line"/>
      <point x="7" y="378" type="line"/>
      <point x="58" y="378" type="line"/>
      <point x="219" y="-1" type="line"/>
      <point x="167" y="-143" type="line"/>
      <point x="88" y="-143" type="line"/>
      <point x="88" y="-213" type="line"/>
      <point x="320" y="-213" type="line"/>
      <point x="320" y="-143" type="line"/>
      <point x="249" y="-143" type="line"/>
      <point x="304" y="0" type="line"/>
      <point x="458" y="378" type="line"/>
    </contour>
    <contour>
      <point x="408" y="554" type="line"/>
      <point x="283" y="674" type="line"/>
      <point x="254" y="674" type="line"/>
      <point x="129" y="553" type="line"/>
      <point x="157" y="515" type="line"/>
      <point x="261" y="595" type="line"/>
      <point x="380" y="516" type="line"/>
    </contour>
  </outline>
</glyph>
<glyph name="Zacute" format="1">
  <advance width="581"/>
  <unicode hex="0179"/>
  <outline>
    <contour>
      <point x="524" y="0" type="line"/>
      <point x="549" y="202" type="line"/>
      <point x="471" y="212" type="line"/>
      <point x="445" y="79" type="line"/>
      <point x="158" y="79" type="line"/>
      <point x="158" y="81" type="line"/>
      <point x="529" y="604" type="line"/>
      <point x="527" y="650" type="line"/>
      <point x="68" y="650" type="line"/>
      <point x="44" y="457" type="line"/>
      <point x="121" y="448" type="line"/>
      <point x="147" y="571" type="line"/>
      <point x="397" y="571" type="line"/>
      <point x="397" y="569" type="line"/>
      <point x="29" y="51" type="line"/>
      <point x="31" y="0" type="line"/>
    </contour>
    <contour>
      <point x="442" y="737" type="line"/>
      <point x="422" y="819" type="line"/>
      <point x="227" y="742" type="line"/>
      <point x="240" y="699" type="line"/>
    </contour>
  </outline>
</glyph>
<glyph name="zacute" format="1">
  <advance width="468"/>
  <unicode hex="017A"/>
  <outline>
    <contour>
      <point x="381" y="617" type="line"/>
      <point x="333" y="688" type="line"/>
      <point x="177" y="553" type="line"/>
      <point x="202" y="516" type="line"/>
    </contour>
    <contour>
      <point x="418" y="0" type="line"/>
      <point x="443" y="144" type="line"/>
      <point x="373" y="153" type="line"/>
      <point x="351" y="68" type="line"/>
      <point x="146" y="68" type="line"/>
      <point x="418" y="397" type="line"/>
      <point x="413" y="447" type="line"/>
      <point x="44" y="447" type="line"/>
      <point x="31" y="302" type="line"/>
      <point x="98" y="295" type="line"/>
      <point x="113" y="378" type="line"/>
      <point x="301" y="378" type="line"/>
      <point x="32" y="50" type="line"/>
      <point x="38" y="0" type="line"/>
    </contour>
  </outline>
</glyph>
<glyph name="zdotaccent" format="1">
  <advance width="468"/>
  <unicode hex="017C"/>
  <outline>
    <contour>
      <point x="418" y="0" type="line"/>
      <point x="443" y="144" type="line"/>
      <point x="373" y="153" type="line"/>
      <point x="351" y="68" type="line"/>
      <point x="146" y="68" type="line"/>
      <point x="418" y="397" type="line"/>
      <point x="413" y="447" type="line"/>
      <point x="44" y="447" type="line"/>
      <point x="31" y="302" type="line"/>
      <point x="98" y="295" type="line"/>
      <point x="113" y="378" type="line"/>
      <point x="301" y="378" type="line"/>
      <point x="32" y="50" type="line"/>
      <point x="38" y="0" type="line"/>
    </contour>
    <contour>
      <point x="191" y="547" type="line"/>
      <point x="283" y="547" type="line"/>
      <point x="283" y="650" type="line"/>
      <point x="191" y="650" type="line"/>
    </contour>
  </outline>
</glyph>
<glyph name="zcaron" format="1">
  <advance width="468"/>
  <unicode hex="017E"/>
  <outline>
    <contour>
      <point x="379" y="636" type="line"/>
      <point x="351" y="674" type="line"/>
      <point x="246" y="595" type="line"/>
      <point x="128" y="674" type="line"/>
      <point x="100" y="636" type="line"/>
      <point x="225" y="515" type="line"/>
      <point x="254" y="515" type="line"/>
    </contour>
    <contour>
      <point x="418" y="0" type="line"/>
      <point x="443" y="144" type="line"/>
      <point x="373" y="153" type="line"/>
      <point x="351" y="68" type="line"/>
      <point x="146" y="68" type="line"/>
      <point x="418" y="397" type="line"/>
      <point x="413" y="447" type="line"/>
      <point x="44" y="447" type="line"/>
      <point x="31" y="302" type="line"/>
      <point x="98" y="295" type="line"/>
      <point x="113" y="378" type="line"/>
      <point x="301" y="378" type="line"/>
      <point x="32" y="50" type="line"/>
      <point x="38" y="0" type="line"/>
    </contour>
  </outline>
</glyph>
<glyph name="uni018F" format="1">
  <advance width="685"/>
  <unicode hex="018F"/>
  <outline>
    <contour>
      <point x="130" y="436" type="line"/>
      <point x="144" y="534" type="line"/>
      <point x="196" y="562"/>
      <point x="260" y="578"/>
      <point x="325" y="578" type="curve" smooth="yes"/>
      <point x="456" y="578"/>
      <point x="537" y="497"/>
      <point x="550" y="352" type="curve"/>
      <point x="40" y="352" type="line"/>
      <point x="40" y="279" type="line" smooth="yes"/>
      <point x="40" y="100"/>
      <point x="155" y="-10"/>
      <point x="335" y="-10" type="curve" smooth="yes"/>
      <point x="547" y="-10"/>
      <point x="649" y="144"/>
      <point x="649" y="325" type="curve" smooth="yes"/>
      <point x="649" y="512"/>
      <point x="546" y="660"/>
      <point x="327" y="660" type="curve" smooth="yes"/>
      <point x="223" y="660"/>
      <point x="139" y="631"/>
      <point x="71" y="590" type="curve"/>
      <point x="58" y="444" type="line"/>
    </contour>
    <contour>
      <point x="551" y="285" type="line"/>
      <point x="543" y="169"/>
      <point x="486" y="71"/>
      <point x="339" y="71" type="curve" smooth="yes"/>
      <point x="181" y="71"/>
      <point x="139" y="183"/>
      <point x="139" y="279" type="curve" smooth="yes"/>
      <point x="139" y="285" type="line"/>
    </contour>
  </outline>
</glyph>
<glyph name="uni01C4" format="1">
  <advance width="1283"/>
  <unicode hex="01C4"/>
  <outline>
    <contour>
      <point x="1141" y="792" type="line"/>
      <point x="1118" y="832" type="line"/>
      <point x="1002" y="769" type="line"/>
      <point x="877" y="830" type="line"/>
      <point x="854" y="790" type="line"/>
      <point x="983" y="696" type="line"/>
      <point x="1012" y="696" type="line"/>
    </contour>
    <contour>
      <point x="1226" y="0" type="line"/>
      <point x="1251" y="202" type="line"/>
      <point x="1173" y="212" type="line"/>
      <point x="1147" y="79" type="line"/>
      <point x="860" y="79" type="line"/>
      <point x="860" y="81" type="line"/>
      <point x="1231" y="604" type="line"/>
      <point x="1229" y="650" type="line"/>
      <point x="770" y="650" type="line"/>
      <point x="746" y="457" type="line"/>
      <point x="823" y="448" type="line"/>
      <point x="849" y="571" type="line"/>
      <point x="1099" y="571" type="line"/>
      <point x="1099" y="569" type="line"/>
      <point x="731" y="51" type="line"/>
      <point x="733" y="0" type="line"/>
    </contour>
    <contour>
      <point x="667" y="326" type="curve" smooth="yes"/>
      <point x="667" y="516"/>
      <point x="549" y="650"/>
      <point x="334" y="650" type="curve" smooth="yes"/>
      <point x="41" y="650" type="line"/>
      <point x="41" y="572" type="line"/>
      <point x="120" y="572" type="line"/>
      <point x="120" y="78" type="line"/>
      <point x="41" y="78" type="line"/>
      <point x="41" y="0" type="line"/>
      <point x="339" y="0" type="line" smooth="yes"/>
      <point x="544" y="0"/>
      <point x="667" y="133"/>
    </contour>
    <contour>
      <point x="570" y="325" type="curve" smooth="yes"/>
      <point x="570" y="168"/>
      <point x="486" y="78"/>
      <point x="332" y="78" type="curve" smooth="yes"/>
      <point x="211" y="78" type="line"/>
      <point x="211" y="572" type="line"/>
      <point x="332" y="572" type="line" smooth="yes"/>
      <point x="487" y="572"/>
      <point x="570" y="479"/>
    </contour>
  </outline>
</glyph>
<glyph name="uni01C5" format="1">
  <advance width="1171"/>
  <unicode hex="01C5"/>
  <outline>
    <contour>
      <point x="1083" y="636" type="line"/>
      <point x="1055" y="674" type="line"/>
      <point x="950" y="595" type="line"/>
      <point x="832" y="674" type="line"/>
      <point x="804" y="636" type="line"/>
      <point x="929" y="515" type="line"/>
      <point x="958" y="515" type="line"/>
    </contour>
    <contour>
      <point x="1120" y="0" type="line"/>
      <point x="1145" y="144" type="line"/>
      <point x="1075" y="153" type="line"/>
      <point x="1053" y="68" type="line"/>
      <point x="848" y="68" type="line"/>
      <point x="1120" y="397" type="line"/>
      <point x="1115" y="447" type="line"/>
      <point x="746" y="447" type="line"/>
      <point x="733" y="302" type="line"/>
      <point x="800" y="295" type="line"/>
      <point x="815" y="378" type="line"/>
      <point x="1003" y="378" type="line"/>
      <point x="734" y="50" type="line"/>
      <point x="740" y="0" type="line"/>
    </contour>
    <contour>
      <point x="667" y="326" type="curve" smooth="yes"/>
      <point x="667" y="516"/>
      <point x="549" y="650"/>
      <point x="334" y="650" type="curve" smooth="yes"/>
      <point x="41" y="650" type="line"/>
      <point x="41" y="572" type="line"/>
      <point x="120" y="572" type="line"/>
      <point x="120" y="78" type="line"/>
      <point x="41" y="78" type="line"/>
      <point x="41" y="0" type="line"/>
      <point x="339" y="0" type="line" smooth="yes"/>
      <point x="544" y="0"/>
      <point x="667" y="133"/>
    </contour>
    <contour>
      <point x="570" y="325" type="curve" smooth="yes"/>
      <point x="570" y="168"/>
      <point x="486" y="78"/>
      <point x="332" y="78" type="curve" smooth="yes"/>
      <point x="211" y="78" type="line"/>
      <point x="211" y="572" type="line"/>
      <point x="332" y="572" type="line" smooth="yes"/>
      <point x="487" y="572"/>
      <point x="570" y="479"/>
    </contour>
  </outline>
</glyph>
<glyph name="uni01C8" format="1">
  <advance width="788"/>
  <unicode hex="01C8"/>
  <outline>
    <contour>
      <point x="720" y="-5" type="curve" smooth="yes"/>
      <point x="720" y="447" type="line"/>
      <point x="542" y="447" type="line"/>
      <point x="542" y="378" type="line"/>
      <point x="632" y="378" type="line"/>
      <point x="632" y="-5" type="line" smooth="yes"/>
      <point x="632" y="-149"/>
      <point x="571" y="-161"/>
      <point x="516" y="-161" type="curve"/>
      <point x="519" y="-223" type="line"/>
      <point x="648" y="-235"/>
      <point x="720" y="-175"/>
    </contour>
    <contour>
      <point x="628" y="552" type="line"/>
      <point x="720" y="552" type="line"/>
      <point x="720" y="655" type="line"/>
      <point x="628" y="655" type="line"/>
    </contour>
    <contour>
      <point x="516" y="0" type="line"/>
      <point x="536" y="214" type="line"/>
      <point x="457" y="221" type="line"/>
      <point x="437" y="79" type="line"/>
      <point x="211" y="79" type="line"/>
      <point x="211" y="571" type="line"/>
      <point x="314" y="571" type="line"/>
      <point x="314" y="650" type="line"/>
      <point x="41" y="650" type="line"/>
      <point x="41" y="571" type="line"/>
      <point x="120" y="571" type="line"/>
      <point x="120" y="79" type="line"/>
      <point x="41" y="79" type="line"/>
      <point x="41" y="0" type="line"/>
    </contour>
  </outline>
</glyph>
<glyph name="uni01C9" format="1">
  <advance width="527"/>
  <unicode hex="01C9"/>
  <outline>
    <contour>
      <point x="459" y="-5" type="curve" smooth="yes"/>
      <point x="459" y="447" type="line"/>
      <point x="281" y="447" type="line"/>
      <point x="281" y="378" type="line"/>
      <point x="371" y="378" type="line"/>
      <point x="371" y="-5" type="line" smooth="yes"/>
      <point x="371" y="-149"/>
      <point x="310" y="-161"/>
      <point x="255" y="-161" type="curve"/>
      <point x="258" y="-223" type="line"/>
      <point x="387" y="-235"/>
      <point x="459" y="-175"/>
    </contour>
    <contour>
      <point x="367" y="552" type="line"/>
      <point x="459" y="552" type="line"/>
      <point x="459" y="655" type="line"/>
      <point x="367" y="655" type="line"/>
    </contour>
    <contour>
      <point x="252" y="0" type="line"/>
      <point x="252" y="68" type="line"/>
      <point x="180" y="68" type="line"/>
      <point x="180" y="688" type="line"/>
      <point x="17" y="688" type="line"/>
      <point x="17" y="619" type="line"/>
      <point x="92" y="619" type="line"/>
      <point x="92" y="68" type="line"/>
      <point x="20" y="68" type="line"/>
      <point x="20" y="0" type="line"/>
    </contour>
  </outline>
</glyph>
<glyph name="uni01CB" format="1">
  <advance width="983"/>
  <unicode hex="01CB"/>
  <outline>
    <contour>
      <point x="915" y="-5" type="curve" smooth="yes"/>
      <point x="915" y="447" type="line"/>
      <point x="737" y="447" type="line"/>
      <point x="737" y="378" type="line"/>
      <point x="827" y="378" type="line"/>
      <point x="827" y="-5" type="line" smooth="yes"/>
      <point x="827" y="-149"/>
      <point x="766" y="-161"/>
      <point x="711" y="-161" type="curve"/>
      <point x="714" y="-223" type="line"/>
      <point x="843" y="-235"/>
      <point x="915" y="-175"/>
    </contour>
    <contour>
      <point x="823" y="552" type="line"/>
      <point x="915" y="552" type="line"/>
      <point x="915" y="655" type="line"/>
      <point x="823" y="655" type="line"/>
    </contour>
    <contour>
      <point x="712" y="571" type="line"/>
      <point x="712" y="650" type="line"/>
      <point x="451" y="650" type="line"/>
      <point x="451" y="571" type="line"/>
      <point x="548" y="571" type="line"/>
      <point x="548" y="182" type="line"/>
      <point x="544" y="182" type="line"/>
      <point x="186" y="650" type="line"/>
      <point x="36" y="650" type="line"/>
      <point x="36" y="571" type="line"/>
      <point x="120" y="571" type="line"/>
      <point x="120" y="79" type="line"/>
      <point x="46" y="79" type="line"/>
      <point x="46" y="0" type="line"/>
      <point x="305" y="0" type="line"/>
      <point x="305" y="79" type="line"/>
      <point x="206" y="79" type="line"/>
      <point x="206" y="483" type="line"/>
      <point x="210" y="483" type="line"/>
      <point x="579" y="0" type="line"/>
      <point x="634" y="0" type="line"/>
      <point x="634" y="571" type="line"/>
    </contour>
  </outline>
</glyph>
<glyph name="uni01CC" format="1">
  <advance width="833"/>
  <unicode hex="01CC"/>
  <outline>
    <contour>
      <point x="764" y="-5" type="curve" smooth="yes"/>
      <point x="764" y="447" type="line"/>
      <point x="586" y="447" type="line"/>
      <point x="586" y="378" type="line"/>
      <point x="676" y="378" type="line"/>
      <point x="676" y="-5" type="line" smooth="yes"/>
      <point x="676" y="-149"/>
      <point x="615" y="-161"/>
      <point x="560" y="-161" type="curve"/>
      <point x="563" y="-223" type="line"/>
      <point x="692" y="-235"/>
      <point x="764" y="-175"/>
    </contour>
    <contour>
      <point x="672" y="552" type="line"/>
      <point x="764" y="552" type="line"/>
      <point x="764" y="655" type="line"/>
      <point x="672" y="655" type="line"/>
    </contour>
    <contour>
      <point x="569" y="0" type="line"/>
      <point x="569" y="68" type="line"/>
      <point x="497" y="68" type="line"/>
      <point x="497" y="291" type="line" smooth="yes"/>
      <point x="497" y="405"/>
      <point x="429" y="456"/>
      <point x="342" y="456" type="curve" smooth="yes"/>
      <point x="273" y="456"/>
      <point x="219" y="424"/>
      <point x="190" y="371" type="curve"/>
      <point x="190" y="447" type="line"/>
      <point x="27" y="447" type="line"/>
      <point x="27" y="378" type="line"/>
      <point x="102" y="378" type="line"/>
      <point x="102" y="68" type="line"/>
      <point x="30" y="68" type="line"/>
      <point x="30" y="0" type="line"/>
      <point x="262" y="0" type="line"/>
      <point x="262" y="68" type="line"/>
      <point x="190" y="68" type="line"/>
      <point x="190" y="263" type="line"/>
      <point x="192" y="329"/>
      <point x="239" y="386"/>
      <point x="314" y="386" type="curve" smooth="yes"/>
      <point x="371" y="386"/>
      <point x="409" y="352"/>
      <point x="409" y="261" type="curve" smooth="yes"/>
      <point x="409" y="68" type="line"/>
      <point x="337" y="68" type="line"/>
      <point x="337" y="0" type="line"/>
    </contour>
  </outline>
</glyph>
<glyph name="uni01D3" format="1">
  <advance width="718"/>
  <unicode hex="01D3"/>
  <outline>
    <contour>
      <point x="506" y="792" type="line"/>
      <point x="483" y="832" type="line"/>
      <point x="367" y="769" type="line"/>
      <point x="242" y="830" type="line"/>
      <point x="219" y="790" type="line"/>
      <point x="348" y="696" type="line"/>
      <point x="377" y="696" type="line"/>
    </contour>
    <contour>
      <point x="684" y="571" type="line"/>
      <point x="684" y="650" type="line"/>
      <point x="449" y="650" type="line"/>
      <point x="449" y="571" type="line"/>
      <point x="536" y="571" type="line"/>
      <point x="536" y="267" type="line" smooth="yes"/>
      <point x="536" y="141"/>
      <point x="477" y="71"/>
      <point x="361" y="71" type="curve" smooth="yes"/>
      <point x="243" y="71"/>
      <point x="189" y="143"/>
      <point x="189" y="259" type="curve" smooth="yes"/>
      <point x="189" y="571" type="line"/>
      <point x="275" y="571" type="line"/>
      <point x="275" y="650" type="line"/>
      <point x="34" y="650" type="line"/>
      <point x="34" y="571" type="line"/>
      <point x="98" y="571" type="line"/>
      <point x="98" y="256" type="line" smooth="yes"/>
      <point x="98" y="116"/>
      <point x="162" y="-10"/>
      <point x="357" y="-10" type="curve" smooth="yes"/>
      <point x="559" y="-10"/>
      <point x="622" y="129"/>
      <point x="622" y="267" type="curve" smooth="yes"/>
      <point x="622" y="571" type="line"/>
    </contour>
  </outline>
</glyph>
<glyph name="uni01D4" format="1">
  <advance width="569"/>
  <unicode hex="01D4"/>
  <outline>
    <contour>
      <point x="410" y="637" type="line"/>
      <point x="382" y="675" type="line"/>
      <point x="277" y="596" type="line"/>
      <point x="159" y="675" type="line"/>
      <point x="131" y="637" type="line"/>
      <point x="256" y="516" type="line"/>
      <point x="285" y="516" type="line"/>
    </contour>
    <contour>
      <point x="553" y="0" type="line"/>
      <point x="553" y="68" type="line"/>
      <point x="478" y="68" type="line"/>
      <point x="478" y="447" type="line"/>
      <point x="303" y="447" type="line"/>
      <point x="303" y="378" type="line"/>
      <point x="390" y="378" type="line"/>
      <point x="390" y="188" type="line"/>
      <point x="389" y="124"/>
      <point x="341" y="61"/>
      <point x="269" y="61" type="curve" smooth="yes"/>
      <point x="209" y="61"/>
      <point x="171" y="94"/>
      <point x="171" y="185" type="curve" smooth="yes"/>
      <point x="171" y="447" type="line"/>
      <point x="11" y="447" type="line"/>
      <point x="11" y="378" type="line"/>
      <point x="83" y="378" type="line"/>
      <point x="83" y="156" type="line" smooth="yes"/>
      <point x="83" y="41"/>
      <point x="152" y="-10"/>
      <point x="239" y="-10" type="curve" smooth="yes"/>
      <point x="308" y="-10"/>
      <point x="362" y="25"/>
      <point x="390" y="80" type="curve"/>
      <point x="390" y="0" type="line"/>
    </contour>
  </outline>
</glyph>
<glyph name="uni01F1" format="1">
  <advance width="1280"/>
  <unicode hex="01F1"/>
  <outline>
    <contour>
      <point x="1223" y="0" type="line"/>
      <point x="1248" y="202" type="line"/>
      <point x="1170" y="212" type="line"/>
      <point x="1144" y="79" type="line"/>
      <point x="857" y="79" type="line"/>
      <point x="857" y="81" type="line"/>
      <point x="1228" y="604" type="line"/>
      <point x="1226" y="650" type="line"/>
      <point x="767" y="650" type="line"/>
      <point x="743" y="457" type="line"/>
      <point x="820" y="448" type="line"/>
      <point x="846" y="571" type="line"/>
      <point x="1096" y="571" type="line"/>
      <point x="1096" y="569" type="line"/>
      <point x="728" y="51" type="line"/>
      <point x="730" y="0" type="line"/>
    </contour>
    <contour>
      <point x="667" y="326" type="curve" smooth="yes"/>
      <point x="667" y="516"/>
      <point x="549" y="650"/>
      <point x="334" y="650" type="curve" smooth="yes"/>
      <point x="41" y="650" type="line"/>
      <point x="41" y="572" type="line"/>
      <point x="120" y="572" type="line"/>
      <point x="120" y="78" type="line"/>
      <point x="41" y="78" type="line"/>
      <point x="41" y="0" type="line"/>
      <point x="339" y="0" type="line" smooth="yes"/>
      <point x="544" y="0"/>
      <point x="667" y="133"/>
    </contour>
    <contour>
      <point x="570" y="325" type="curve" smooth="yes"/>
      <point x="570" y="168"/>
      <point x="486" y="78"/>
      <point x="332" y="78" type="curve" smooth="yes"/>
      <point x="211" y="78" type="line"/>
      <point x="211" y="572" type="line"/>
      <point x="332" y="572" type="line" smooth="yes"/>
      <point x="487" y="572"/>
      <point x="570" y="479"/>
    </contour>
  </outline>
</glyph>
<glyph name="uni01F2" format="1">
  <advance width="1171"/>
  <unicode hex="01F2"/>
  <outline>
    <contour>
      <point x="1120" y="0" type="line"/>
      <point x="1145" y="144" type="line"/>
      <point x="1075" y="153" type="line"/>
      <point x="1053" y="68" type="line"/>
      <point x="848" y="68" type="line"/>
      <point x="1120" y="397" type="line"/>
      <point x="1115" y="447" type="line"/>
      <point x="746" y="447" type="line"/>
      <point x="733" y="302" type="line"/>
      <point x="800" y="295" type="line"/>
      <point x="815" y="378" type="line"/>
      <point x="1003" y="378" type="line"/>
      <point x="734" y="50" type="line"/>
      <point x="740" y="0" type="line"/>
    </contour>
    <contour>
      <point x="667" y="326" type="curve" smooth="yes"/>
      <point x="667" y="516"/>
      <point x="549" y="650"/>
      <point x="334" y="650" type="curve" smooth="yes"/>
      <point x="41" y="650" type="line"/>
      <point x="41" y="572" type="line"/>
      <point x="120" y="572" type="line"/>
      <point x="120" y="78" type="line"/>
      <point x="41" y="78" type="line"/>
      <point x="41" y="0" type="line"/>
      <point x="339" y="0" type="line" smooth="yes"/>
      <point x="544" y="0"/>
      <point x="667" y="133"/>
    </contour>
    <contour>
      <point x="570" y="325" type="curve" smooth="yes"/>
      <point x="570" y="168"/>
      <point x="486" y="78"/>
      <point x="332" y="78" type="curve" smooth="yes"/>
      <point x="211" y="78" type="line"/>
      <point x="211" y="572" type="line"/>
      <point x="332" y="572" type="line" smooth="yes"/>
      <point x="487" y="572"/>
      <point x="570" y="479"/>
    </contour>
  </outline>
</glyph>
<glyph name="uni01F3" format="1">
  <advance width="1023"/>
  <unicode hex="01F3"/>
  <outline>
    <contour>
      <point x="973" y="0" type="line"/>
      <point x="998" y="144" type="line"/>
      <point x="928" y="153" type="line"/>
      <point x="906" y="68" type="line"/>
      <point x="701" y="68" type="line"/>
      <point x="973" y="397" type="line"/>
      <point x="968" y="447" type="line"/>
      <point x="599" y="447" type="line"/>
      <point x="586" y="302" type="line"/>
      <point x="653" y="295" type="line"/>
      <point x="668" y="378" type="line"/>
      <point x="856" y="378" type="line"/>
      <point x="587" y="50" type="line"/>
      <point x="593" y="0" type="line"/>
    </contour>
    <contour>
      <point x="541" y="0" type="line"/>
      <point x="541" y="68" type="line"/>
      <point x="469" y="68" type="line"/>
      <point x="469" y="688" type="line"/>
      <point x="279" y="688" type="line"/>
      <point x="279" y="619" type="line"/>
      <point x="382" y="619" type="line"/>
      <point x="382" y="376" type="line"/>
      <point x="354" y="426"/>
      <point x="302" y="456"/>
      <point x="234" y="456" type="curve" smooth="yes"/>
      <point x="92" y="456"/>
      <point x="33" y="336"/>
      <point x="33" y="213" type="curve" smooth="yes"/>
      <point x="33" y="74"/>
      <point x="108" y="-10"/>
      <point x="224" y="-10" type="curve" smooth="yes"/>
      <point x="306" y="-10"/>
      <point x="354" y="35"/>
      <point x="382" y="88" type="curve"/>
      <point x="382" y="0" type="line"/>
    </contour>
    <contour>
      <point x="382" y="206" type="line"/>
      <point x="380" y="139"/>
      <point x="326" y="62"/>
      <point x="250" y="62" type="curve" smooth="yes"/>
      <point x="179" y="62"/>
      <point x="125" y="117"/>
      <point x="125" y="218" type="curve" smooth="yes"/>
      <point x="125" y="312"/>
      <point x="171" y="384"/>
      <point x="257" y="384" type="curve" smooth="yes"/>
      <point x="325" y="384"/>
      <point x="380" y="334"/>
      <point x="382" y="260" type="curve"/>
    </contour>
  </outline>
</glyph>
<glyph name="AEacute" format="1">
  <advance width="923"/>
  <unicode hex="01FC"/>
  <outline>
    <contour>
      <point x="812" y="737" type="line"/>
      <point x="792" y="819" type="line"/>
      <point x="597" y="742" type="line"/>
      <point x="610" y="699" type="line"/>
    </contour>
    <contour>
      <point x="862" y="0" type="line"/>
      <point x="881" y="186" type="line"/>
      <point x="803" y="193" type="line"/>
      <point x="783" y="79" type="line"/>
      <point x="544" y="79" type="line"/>
      <point x="544" y="290" type="line"/>
      <point x="841" y="290" type="line"/>
      <point x="841" y="368" type="line"/>
      <point x="544" y="368" type="line"/>
      <point x="544" y="571" type="line"/>
      <point x="775" y="571" type="line"/>
      <point x="795" y="457" type="line"/>
      <point x="873" y="465" type="line"/>
      <point x="854" y="650" type="line"/>
      <point x="214" y="650" type="line"/>
      <point x="214" y="571" type="line"/>
      <point x="307" y="571" type="line"/>
      <point x="61" y="79" type="line"/>
      <point x="-4" y="79" type="line"/>
      <point x="-4" y="0" type="line"/>
      <point x="233" y="0" type="line"/>
      <point x="233" y="79" type="line"/>
      <point x="153" y="79" type="line"/>
      <point x="206" y="187" type="line"/>
      <point x="453" y="187" type="line"/>
      <point x="453" y="79" type="line"/>
      <point x="375" y="79" type="line"/>
      <point x="375" y="0" type="line"/>
    </contour>
    <contour>
      <point x="453" y="255" type="line"/>
      <point x="238" y="255" type="line"/>
      <point x="392" y="571" type="line"/>
      <point x="453" y="571" type="line"/>
    </contour>
  </outline>
</glyph>
<glyph name="Scommaaccent" format="1">
  <advance width="540"/>
  <unicode hex="0218"/>
  <outline>
    <contour>
      <point x="331" y="-62" type="line"/>
      <point x="248" y="-62" type="line"/>
      <point x="241" y="-216" type="line"/>
      <point x="310" y="-216" type="line"/>
    </contour>
    <contour>
      <point x="500" y="186" type="curve" smooth="yes"/>
      <point x="500" y="340"/>
      <point x="367" y="360"/>
      <point x="282" y="379" type="curve" smooth="yes"/>
      <point x="214" y="395"/>
      <point x="147" y="412"/>
      <point x="147" y="485" type="curve" smooth="yes"/>
      <point x="147" y="548"/>
      <point x="197" y="580"/>
      <point x="271" y="580" type="curve" smooth="yes"/>
      <point x="307" y="580"/>
      <point x="348" y="574"/>
      <point x="387" y="552" type="curve"/>
      <point x="398" y="461" type="line"/>
      <point x="471" y="468" type="line"/>
      <point x="465" y="601" type="line"/>
      <point x="423" y="636"/>
      <point x="341" y="660"/>
      <point x="265" y="660" type="curve" smooth="yes"/>
      <point x="151" y="660"/>
      <point x="50" y="604"/>
      <point x="50" y="475" type="curve" smooth="yes"/>
      <point x="50" y="343"/>
      <point x="156" y="319"/>
      <point x="249" y="300" type="curve" smooth="yes"/>
      <point x="327" y="284"/>
      <point x="403" y="268"/>
      <point x="403" y="177" type="curve" smooth="yes"/>
      <point x="403" y="95"/>
      <point x="338" y="69"/>
      <point x="256" y="69" type="curve" smooth="yes"/>
      <point x="216" y="69"/>
      <point x="176" y="74"/>
      <point x="132" y="97" type="curve"/>
      <point x="134" y="178" type="line"/>
      <point x="61" y="185" type="line"/>
      <point x="46" y="47" type="line"/>
      <point x="91" y="12"/>
      <point x="175" y="-10"/>
      <point x="261" y="-10" type="curve" smooth="yes"/>
      <point x="402" y="-10"/>
      <point x="500" y="59"/>
    </contour>
  </outline>
</glyph>
<glyph name="dotlessj" format="1">
  <advance width="255"/>
  <unicode hex="0237"/>
  <outline>
    <contour>
      <point x="9" y="447" type="line"/>
      <point x="187" y="447" type="line"/>
      <point x="187" y="-5" type="line" smooth="yes"/>
      <point x="187" y="-175"/>
      <point x="115" y="-235"/>
      <point x="-14" y="-223" type="curve"/>
      <point x="-17" y="-162" type="line"/>
      <point x="38" y="-162"/>
      <point x="99" y="-149"/>
      <point x="99" y="-5" type="curve" smooth="yes"/>
      <point x="99" y="378" type="line"/>
      <point x="9" y="378" type="line"/>
    </contour>
  </outline>
</glyph>
<glyph name="circumflex" format="1">
  <advance width="338"/>
  <unicode hex="02C6"/>
  <outline>
    <contour>
      <point x="333" y="554" type="line"/>
      <point x="208" y="674" type="line"/>
      <point x="179" y="674" type="line"/>
      <point x="54" y="553" type="line"/>
      <point x="82" y="515" type="line"/>
      <point x="186" y="595" type="line"/>
      <point x="305" y="516" type="line"/>
    </contour>
  </outline>
</glyph>
<glyph name="breve" format="1">
  <advance width="399"/>
  <unicode hex="02D8"/>
  <outline>
    <contour>
      <point x="325" y="654" type="curve"/>
      <point x="253" y="654" type="line"/>
      <point x="253" y="609"/>
      <point x="237" y="584"/>
      <point x="198" y="584" type="curve" smooth="yes"/>
      <point x="161" y="584"/>
      <point x="142" y="606"/>
      <point x="142" y="654" type="curve"/>
      <point x="70" y="654" type="line"/>
      <point x="70" y="570"/>
      <point x="114" y="527"/>
      <point x="196" y="527" type="curve" smooth="yes"/>
      <point x="277" y="527"/>
      <point x="325" y="568"/>
    </contour>
  </outline>
</glyph>
<glyph name="dotaccent" format="1">
  <advance width="215"/>
  <unicode hex="02D9"/>
  <outline>
    <contour>
      <point x="57" y="547" type="line"/>
      <point x="149" y="547" type="line"/>
      <point x="149" y="650" type="line"/>
      <point x="57" y="650" type="line"/>
    </contour>
  </outline>
</glyph>
<glyph name="tilde" format="1">
  <advance width="374"/>
  <unicode hex="02DC"/>
  <outline>
    <contour>
      <point x="325" y="646" type="curve"/>
      <point x="284" y="656" type="line"/>
      <point x="274" y="622"/>
      <point x="255" y="614"/>
      <point x="237" y="614" type="curve" smooth="yes"/>
      <point x="193" y="614"/>
      <point x="163" y="651"/>
      <point x="118" y="651" type="curve" smooth="yes"/>
      <point x="63" y="651"/>
      <point x="38" y="588"/>
      <point x="35" y="552" type="curve"/>
      <point x="74" y="539" type="line"/>
      <point x="83" y="570"/>
      <point x="102" y="582"/>
      <point x="123" y="582" type="curve" smooth="yes"/>
      <point x="161" y="582"/>
      <point x="195" y="543"/>
      <point x="246" y="543" type="curve" smooth="yes"/>
      <point x="298" y="543"/>
      <point x="319" y="591"/>
    </contour>
  </outline>
</glyph>
<glyph name="hungarumlaut" format="1">
  <advance width="430"/>
  <unicode hex="02DD"/>
  <outline>
    <contour>
      <point x="388" y="617" type="line"/>
      <point x="340" y="688" type="line"/>
      <point x="184" y="553" type="line"/>
      <point x="209" y="516" type="line"/>
    </contour>
    <contour>
      <point x="230" y="673" type="line"/>
      <point x="161" y="722" type="line"/>
      <point x="61" y="541" type="line"/>
      <point x="97" y="516" type="line"/>
    </contour>
  </outline>
</glyph>
<glyph name="dotbelowcmb" format="1">
  <advance width="833"/>
  <unicode hex="0323"/>
  <outline>
    <contour>
      <point x="87" y="-180" type="line"/>
      <point x="179" y="-180" type="line"/>
      <point x="179" y="-77" type="line"/>
      <point x="87" y="-77" type="line"/>
    </contour>
  </outline>
</glyph>
<glyph name="uni0394" format="1">
  <advance width="488"/>
  <unicode hex="0394"/>
  <outline>
    <contour>
      <point x="-3" y="0" type="line"/>
      <point x="488" y="0" type="line"/>
      <point x="248" y="661" type="line"/>
    </contour>
    <contour>
      <point x="97" y="69" type="line"/>
      <point x="246" y="474" type="line"/>
      <point x="388" y="69" type="line"/>
    </contour>
  </outline>
</glyph>
<glyph name="Sigma" format="1">
  <advance width="545"/>
  <unicode hex="03A3"/>
  <outline>
    <contour>
      <point x="34" y="0" type="line"/>
      <point x="516" y="0" type="line"/>
      <point x="516" y="78" type="line"/>
      <point x="138" y="78" type="line"/>
      <point x="320" y="310" type="line"/>
      <point x="320" y="337" type="line"/>
      <point x="138" y="572" type="line"/>
      <point x="516" y="572" type="line"/>
      <point x="516" y="650" type="line"/>
      <point x="34" y="650" type="line"/>
      <point x="34" y="572" type="line"/>
      <point x="228" y="321" type="line"/>
      <point x="34" y="78" type="line"/>
    </contour>
  </outline>
</glyph>
<glyph name="Wacute" format="1">
  <advance width="950"/>
  <unicode hex="1E82"/>
  <outline>
    <contour>
      <point x="617" y="737" type="line"/>
      <point x="597" y="819" type="line"/>
      <point x="402" y="742" type="line"/>
      <point x="415" y="699" type="line"/>
    </contour>
    <contour>
      <point x="943" y="571" type="line"/>
      <point x="943" y="650" type="line"/>
      <point x="710" y="650" type="line"/>
      <point x="710" y="571" type="line"/>
      <point x="798" y="571" type="line"/>
      <point x="683" y="145" type="line"/>
      <point x="678" y="145" type="line"/>
      <point x="538" y="571" type="line"/>
      <point x="597" y="571" type="line"/>
      <point x="597" y="650" type="line"/>
      <point x="363" y="650" type="line"/>
      <point x="363" y="571" type="line"/>
      <point x="424" y="571" type="line"/>
      <point x="284" y="149" type="line"/>
      <point x="279" y="149" type="line"/>
      <point x="154" y="571" type="line"/>
      <point x="236" y="571" type="line"/>
      <point x="236" y="650" type="line"/>
      <point x="1" y="650" type="line"/>
      <point x="1" y="571" type="line"/>
      <point x="57" y="571" type="line"/>
      <point x="243" y="0" type="line"/>
      <point x="314" y="0" type="line"/>
      <point x="474" y="491" type="line"/>
      <point x="478" y="491" type="line"/>
      <point x="644" y="0" type="line"/>
      <point x="714" y="0" type="line"/>
      <point x="889" y="571" type="line"/>
    </contour>
  </outline>
</glyph>
<glyph name="wacute" format="1">
  <advance width="764"/>
  <unicode hex="1E83"/>
  <outline>
    <contour>
      <point x="557" y="617" type="line"/>
      <point x="509" y="688" type="line"/>
      <point x="353" y="553" type="line"/>
      <point x="378" y="516" type="line"/>
    </contour>
    <contour>
      <point x="755" y="378" type="line"/>
      <point x="755" y="447" type="line"/>
      <point x="550" y="447" type="line"/>
      <point x="550" y="378" type="line"/>
      <point x="625" y="378" type="line"/>
      <point x="556" y="129" type="line"/>
      <point x="550" y="129" type="line"/>
      <point x="416" y="447" type="line"/>
      <point x="360" y="447" type="line"/>
      <point x="236" y="128" type="line"/>
      <point x="231" y="128" type="line"/>
      <point x="149" y="378" type="line"/>
      <point x="227" y="378" type="line"/>
      <point x="227" y="447" type="line"/>
      <point x="9" y="447" type="line"/>
      <point x="9" y="378" type="line"/>
      <point x="55" y="378" type="line"/>
      <point x="188" y="0" type="line"/>
      <point x="251" y="0" type="line"/>
      <point x="377" y="319" type="line"/>
      <point x="382" y="319" type="line"/>
      <point x="512" y="0" type="line"/>
      <point x="578" y="0" type="line"/>
      <point x="707" y="378" type="line"/>
    </contour>
  </outline>
</glyph>
<glyph name="wdieresis" format="1">
  <advance width="764"/>
  <unicode hex="1E85"/>
  <outline>
    <contour>
      <point x="256" y="548" type="line"/>
      <point x="351" y="548" type="line"/>
      <point x="351" y="647" type="line"/>
      <point x="256" y="647" type="line"/>
    </contour>
    <contour>
      <point x="432" y="548" type="line"/>
      <point x="527" y="548" type="line"/>
      <point x="527" y="647" type="line"/>
      <point x="432" y="647" type="line"/>
    </contour>
    <contour>
      <point x="755" y="378" type="line"/>
      <point x="755" y="447" type="line"/>
      <point x="550" y="447" type="line"/>
      <point x="550" y="378" type="line"/>
      <point x="625" y="378" type="line"/>
      <point x="556" y="129" type="line"/>
      <point x="550" y="129" type="line"/>
      <point x="416" y="447" type="line"/>
      <point x="360" y="447" type="line"/>
      <point x="236" y="128" type="line"/>
      <point x="231" y="128" type="line"/>
      <point x="149" y="378" type="line"/>
      <point x="227" y="378" type="line"/>
      <point x="227" y="447" type="line"/>
      <point x="9" y="447" type="line"/>
      <point x="9" y="378" type="line"/>
      <point x="55" y="378" type="line"/>
      <point x="188" y="0" type="line"/>
      <point x="251" y="0" type="line"/>
      <point x="377" y="319" type="line"/>
      <point x="382" y="319" type="line"/>
      <point x="512" y="0" type="line"/>
      <point x="578" y="0" type="line"/>
      <point x="707" y="378" type="line"/>
    </contour>
  </outline>
</glyph>
<glyph name="ygrave" format="1">
  <advance width="516"/>
  <unicode hex="1EF3"/>
  <outline>
    <contour>
      <point x="508" y="378" type="line"/>
      <point x="508" y="447" type="line"/>
      <point x="309" y="447" type="line"/>
      <point x="309" y="378" type="line"/>
      <point x="372" y="378" type="line"/>
      <point x="273" y="106" type="line"/>
      <point x="267" y="106" type="line"/>
      <point x="152" y="378" type="line"/>
      <point x="220" y="378" type="line"/>
      <point x="220" y="447" type="line"/>
      <point x="7" y="447" type="line"/>
      <point x="7" y="378" type="line"/>
      <point x="58" y="378" type="line"/>
      <point x="219" y="-1" type="line"/>
      <point x="167" y="-143" type="line"/>
      <point x="88" y="-143" type="line"/>
      <point x="88" y="-213" type="line"/>
      <point x="320" y="-213" type="line"/>
      <point x="320" y="-143" type="line"/>
      <point x="249" y="-143" type="line"/>
      <point x="304" y="0" type="line"/>
      <point x="458" y="378" type="line"/>
    </contour>
    <contour>
      <point x="326" y="553" type="line"/>
      <point x="170" y="688" type="line"/>
      <point x="122" y="617" type="line"/>
      <point x="301" y="516" type="line"/>
    </contour>
  </outline>
</glyph>
<glyph name="endash" format="1">
  <advance width="614"/>
  <unicode hex="2013"/>
  <outline>
    <contour>
      <point x="56" y="263" type="line"/>
      <point x="558" y="263" type="line"/>
      <point x="558" y="202" type="line"/>
      <point x="56" y="202" type="line"/>
    </contour>
  </outline>
</glyph>
<glyph name="emdash" format="1">
  <advance width="1064"/>
  <unicode hex="2014"/>
  <outline>
    <contour>
      <point x="65" y="263" type="line"/>
      <point x="1005" y="263" type="line"/>
      <point x="1005" y="202" type="line"/>
      <point x="65" y="202" type="line"/>
    </contour>
  </outline>
</glyph>
<glyph name="quoteleft" format="1">
  <advance width="211"/>
  <unicode hex="2018"/>
  <outline>
    <contour>
      <point x="180" y="651" type="line"/>
      <point x="95" y="651" type="line"/>
      <point x="40" y="430" type="line"/>
      <point x="125" y="430" type="line"/>
    </contour>
  </outline>
</glyph>
<glyph name="quoteright" format="1">
  <advance width="207"/>
  <unicode hex="2019"/>
  <outline>
    <contour>
      <point x="38" y="484" type="line"/>
      <point x="123" y="484" type="line"/>
      <point x="178" y="705" type="line"/>
      <point x="93" y="705" type="line"/>
    </contour>
  </outline>
</glyph>
<glyph name="quotedblleft" format="1">
  <advance width="376"/>
  <unicode hex="201C"/>
  <outline>
    <contour>
      <point x="180" y="668" type="line"/>
      <point x="95" y="668" type="line"/>
      <point x="40" y="447" type="line"/>
      <point x="125" y="447" type="line"/>
    </contour>
    <contour>
      <point x="348" y="668" type="line"/>
      <point x="263" y="668" type="line"/>
      <point x="208" y="447" type="line"/>
      <point x="293" y="447" type="line"/>
    </contour>
  </outline>
</glyph>
<glyph name="quotedblright" format="1">
  <advance width="373"/>
  <unicode hex="201D"/>
  <outline>
    <contour>
      <point x="32" y="449" type="line"/>
      <point x="117" y="449" type="line"/>
      <point x="172" y="670" type="line"/>
      <point x="87" y="670" type="line"/>
    </contour>
    <contour>
      <point x="200" y="449" type="line"/>
      <point x="285" y="449" type="line"/>
      <point x="340" y="670" type="line"/>
      <point x="255" y="670" type="line"/>
    </contour>
  </outline>
</glyph>
<glyph name="quotedblbase" format="1">
  <advance width="376"/>
  <unicode hex="201E"/>
  <outline>
    <contour>
      <point x="18" y="-97" type="line"/>
      <point x="103" y="-97" type="line"/>
      <point x="158" y="124" type="line"/>
      <point x="73" y="124" type="line"/>
    </contour>
    <contour>
      <point x="188" y="-97" type="line"/>
      <point x="273" y="-97" type="line"/>
      <point x="328" y="124" type="line"/>
      <point x="243" y="124" type="line"/>
    </contour>
  </outline>
</glyph>
<glyph name="dagger" format="1">
  <advance width="465"/>
  <unicode hex="2020"/>
  <outline>
    <contour>
      <point x="28" y="432" type="line"/>
      <point x="194" y="432" type="line"/>
      <point x="194" y="650" type="line"/>
      <point x="271" y="650" type="line"/>
      <point x="271" y="432" type="line"/>
      <point x="438" y="432" type="line"/>
      <point x="438" y="356" type="line"/>
      <point x="271" y="356" type="line"/>
      <point x="271" y="-141" type="line"/>
      <point x="194" y="-141" type="line"/>
      <point x="194" y="356" type="line"/>
      <point x="28" y="356" type="line"/>
    </contour>
  </outline>
</glyph>
<glyph name="daggerdbl" format="1">
  <advance width="504"/>
  <unicode hex="2021"/>
  <outline>
    <contour>
      <point x="47" y="131" type="line"/>
      <point x="213" y="131" type="line"/>
      <point x="213" y="356" type="line"/>
      <point x="47" y="356" type="line"/>
      <point x="47" y="432" type="line"/>
      <point x="213" y="432" type="line"/>
      <point x="213" y="650" type="line"/>
      <point x="290" y="650" type="line"/>
      <point x="290" y="432" type="line"/>
      <point x="457" y="432" type="line"/>
      <point x="457" y="356" type="line"/>
      <point x="290" y="356" type="line"/>
      <point x="290" y="131" type="line"/>
      <point x="457" y="131" type="line"/>
      <point x="457" y="55" type="line"/>
      <point x="290" y="55" type="line"/>
      <point x="290" y="-141" type="line"/>
      <point x="213" y="-141" type="line"/>
      <point x="213" y="55" type="line"/>
      <point x="47" y="55" type="line"/>
    </contour>
  </outline>
</glyph>
<glyph name="ellipsis" format="1">
  <advance width="607"/>
  <unicode hex="2026"/>
  <outline>
    <contour>
      <point x="51" y="0" type="line"/>
      <point x="165" y="0" type="line"/>
      <point x="165" y="124" type="line"/>
      <point x="51" y="124" type="line"/>
    </contour>
    <contour>
      <point x="246" y="0" type="line"/>
      <point x="360" y="0" type="line"/>
      <point x="360" y="124" type="line"/>
      <point x="246" y="124" type="line"/>
    </contour>
    <contour>
      <point x="442" y="0" type="line"/>
      <point x="555" y="0" type="line"/>
      <point x="555" y="124" type="line"/>
      <point x="442" y="124" type="line"/>
    </contour>
  </outline>
</glyph>
<glyph name="guilsinglright" format="1">
  <advance width="291"/>
  <unicode hex="203A"/>
  <outline>
    <contour>
      <point x="117" y="25" type="line"/>
      <point x="255" y="271" type="line"/>
      <point x="117" y="511" type="line"/>
      <point x="43" y="511" type="line"/>
      <point x="168" y="271" type="line"/>
      <point x="43" y="25" type="line"/>
    </contour>
  </outline>
</glyph>
<glyph name="fraction" format="1">
  <advance width="143"/>
  <unicode hex="2044"/>
  <outline>
    <contour>
      <point x="289" y="650" type="line"/>
      <point x="99" y="325" type="line"/>
      <point x="-83" y="0" type="line"/>
      <point x="-146" y="0" type="line"/>
      <point x="51" y="337" type="line"/>
      <point x="226" y="650" type="line"/>
    </contour>
  </outline>
</glyph>
<glyph name="i.superior" format="1">
  <advance width="210"/>
  <unicode hex="2071"/>
  <outline>
    <contour>
      <point x="29" y="465" type="line"/>
      <point x="74" y="465" type="line"/>
      <point x="74" y="656" type="line"/>
      <point x="27" y="656" type="line"/>
      <point x="27" y="706" type="line"/>
      <point x="144" y="706" type="line"/>
      <point x="144" y="465" type="line"/>
      <point x="189" y="465" type="line"/>
      <point x="189" y="415" type="line"/>
      <point x="29" y="415" type="line"/>
    </contour>
    <contour>
      <point x="71" y="775" type="line"/>
      <point x="144" y="775" type="line"/>
      <point x="144" y="847" type="line"/>
      <point x="71" y="847" type="line"/>
    </contour>
  </outline>
</glyph>
